<svg id="svg" version="1.1" xmlns="http://www.w3.org/2000/svg" xmlns:xlink="http://www.w3.org/1999/xlink" width="400" height="400" viewBox="0, 0, 400,400"><g id="svgg"><path id="path0" d="M184.900 1.072 C 183.305 1.162,182.000 1.381,182.000 1.560 C 182.000 1.739,180.515 2.004,178.700 2.149 C 174.484 2.487,165.293 3.840,160.427 4.838 C 157.431 5.452,156.588 5.508,156.333 5.106 C 156.101 4.740,156.011 4.794,156.006 5.300 C 156.003 5.707,155.697 6.000,155.276 6.000 C 154.385 6.000,146.178 8.082,141.701 9.444 C 139.886 9.996,138.193 10.319,137.939 10.162 C 137.669 9.995,137.584 10.051,137.736 10.296 C 138.038 10.784,137.143 11.200,135.791 11.200 C 135.272 11.200,134.751 11.355,134.634 11.545 C 134.517 11.735,133.561 12.123,132.510 12.407 C 131.460 12.692,130.420 13.046,130.200 13.195 C 129.733 13.510,122.228 16.467,121.000 16.819 C 120.780 16.882,119.764 17.353,118.742 17.867 C 117.720 18.380,116.685 18.800,116.442 18.800 C 116.199 18.800,116.000 18.980,116.000 19.200 C 116.000 19.420,115.794 19.600,115.542 19.600 C 115.290 19.600,113.085 20.609,110.642 21.843 C 82.660 35.975,59.118 55.687,39.756 81.200 C 36.770 85.135,31.308 93.060,30.659 94.400 C 30.321 95.098,29.801 95.954,28.292 98.292 C 27.691 99.223,27.200 100.155,27.200 100.363 C 27.200 100.572,26.968 100.981,26.683 101.271 C 26.040 101.929,25.149 103.567,21.714 110.400 C 20.221 113.370,18.893 115.890,18.763 116.000 C 18.633 116.110,18.189 117.094,17.775 118.188 C 17.362 119.281,16.704 120.804,16.312 121.572 C 15.920 122.341,15.600 123.209,15.600 123.503 C 15.600 123.796,15.150 124.882,14.600 125.915 C 14.050 126.948,13.600 128.053,13.600 128.371 C 13.600 128.688,13.257 129.679,12.838 130.574 C 12.418 131.468,11.800 133.100,11.464 134.200 C 11.128 135.300,10.294 137.820,9.612 139.800 C 7.993 144.497,5.090 155.781,4.004 161.600 C 3.532 164.130,2.972 166.920,2.759 167.800 C 2.545 168.680,2.320 170.030,2.257 170.800 C 1.791 176.497,1.073 182.315,0.763 182.900 C 0.560 183.285,0.507 184.566,0.645 185.746 C 0.811 187.156,0.744 187.988,0.449 188.170 C -0.177 188.557,-0.186 213.438,0.440 213.825 C 0.729 214.003,0.787 214.843,0.609 216.270 C 0.442 217.602,0.499 218.637,0.756 218.946 C 0.986 219.224,1.251 220.969,1.345 222.825 C 1.439 224.681,1.610 226.470,1.724 226.800 C 2.233 228.260,2.393 230.926,2.002 231.398 C 1.697 231.765,1.737 231.967,2.148 232.125 C 2.486 232.254,2.830 233.210,2.995 234.472 C 4.072 242.732,9.486 263.241,12.426 270.200 C 12.705 270.860,12.951 271.490,12.973 271.600 C 13.157 272.520,14.979 276.863,15.252 277.032 C 15.443 277.150,15.600 277.556,15.600 277.934 C 15.600 278.311,16.134 279.696,16.787 281.010 C 17.441 282.325,17.981 283.549,17.987 283.732 C 18.005 284.190,23.180 294.413,25.008 297.600 C 25.828 299.030,26.950 301.010,27.501 302.000 C 28.053 302.990,28.750 304.084,29.052 304.431 C 29.353 304.779,29.600 305.188,29.600 305.341 C 29.600 305.852,37.164 316.999,39.270 319.591 C 39.891 320.356,40.400 321.121,40.400 321.291 C 40.400 321.461,40.768 322.005,41.219 322.500 C 42.470 323.876,42.788 324.249,47.098 329.400 C 49.307 332.040,51.674 334.729,52.357 335.375 C 53.041 336.021,53.600 336.722,53.600 336.932 C 53.600 337.396,62.978 346.795,63.459 346.812 C 63.646 346.819,65.313 348.259,67.162 350.012 C 69.011 351.765,70.610 353.200,70.714 353.200 C 70.818 353.200,71.566 353.785,72.377 354.500 C 77.090 358.657,86.946 365.754,95.420 371.091 C 98.004 372.719,107.150 377.767,110.200 379.250 C 112.180 380.213,113.860 381.135,113.933 381.300 C 114.007 381.465,114.226 381.600,114.421 381.600 C 114.617 381.600,115.727 382.032,116.888 382.559 C 120.119 384.027,122.159 384.907,122.600 385.023 C 122.820 385.081,124.620 385.788,126.600 386.596 C 137.316 390.965,152.094 395.094,165.100 397.354 L 166.400 397.580 166.400 320.190 L 166.400 242.800 142.900 242.794 C 129.975 242.791,119.160 242.635,118.866 242.449 C 118.440 242.179,118.378 240.778,118.558 235.555 C 118.747 230.117,118.813 223.615,118.750 216.600 C 118.731 214.396,118.653 199.878,118.626 193.468 C 118.611 189.698,118.762 187.005,119.000 186.811 C 119.374 186.506,125.487 186.437,154.800 186.410 L 166.600 186.399 166.693 162.100 C 166.744 148.735,166.888 137.080,167.012 136.200 C 167.137 135.320,167.511 132.620,167.843 130.200 C 168.665 124.210,171.426 113.575,172.359 112.800 C 172.492 112.690,172.608 112.420,172.618 112.200 C 172.627 111.980,172.866 111.260,173.148 110.600 C 178.045 99.147,187.532 88.009,197.115 82.464 C 202.624 79.277,203.810 78.629,204.200 78.594 C 204.420 78.574,205.470 78.163,206.533 77.679 C 207.596 77.196,208.711 76.800,209.010 76.800 C 209.308 76.800,209.653 76.638,209.775 76.440 C 209.897 76.242,210.943 75.866,212.099 75.605 C 213.254 75.344,214.740 74.894,215.400 74.606 C 217.281 73.786,220.172 73.398,219.789 74.018 C 219.584 74.349,219.638 74.424,219.945 74.234 C 220.202 74.075,220.318 73.790,220.201 73.602 C 219.944 73.186,224.068 72.575,225.953 72.750 C 226.773 72.825,227.438 72.663,227.639 72.337 C 228.061 71.656,261.094 71.595,261.534 72.274 C 261.691 72.517,265.075 72.794,269.800 72.952 C 274.200 73.098,278.610 73.349,279.600 73.509 L 281.400 73.800 281.400 98.800 L 281.400 123.800 263.705 123.829 C 253.972 123.844,245.887 123.979,245.738 124.129 C 245.589 124.278,244.991 124.400,244.409 124.400 C 238.009 124.400,229.969 129.311,227.264 134.872 C 224.709 140.125,224.683 140.404,224.506 164.500 L 224.345 186.400 250.473 186.478 C 264.843 186.521,277.050 186.594,277.600 186.641 C 278.150 186.688,278.825 186.743,279.100 186.763 C 279.691 186.807,279.779 189.277,279.227 190.305 C 278.768 191.159,277.103 204.326,277.144 206.775 C 277.160 207.751,276.979 208.784,276.741 209.071 C 276.503 209.358,276.389 210.142,276.487 210.814 C 276.586 211.486,276.517 212.128,276.333 212.241 C 276.150 212.355,276.000 213.157,276.000 214.024 C 276.000 214.891,275.859 215.600,275.687 215.600 C 275.515 215.600,275.445 216.862,275.532 218.404 C 275.634 220.212,275.521 221.414,275.212 221.785 C 274.949 222.102,274.840 222.695,274.969 223.103 C 275.099 223.511,275.010 224.735,274.772 225.823 C 274.055 229.106,273.192 235.655,273.155 238.101 C 273.136 239.367,272.958 240.502,272.760 240.625 C 272.562 240.747,272.400 241.287,272.400 241.824 L 272.400 242.800 248.400 242.800 L 224.400 242.800 224.400 320.800 C 224.400 394.820,224.436 398.800,225.100 398.796 C 225.485 398.794,227.870 398.508,230.400 398.159 C 232.930 397.811,235.450 397.526,236.000 397.527 C 236.550 397.529,237.200 397.364,237.444 397.162 C 237.689 396.960,238.589 396.746,239.444 396.687 C 240.300 396.628,241.187 396.462,241.416 396.318 C 241.644 396.175,243.309 395.824,245.116 395.540 C 246.922 395.256,248.400 394.903,248.400 394.756 C 248.400 394.609,249.075 394.371,249.900 394.226 C 252.664 393.741,265.982 389.779,268.200 388.782 C 268.640 388.585,271.610 387.414,274.800 386.182 C 287.659 381.213,303.842 372.292,316.200 363.358 C 323.519 358.067,326.043 356.046,334.534 348.678 C 337.319 346.261,346.798 336.860,346.811 336.502 C 346.817 336.336,348.167 334.775,349.811 333.033 C 351.455 331.291,352.800 329.793,352.800 329.703 C 352.800 329.567,353.806 328.347,357.552 323.941 C 359.252 321.941,364.106 315.104,367.874 309.400 C 372.440 302.490,380.800 287.408,380.800 286.082 C 380.800 285.817,380.952 285.600,381.137 285.600 C 381.322 285.600,381.702 284.835,381.981 283.900 C 382.260 282.965,382.620 282.110,382.780 282.000 C 383.283 281.656,387.878 269.658,389.986 263.186 C 391.095 259.784,392.114 256.730,392.252 256.400 C 392.390 256.070,392.546 255.440,392.598 255.000 C 392.651 254.560,393.337 251.590,394.123 248.400 C 394.910 245.210,395.842 240.980,396.194 239.000 C 396.547 237.020,397.028 235.012,397.265 234.538 C 397.501 234.064,397.573 233.479,397.424 233.238 C 397.275 232.997,397.295 232.575,397.468 232.300 C 397.641 232.025,397.830 230.741,397.886 229.447 C 397.943 228.153,398.146 226.893,398.337 226.647 C 398.898 225.925,399.128 224.530,398.779 223.966 C 398.601 223.678,398.630 223.117,398.843 222.719 C 399.056 222.321,399.281 220.109,399.342 217.804 C 399.403 215.499,399.576 213.490,399.727 213.340 C 400.133 212.934,400.058 188.483,399.650 188.231 C 399.457 188.112,399.291 186.036,399.280 183.618 C 399.269 181.199,399.114 178.991,398.936 178.710 C 398.758 178.430,398.577 177.390,398.535 176.400 C 398.492 175.410,398.348 174.060,398.215 173.400 C 398.081 172.740,397.900 171.264,397.811 170.120 C 397.722 168.975,397.457 167.680,397.223 167.242 C 396.988 166.804,396.772 165.670,396.742 164.723 C 396.712 163.775,396.559 162.820,396.401 162.600 C 396.244 162.380,395.898 161.030,395.632 159.600 C 395.367 158.170,394.533 154.587,393.778 151.637 C 392.735 147.557,392.515 146.143,392.860 145.728 C 393.218 145.296,393.176 145.235,392.657 145.434 C 392.211 145.605,392.000 145.473,392.000 145.024 C 392.000 143.899,386.813 128.735,385.573 126.236 C 384.928 124.936,384.400 123.711,384.400 123.514 C 384.400 123.092,381.511 116.293,381.207 116.000 C 381.093 115.890,379.745 113.235,378.211 110.100 C 376.677 106.965,375.296 104.400,375.142 104.400 C 374.988 104.400,374.654 103.770,374.400 103.000 C 374.146 102.230,373.784 101.600,373.596 101.600 C 373.408 101.600,373.133 101.195,372.984 100.700 C 372.673 99.662,371.551 97.817,366.841 90.600 C 354.677 71.963,337.488 53.860,318.638 39.834 C 314.209 36.539,306.965 31.600,306.560 31.600 C 306.443 31.600,305.774 31.195,305.073 30.699 C 301.466 28.147,285.592 19.600,284.458 19.600 C 284.206 19.600,284.000 19.420,284.000 19.200 C 284.000 18.980,283.818 18.800,283.596 18.800 C 283.373 18.800,282.338 18.419,281.296 17.953 C 276.139 15.651,268.955 12.887,263.400 11.069 C 258.615 9.503,248.305 6.626,245.900 6.186 C 245.075 6.035,244.400 5.777,244.400 5.613 C 244.400 5.449,243.905 5.318,243.300 5.322 C 242.695 5.326,239.680 4.852,236.600 4.269 C 233.520 3.685,229.949 3.117,228.664 3.006 C 227.380 2.894,226.165 2.702,225.965 2.579 C 225.765 2.455,223.937 2.258,221.902 2.141 C 219.866 2.024,218.080 1.730,217.930 1.487 C 217.656 1.043,191.301 0.712,184.900 1.072 M236.921 72.298 C 239.077 72.371,242.497 72.370,244.521 72.298 C 246.544 72.225,244.780 72.166,240.600 72.167 C 236.420 72.167,234.764 72.226,236.921 72.298 " stroke="none" fill="#040404" fill-rule="evenodd"></path><path id="path1" d="M174.800 1.200 C 174.470 1.413,173.210 1.593,172.000 1.600 C 169.887 1.612,168.362 2.095,168.861 2.595 C 169.164 2.897,174.400 2.374,174.400 2.042 C 174.400 1.906,175.210 1.859,176.200 1.937 C 177.282 2.023,178.000 1.913,178.000 1.660 C 178.000 1.429,179.035 1.175,180.300 1.096 C 182.000 0.989,181.661 0.933,179.000 0.882 C 177.020 0.844,175.130 0.987,174.800 1.200 M219.900 1.081 C 221.055 1.168,222.000 1.434,222.000 1.672 C 222.000 1.947,222.649 2.031,223.784 1.903 C 224.765 1.792,225.620 1.836,225.684 1.999 C 225.748 2.162,227.060 2.425,228.600 2.583 C 230.912 2.820,231.311 2.778,230.888 2.343 C 230.296 1.734,226.558 1.223,221.400 1.046 C 219.420 0.978,218.745 0.994,219.900 1.081 M162.023 3.095 C 161.266 3.187,160.281 3.518,159.834 3.831 C 159.388 4.144,158.432 4.400,157.711 4.400 C 156.990 4.400,156.400 4.599,156.400 4.843 C 156.400 5.086,156.647 5.191,156.949 5.075 C 157.251 4.959,158.376 4.735,159.449 4.577 C 160.522 4.418,161.494 4.145,161.608 3.969 C 161.723 3.794,162.775 3.561,163.948 3.452 C 165.120 3.343,166.181 3.152,166.306 3.027 C 166.549 2.784,164.287 2.820,162.023 3.095 M233.761 3.094 C 233.922 3.256,235.077 3.411,236.327 3.439 C 238.059 3.479,238.314 3.420,237.400 3.193 C 235.789 2.792,233.394 2.727,233.761 3.094 M240.833 4.543 C 241.257 4.907,244.000 5.108,244.000 4.775 C 244.000 4.569,243.250 4.400,242.333 4.400 C 241.417 4.400,240.742 4.465,240.833 4.543 M246.000 5.515 C 246.000 5.862,253.655 7.641,253.957 7.363 C 254.044 7.284,253.864 7.150,253.557 7.065 C 253.251 6.981,252.100 6.630,251.000 6.287 C 248.296 5.442,246.000 5.087,246.000 5.515 M150.000 6.239 L 149.000 6.850 150.000 6.631 C 150.550 6.510,151.315 6.408,151.700 6.405 C 152.085 6.402,152.400 6.220,152.400 6.000 C 152.400 5.413,151.148 5.538,150.000 6.239 M143.000 8.000 C 142.864 8.220,142.401 8.400,141.970 8.400 C 140.799 8.400,138.000 9.345,138.000 9.740 C 138.000 9.930,138.315 9.952,138.700 9.790 C 139.085 9.627,140.525 9.213,141.900 8.870 C 143.275 8.527,144.400 8.101,144.400 7.923 C 144.400 7.462,143.295 7.523,143.000 8.000 M255.381 7.969 C 255.506 8.172,256.192 8.456,256.905 8.599 C 257.617 8.742,258.560 8.959,259.000 9.080 C 260.335 9.446,259.289 8.688,257.693 8.132 C 255.929 7.518,255.064 7.457,255.381 7.969 M260.620 9.555 C 261.432 10.314,263.049 10.582,262.448 9.858 C 262.148 9.496,261.528 9.200,261.071 9.200 C 260.568 9.200,260.390 9.340,260.620 9.555 M263.600 10.631 C 265.670 11.432,267.600 11.901,267.600 11.603 C 267.600 11.411,267.285 11.161,266.900 11.048 C 265.834 10.735,262.916 10.366,263.600 10.631 M130.800 12.000 C 130.312 12.315,130.364 12.389,131.076 12.394 C 131.558 12.397,132.064 12.220,132.200 12.000 C 132.515 11.491,131.588 11.491,130.800 12.000 M268.000 11.953 C 268.000 12.148,268.492 12.401,269.092 12.516 C 270.114 12.711,270.135 12.688,269.416 12.162 C 268.537 11.519,268.000 11.440,268.000 11.953 M127.734 13.078 C 127.257 13.171,126.768 13.506,126.646 13.823 C 126.368 14.549,126.328 14.555,128.200 13.600 C 129.708 12.831,129.602 12.713,127.734 13.078 M271.700 13.295 C 272.525 13.540,273.200 13.889,273.200 14.071 C 273.200 14.252,273.419 14.400,273.686 14.400 C 274.721 14.400,272.963 13.275,271.600 13.065 L 270.200 12.850 271.700 13.295 M121.200 15.800 L 120.200 16.372 121.224 16.386 C 121.786 16.394,122.596 16.136,123.024 15.813 C 124.121 14.982,122.648 14.972,121.200 15.800 M277.278 15.736 C 277.573 16.030,278.347 16.373,278.999 16.498 C 280.083 16.705,280.120 16.677,279.433 16.175 C 279.020 15.873,278.529 15.720,278.341 15.836 C 278.153 15.952,278.000 15.857,278.000 15.624 C 278.000 15.391,277.717 15.200,277.371 15.200 C 276.846 15.200,276.831 15.288,277.278 15.736 M281.100 17.288 C 281.595 17.527,282.000 17.875,282.000 18.061 C 282.000 18.248,282.315 18.400,282.700 18.400 C 283.370 18.399,294.827 24.048,299.000 26.437 C 301.093 27.635,301.600 27.802,301.600 27.294 C 301.600 27.126,300.925 26.678,300.100 26.299 C 299.275 25.919,297.880 25.159,297.000 24.609 C 296.120 24.059,294.950 23.427,294.400 23.204 C 293.850 22.982,293.130 22.624,292.800 22.407 C 291.581 21.608,288.825 20.400,288.222 20.400 C 287.880 20.400,287.600 20.216,287.600 19.990 C 287.600 19.765,287.108 19.393,286.506 19.164 C 285.036 18.605,282.758 17.616,281.905 17.166 C 281.523 16.965,280.983 16.812,280.705 16.827 C 280.427 16.842,280.605 17.049,281.100 17.288 M114.600 18.800 C 114.464 19.020,114.003 19.200,113.576 19.200 C 113.135 19.200,112.800 19.473,112.800 19.833 C 112.800 20.362,113.046 20.317,114.300 19.563 C 116.251 18.390,116.241 18.400,115.490 18.400 C 115.137 18.400,114.736 18.580,114.600 18.800 M110.600 20.740 C 109.555 21.080,107.526 22.459,107.747 22.680 C 107.841 22.774,108.952 22.300,110.215 21.626 C 112.346 20.489,112.506 20.120,110.600 20.740 M105.300 23.212 C 104.805 23.411,104.400 23.760,104.400 23.987 C 104.400 24.214,104.040 24.400,103.600 24.400 C 103.160 24.400,102.800 24.576,102.800 24.790 C 102.800 25.256,104.704 24.599,105.599 23.824 C 105.930 23.538,106.470 23.205,106.800 23.084 C 107.333 22.888,107.333 22.862,106.800 22.857 C 106.470 22.854,105.795 23.013,105.300 23.212 M100.115 26.138 C 98.247 27.392,98.515 27.691,100.599 26.676 C 101.588 26.194,102.398 25.665,102.399 25.500 C 102.401 24.978,101.445 25.246,100.115 26.138 M302.000 27.951 C 302.000 28.145,302.527 28.521,303.171 28.788 C 303.815 29.055,304.653 29.617,305.033 30.037 C 305.413 30.456,305.953 30.800,306.233 30.800 C 306.514 30.800,306.981 31.035,307.271 31.322 C 307.562 31.610,308.565 32.273,309.500 32.796 C 310.435 33.319,311.200 33.872,311.200 34.025 C 311.200 34.178,311.740 34.527,312.400 34.800 C 313.060 35.073,313.600 35.426,313.600 35.584 C 313.600 35.742,314.034 36.069,314.564 36.311 C 315.731 36.842,319.077 39.348,321.229 41.300 C 321.653 41.685,322.148 42.000,322.328 42.000 C 322.508 42.000,323.392 42.630,324.292 43.400 C 325.191 44.170,326.036 44.800,326.169 44.800 C 326.302 44.800,327.264 45.594,328.306 46.564 C 329.347 47.534,331.184 49.199,332.386 50.264 C 334.674 52.291,348.132 65.697,350.192 68.002 C 352.819 70.941,358.547 77.883,359.431 79.200 C 359.948 79.970,361.143 81.609,362.086 82.842 C 363.028 84.075,364.029 85.425,364.310 85.842 C 365.183 87.142,366.581 89.304,367.023 90.040 C 367.255 90.427,367.746 91.161,368.113 91.672 C 369.965 94.248,371.600 96.822,371.600 97.162 C 371.600 97.371,371.857 97.799,372.170 98.113 C 372.484 98.427,373.017 99.295,373.356 100.042 C 373.694 100.789,374.523 102.300,375.197 103.400 C 375.872 104.500,376.776 106.120,377.207 107.000 C 377.637 107.880,378.165 108.870,378.380 109.200 C 378.594 109.530,379.519 111.420,380.434 113.400 C 382.290 117.414,382.301 117.432,382.649 117.085 C 382.972 116.761,378.452 107.600,377.969 107.600 C 377.766 107.600,377.600 107.320,377.600 106.978 C 377.600 106.047,376.038 102.800,375.590 102.800 C 375.376 102.800,375.200 102.464,375.200 102.054 C 375.200 101.644,374.840 100.850,374.400 100.291 C 373.960 99.731,373.600 99.077,373.600 98.837 C 373.600 98.597,373.420 98.400,373.200 98.400 C 372.980 98.400,372.800 98.040,372.800 97.600 C 372.800 97.160,372.642 96.800,372.449 96.800 C 372.255 96.800,371.873 96.260,371.600 95.600 C 371.327 94.940,370.989 94.400,370.849 94.400 C 370.710 94.400,370.364 93.877,370.081 93.238 C 369.798 92.598,369.169 91.653,368.683 91.138 C 368.197 90.622,367.354 89.345,366.808 88.300 C 366.263 87.255,365.678 86.400,365.508 86.400 C 365.339 86.400,365.200 86.132,365.200 85.803 C 365.200 85.475,364.840 84.982,364.400 84.707 C 363.960 84.432,363.600 84.019,363.600 83.789 C 363.600 83.558,363.067 82.747,362.416 81.985 C 361.765 81.223,361.222 80.420,361.209 80.200 C 361.197 79.980,360.379 78.940,359.393 77.888 C 358.407 76.837,357.600 75.822,357.600 75.633 C 357.600 75.445,357.062 74.865,356.404 74.345 C 355.746 73.825,355.205 73.220,355.202 73.000 C 355.199 72.780,354.657 72.025,353.998 71.322 C 353.339 70.619,352.800 69.974,352.800 69.889 C 352.800 69.081,334.179 50.400,333.374 50.400 C 333.058 50.400,332.800 50.130,332.800 49.800 C 332.800 49.470,332.530 49.200,332.200 49.200 C 331.870 49.200,331.600 49.064,331.600 48.897 C 331.600 48.478,323.771 41.955,321.734 40.677 C 320.817 40.103,319.950 39.443,319.807 39.212 C 319.590 38.859,317.916 37.668,314.454 35.400 C 314.118 35.180,313.485 34.685,313.046 34.300 C 312.608 33.915,312.013 33.600,311.725 33.600 C 311.436 33.600,311.200 33.420,311.200 33.200 C 311.200 32.980,311.012 32.800,310.783 32.800 C 310.553 32.800,309.887 32.356,309.302 31.814 C 308.717 31.272,307.735 30.717,307.119 30.582 C 306.504 30.447,306.000 30.178,306.000 29.985 C 306.000 29.644,302.798 27.600,302.265 27.600 C 302.119 27.600,302.000 27.758,302.000 27.951 M95.800 28.711 C 95.140 29.090,94.467 29.605,94.305 29.855 C 94.143 30.106,93.513 30.435,92.905 30.587 C 91.736 30.878,90.400 31.886,90.400 32.476 C 90.400 32.881,91.925 32.132,92.720 31.337 C 93.016 31.042,93.492 30.800,93.780 30.800 C 94.067 30.800,94.536 30.518,94.823 30.173 C 95.109 29.828,95.986 29.206,96.771 28.791 C 97.557 28.375,97.930 28.032,97.600 28.028 C 97.270 28.024,96.460 28.331,95.800 28.711 M87.771 33.989 C 86.907 34.643,86.003 35.183,85.762 35.189 C 85.521 35.195,84.998 35.560,84.600 36.000 C 84.202 36.440,83.634 36.800,83.338 36.800 C 83.042 36.800,82.800 36.941,82.800 37.114 C 82.800 37.286,82.252 37.751,81.582 38.147 C 80.912 38.543,79.877 39.310,79.282 39.852 C 78.144 40.889,75.919 42.588,74.375 43.600 C 73.871 43.930,72.636 44.984,71.629 45.943 C 70.623 46.901,69.260 48.057,68.600 48.510 C 67.940 48.964,66.025 50.700,64.345 52.368 C 62.665 54.036,60.280 56.352,59.045 57.517 C 57.810 58.681,56.800 59.698,56.800 59.777 C 56.800 60.088,53.972 62.725,53.405 62.943 C 53.072 63.071,52.800 63.368,52.800 63.603 C 52.800 63.839,52.080 64.717,51.200 65.554 C 50.320 66.391,49.600 67.180,49.600 67.307 C 49.600 67.434,49.105 68.056,48.500 68.689 C 44.910 72.446,42.800 74.819,42.800 75.100 C 42.800 75.388,41.424 77.097,39.795 78.834 C 39.468 79.182,39.200 79.637,39.200 79.845 C 39.200 80.053,38.840 80.483,38.400 80.800 C 37.960 81.117,37.600 81.536,37.600 81.731 C 37.600 81.926,37.060 82.767,36.400 83.600 C 35.740 84.433,35.200 85.314,35.200 85.558 C 35.200 85.801,35.065 86.001,34.900 86.003 C 34.735 86.004,34.152 86.679,33.604 87.503 C 33.056 88.326,32.489 89.090,32.345 89.200 C 32.200 89.310,31.607 90.293,31.028 91.385 C 30.448 92.476,29.836 93.466,29.669 93.585 C 29.334 93.821,27.881 96.244,25.159 101.100 C 24.697 101.925,24.081 102.870,23.791 103.200 C 23.500 103.530,23.138 104.297,22.987 104.904 C 22.835 105.511,22.556 106.103,22.367 106.220 C 21.863 106.532,20.400 109.976,20.400 110.851 C 20.400 111.263,20.232 111.600,20.028 111.600 C 19.616 111.600,16.800 117.014,16.800 117.805 C 16.800 118.078,16.535 118.522,16.211 118.791 C 15.886 119.060,15.506 119.892,15.366 120.640 C 15.226 121.388,14.951 122.000,14.755 122.000 C 14.560 122.000,14.400 122.338,14.400 122.751 C 14.400 123.164,14.150 123.710,13.843 123.964 C 13.537 124.218,13.169 125.215,13.024 126.180 C 12.879 127.145,12.500 128.151,12.180 128.416 C 11.861 128.681,11.600 129.225,11.600 129.625 C 11.600 130.025,11.430 130.458,11.223 130.586 C 11.016 130.714,10.727 131.669,10.580 132.709 C 10.434 133.749,10.093 134.780,9.822 135.000 C 9.550 135.220,9.222 135.850,9.092 136.400 C 8.962 136.950,8.651 138.120,8.400 139.000 C 6.794 144.639,7.931 143.366,9.917 137.300 C 12.163 130.443,13.694 126.242,14.035 126.000 C 14.190 125.890,14.523 125.035,14.774 124.100 C 15.025 123.165,15.359 122.398,15.515 122.397 C 15.672 122.395,16.146 121.270,16.569 119.897 C 16.992 118.523,17.455 117.310,17.596 117.200 C 17.738 117.090,19.240 114.174,20.934 110.719 C 22.629 107.264,24.178 104.337,24.377 104.214 C 24.576 104.091,24.857 103.453,25.001 102.795 C 25.145 102.138,25.438 101.600,25.652 101.600 C 25.866 101.600,26.322 100.925,26.665 100.100 C 27.009 99.275,27.418 98.510,27.575 98.400 C 27.732 98.290,28.207 97.570,28.630 96.800 C 29.054 96.030,29.510 95.310,29.644 95.200 C 29.778 95.090,30.203 94.387,30.587 93.638 C 30.971 92.888,31.449 92.078,31.649 91.838 C 32.352 90.994,33.972 88.588,34.639 87.400 C 35.009 86.740,35.431 86.110,35.577 86.000 C 35.723 85.890,36.252 85.125,36.754 84.300 C 37.255 83.475,37.818 82.800,38.006 82.800 C 38.193 82.800,38.447 82.485,38.571 82.100 C 38.694 81.715,39.213 80.916,39.724 80.324 C 40.234 79.732,41.001 78.768,41.426 78.183 C 47.511 69.813,61.710 55.049,71.609 46.800 C 72.797 45.810,74.176 44.608,74.674 44.129 C 75.171 43.650,76.156 42.930,76.863 42.529 C 77.570 42.128,78.453 41.530,78.826 41.200 C 79.200 40.870,79.931 40.279,80.452 39.886 C 80.974 39.494,82.120 38.619,83.000 37.943 C 83.880 37.267,85.005 36.558,85.500 36.367 C 85.995 36.176,86.400 35.847,86.400 35.637 C 86.400 35.426,86.738 35.147,87.151 35.016 C 88.088 34.718,90.356 32.801,89.771 32.800 C 89.535 32.800,88.635 33.335,87.771 33.989 M248.800 72.400 C 248.800 72.620,249.520 72.800,250.400 72.800 C 251.280 72.800,252.000 72.620,252.000 72.400 C 252.000 72.180,251.280 72.000,250.400 72.000 C 249.520 72.000,248.800 72.180,248.800 72.400 M223.400 73.200 L 221.800 73.486 223.476 73.543 C 224.398 73.574,225.264 73.420,225.400 73.200 C 225.536 72.980,225.502 72.826,225.324 72.857 C 225.146 72.888,224.280 73.042,223.400 73.200 M268.000 73.300 C 268.000 73.465,269.305 73.575,270.900 73.546 C 273.954 73.488,273.621 73.309,270.100 73.116 C 268.945 73.052,268.000 73.135,268.000 73.300 M279.600 74.400 C 279.600 74.620,279.780 74.800,280.000 74.800 C 280.262 74.800,280.400 83.067,280.400 98.800 L 280.400 122.800 265.533 122.800 C 257.357 122.800,250.750 122.883,250.851 122.984 C 251.124 123.257,280.583 123.306,280.700 123.033 C 281.212 121.840,280.724 74.000,280.200 74.000 C 279.870 74.000,279.600 74.180,279.600 74.400 M202.700 79.476 C 202.315 79.576,202.000 79.825,202.000 80.029 C 202.000 80.535,202.419 80.475,203.600 79.800 C 204.566 79.248,204.148 79.097,202.700 79.476 M198.977 81.767 C 198.550 82.079,198.294 82.427,198.407 82.540 C 198.520 82.653,199.059 82.402,199.606 81.982 C 200.745 81.107,200.155 80.906,198.977 81.767 M195.669 83.896 C 194.739 84.499,194.176 85.059,194.418 85.139 C 194.659 85.220,195.261 84.906,195.754 84.443 C 196.248 83.979,196.865 83.600,197.126 83.600 C 197.387 83.600,197.600 83.420,197.600 83.200 C 197.600 82.651,197.578 82.659,195.669 83.896 M191.702 86.700 C 191.034 87.305,189.910 88.308,189.205 88.929 C 187.277 90.628,187.968 90.588,189.990 88.883 C 192.890 86.437,193.738 85.600,193.318 85.600 C 193.098 85.600,192.371 86.095,191.702 86.700 M185.445 92.700 C 182.688 95.592,181.074 97.600,181.506 97.600 C 181.721 97.600,182.504 96.835,183.248 95.900 C 183.992 94.965,185.050 93.750,185.600 93.200 C 186.889 91.911,187.758 90.800,187.477 90.800 C 187.356 90.800,186.441 91.655,185.445 92.700 M180.310 98.780 C 179.953 99.196,179.441 99.956,179.171 100.468 C 178.901 100.981,178.572 101.490,178.440 101.600 C 178.109 101.876,177.200 103.530,177.200 103.857 C 177.200 104.004,177.560 103.798,178.000 103.400 C 178.440 103.002,178.800 102.511,178.800 102.310 C 178.800 102.109,179.357 101.134,180.039 100.144 C 181.303 98.307,181.480 97.413,180.310 98.780 M176.312 105.098 C 175.558 105.956,175.018 107.600,175.490 107.600 C 175.836 107.600,177.281 104.748,177.051 104.518 C 176.984 104.450,176.651 104.711,176.312 105.098 M174.082 109.919 C 173.593 110.953,173.201 111.980,173.211 112.200 C 173.221 112.420,173.692 111.644,174.257 110.476 C 174.822 109.307,175.214 108.281,175.128 108.194 C 175.042 108.108,174.571 108.884,174.082 109.919 M170.859 118.200 C 170.820 118.640,170.677 119.450,170.540 120.000 C 170.348 120.770,170.402 120.897,170.775 120.551 C 171.044 120.301,171.185 119.503,171.093 118.751 C 171.002 118.008,170.897 117.760,170.859 118.200 M382.800 118.140 C 382.800 118.755,383.753 120.800,384.039 120.800 C 384.238 120.800,384.403 121.115,384.406 121.500 C 384.409 121.885,384.605 122.470,384.840 122.800 C 385.162 123.253,385.208 123.059,385.026 122.012 C 384.893 121.248,384.518 120.474,384.192 120.292 C 383.867 120.109,383.600 119.519,383.600 118.980 C 383.600 118.441,383.420 118.000,383.200 118.000 C 382.980 118.000,382.800 118.063,382.800 118.140 M169.431 123.500 C 169.289 124.325,169.070 125.518,168.944 126.150 C 168.787 126.935,168.855 127.213,169.157 127.026 C 169.401 126.876,169.600 126.073,169.600 125.243 C 169.600 124.413,169.725 123.608,169.878 123.455 C 170.287 123.046,170.381 122.000,170.009 122.000 C 169.833 122.000,169.573 122.675,169.431 123.500 M240.976 123.787 C 240.549 124.110,239.705 124.380,239.100 124.387 C 238.495 124.394,238.000 124.599,238.000 124.843 C 238.000 125.086,238.286 125.176,238.635 125.042 C 238.984 124.908,240.019 124.684,240.935 124.545 C 241.851 124.405,242.780 124.151,243.000 123.981 C 243.220 123.810,243.940 123.592,244.600 123.495 C 245.406 123.377,245.136 123.300,243.776 123.260 C 242.532 123.223,241.454 123.426,240.976 123.787 M385.200 123.777 C 385.200 123.928,385.650 125.035,386.200 126.237 C 386.750 127.440,387.200 128.628,387.200 128.879 C 387.200 129.129,387.310 129.223,387.444 129.089 C 387.797 128.736,386.394 124.493,385.747 123.956 C 385.446 123.706,385.200 123.626,385.200 123.777 M234.900 125.688 C 234.405 125.927,234.000 126.275,234.000 126.461 C 234.000 126.648,233.680 126.800,233.289 126.800 C 232.898 126.800,231.987 127.340,231.264 128.000 C 230.542 128.660,229.782 129.200,229.575 129.200 C 229.369 129.200,229.200 129.427,229.200 129.704 C 229.200 129.981,228.840 130.432,228.400 130.707 C 227.960 130.982,227.600 131.398,227.600 131.631 C 227.600 131.865,227.060 132.841,226.400 133.800 C 225.740 134.759,225.200 135.917,225.200 136.372 C 225.200 137.732,225.840 137.312,226.347 135.618 C 226.608 134.748,227.267 133.507,227.811 132.860 C 228.355 132.214,228.800 131.519,228.800 131.317 C 228.800 130.785,230.956 128.800,231.534 128.800 C 231.804 128.800,232.125 128.541,232.246 128.224 C 232.367 127.908,233.442 127.245,234.633 126.751 C 235.825 126.257,236.800 125.706,236.800 125.526 C 236.800 125.089,236.001 125.157,234.900 125.688 M167.969 130.300 C 167.953 130.465,167.877 130.925,167.802 131.322 C 167.691 131.905,167.774 131.954,168.232 131.573 C 168.884 131.032,168.994 130.000,168.400 130.000 C 168.180 130.000,167.986 130.135,167.969 130.300 M388.138 131.387 C 388.392 131.930,388.662 132.194,388.738 131.974 C 388.934 131.405,388.495 130.400,388.050 130.400 C 387.841 130.400,387.879 130.835,388.138 131.387 M388.987 133.900 C 389.138 134.505,389.508 135.540,389.809 136.200 C 390.110 136.860,390.756 138.840,391.244 140.600 C 391.732 142.360,392.304 143.980,392.514 144.200 C 393.063 144.773,392.465 141.686,391.766 140.334 C 391.455 139.732,391.200 138.868,391.200 138.414 C 391.200 137.961,390.992 137.187,390.738 136.695 C 389.742 134.769,389.600 134.383,389.600 133.605 C 389.600 133.162,389.400 132.800,389.157 132.800 C 388.873 132.800,388.812 133.197,388.987 133.900 M167.297 162.297 L 167.200 187.194 143.100 187.300 L 119.000 187.406 143.113 187.503 C 162.106 187.579,167.266 187.494,167.416 187.100 C 167.521 186.825,167.559 175.530,167.501 162.000 L 167.394 137.400 167.297 162.297 M224.667 137.867 C 224.520 138.013,224.394 138.598,224.387 139.167 C 224.380 139.735,224.110 140.549,223.787 140.976 C 223.284 141.641,223.214 144.975,223.296 164.176 L 223.392 186.600 223.492 166.600 C 223.547 155.600,223.753 146.240,223.949 145.800 C 224.743 144.024,225.363 137.171,224.667 137.867 M7.073 143.060 C 6.923 143.210,6.800 143.816,6.800 144.405 C 6.800 144.995,6.505 146.068,6.145 146.790 C 5.385 148.314,4.922 151.600,5.468 151.600 C 5.673 151.600,6.072 150.475,6.356 149.101 C 6.640 147.726,7.120 145.884,7.422 145.006 C 7.927 143.541,7.724 142.409,7.073 143.060 M392.963 146.500 C 393.104 146.995,393.333 147.940,393.473 148.600 C 393.612 149.260,393.852 149.890,394.005 150.000 C 394.159 150.110,394.478 150.920,394.714 151.800 C 395.130 153.348,395.137 153.328,394.920 151.200 C 394.797 149.990,394.450 148.716,394.148 148.369 C 393.847 148.021,393.600 147.256,393.600 146.669 C 393.600 146.081,393.399 145.600,393.153 145.600 C 392.881 145.600,392.807 145.951,392.963 146.500 M4.673 152.553 C 4.523 152.945,4.400 153.617,4.400 154.047 C 4.400 154.477,4.149 155.227,3.841 155.714 C 3.199 156.731,2.521 163.357,3.155 162.419 C 3.371 162.100,3.454 161.687,3.339 161.502 C 3.225 161.316,3.342 160.911,3.600 160.600 C 3.858 160.289,3.948 159.839,3.800 159.600 C 3.652 159.361,3.703 158.948,3.913 158.682 C 4.386 158.085,5.344 153.031,5.114 152.343 C 5.004 152.013,4.853 152.084,4.673 152.553 M395.348 155.700 C 395.481 156.195,395.592 157.005,395.595 157.500 C 395.598 157.995,395.780 158.400,396.000 158.400 C 396.439 158.400,396.543 156.438,396.157 155.433 C 395.781 154.452,395.076 154.685,395.348 155.700 M396.176 159.638 C 396.023 159.886,396.084 160.205,396.313 160.346 C 396.541 160.487,396.807 161.142,396.904 161.801 C 397.048 162.778,397.091 162.690,397.140 161.324 C 397.200 159.651,396.704 158.784,396.176 159.638 M397.301 165.400 C 397.305 166.280,397.387 166.593,397.483 166.095 C 397.579 165.598,397.575 164.878,397.475 164.495 C 397.375 164.113,397.296 164.520,397.301 165.400 M1.867 164.667 C 1.471 165.062,1.543 169.200,1.946 169.200 C 2.249 169.200,2.800 166.455,2.800 164.944 C 2.800 164.367,2.311 164.222,1.867 164.667 M398.000 170.576 C 398.000 171.333,398.180 172.064,398.400 172.200 C 398.642 172.349,398.800 171.804,398.800 170.824 C 398.800 169.931,398.620 169.200,398.400 169.200 C 398.180 169.200,398.000 169.819,398.000 170.576 M1.065 169.895 C 0.765 170.380,-0.121 187.049,0.121 187.656 C 0.240 187.955,0.355 187.390,0.377 186.400 C 0.492 181.181,1.245 172.585,1.597 172.468 C 2.104 172.299,2.129 170.127,1.628 169.817 C 1.423 169.691,1.170 169.726,1.065 169.895 M399.724 185.800 C 399.726 187.120,399.801 187.612,399.890 186.893 C 399.979 186.174,399.977 185.094,399.886 184.493 C 399.795 183.892,399.722 184.480,399.724 185.800 M223.600 187.156 C 224.015 187.455,232.550 187.590,251.277 187.594 L 278.354 187.600 278.507 189.300 L 278.660 191.000 278.730 189.100 L 278.800 187.200 251.633 187.200 C 236.691 187.200,224.136 187.093,223.733 186.962 C 223.123 186.765,223.101 186.797,223.600 187.156 M277.852 192.900 C 277.477 194.301,277.558 196.000,278.000 196.000 C 278.220 196.000,278.400 195.100,278.400 194.000 C 278.400 191.831,278.230 191.490,277.852 192.900 M119.340 196.000 C 119.340 197.870,119.409 198.635,119.493 197.700 C 119.577 196.765,119.577 195.235,119.493 194.300 C 119.409 193.365,119.340 194.130,119.340 196.000 M277.092 196.642 C 276.931 196.802,276.827 198.208,276.860 199.767 C 276.893 201.325,276.989 202.060,277.074 201.400 C 277.159 200.740,277.423 199.813,277.661 199.339 C 278.118 198.428,277.628 196.105,277.092 196.642 M276.071 205.967 C 275.537 207.500,274.980 215.108,275.433 214.681 C 275.841 214.296,275.934 213.699,276.353 208.800 C 276.715 204.566,276.680 204.221,276.071 205.967 M399.709 215.200 C 399.709 216.190,399.787 216.595,399.882 216.100 C 399.978 215.605,399.978 214.795,399.882 214.300 C 399.787 213.805,399.709 214.210,399.709 215.200 M0.114 217.000 C 0.109 218.760,0.232 221.550,0.388 223.200 L 0.671 226.200 0.696 223.400 C 0.709 221.860,0.586 219.070,0.422 217.200 L 0.124 213.800 0.114 217.000 M119.137 216.201 C 119.062 217.411,119.135 218.401,119.300 218.401 C 119.465 218.400,119.600 217.410,119.600 216.200 C 119.600 213.361,119.314 213.361,119.137 216.201 M274.400 219.267 C 274.400 222.253,274.600 222.193,274.948 219.100 C 275.111 217.649,275.058 216.800,274.803 216.800 C 274.576 216.800,274.400 217.875,274.400 219.267 M273.755 222.834 C 273.504 223.153,273.220 225.759,273.105 228.800 C 272.905 234.104,272.910 234.143,273.369 231.000 C 273.626 229.240,273.973 227.509,274.141 227.152 C 274.643 226.085,274.291 222.153,273.755 222.834 M0.953 228.568 C 0.983 230.072,1.183 230.997,1.500 231.102 C 2.081 231.293,2.182 229.946,1.629 229.380 C 1.424 229.171,1.178 228.370,1.081 227.600 C 0.984 226.830,0.926 227.266,0.953 228.568 M398.272 229.507 C 398.092 229.785,397.984 230.415,398.032 230.907 C 398.080 231.398,397.980 232.123,397.810 232.517 C 397.439 233.380,397.847 233.913,398.431 233.329 C 398.661 233.099,398.793 232.031,398.724 230.956 C 398.648 229.757,398.473 229.196,398.272 229.507 M1.600 234.576 C 1.600 236.516,2.082 237.651,2.660 237.074 C 2.995 236.738,2.340 232.400,1.954 232.400 C 1.759 232.400,1.600 233.379,1.600 234.576 M119.198 237.701 L 119.000 242.402 143.100 242.401 L 167.200 242.400 167.200 320.229 L 167.200 398.058 164.903 397.771 C 162.773 397.504,162.646 397.533,163.168 398.161 C 163.579 398.657,164.222 398.807,165.565 398.719 L 167.400 398.600 167.501 320.421 C 167.557 277.083,167.449 242.089,167.258 241.898 C 167.068 241.708,156.274 241.568,143.270 241.587 L 119.627 241.621 119.512 237.311 L 119.396 233.000 119.198 237.701 M397.172 236.100 C 397.095 238.565,396.685 241.024,396.313 241.253 C 396.085 241.395,396.035 241.734,396.204 242.007 C 396.741 242.875,397.250 241.359,397.490 238.177 C 397.614 236.540,397.599 235.200,397.458 235.200 C 397.316 235.200,397.187 235.605,397.172 236.100 M271.775 238.230 C 271.598 239.405,271.661 240.221,271.950 240.510 C 272.283 240.843,272.401 240.602,272.405 239.580 C 272.408 238.821,272.519 237.795,272.652 237.300 C 272.791 236.783,272.714 236.400,272.471 236.400 C 272.239 236.400,271.926 237.224,271.775 238.230 M3.006 241.800 C 3.164 243.560,3.542 245.284,3.846 245.631 C 4.151 245.979,4.400 246.733,4.400 247.308 C 4.400 247.883,4.599 248.476,4.843 248.626 C 5.145 248.813,5.213 248.535,5.056 247.750 C 4.930 247.118,4.705 245.880,4.556 245.000 C 4.407 244.120,4.135 243.302,3.953 243.183 C 3.771 243.064,3.550 242.112,3.463 241.069 C 3.377 240.026,3.174 239.043,3.013 238.886 C 2.852 238.729,2.849 240.040,3.006 241.800 M247.533 241.594 C 234.406 241.707,223.564 241.903,223.438 242.028 C 223.313 242.154,223.163 277.770,223.105 321.176 L 223.000 400.095 227.203 399.921 C 231.128 399.760,234.610 398.920,232.000 398.765 C 231.450 398.732,230.820 398.747,230.600 398.798 C 227.811 399.444,224.088 399.180,223.857 398.321 C 223.720 397.814,223.609 362.525,223.608 319.900 L 223.608 242.400 247.804 242.400 C 269.045 242.400,272.000 242.327,272.000 241.800 C 272.000 241.470,271.865 241.242,271.700 241.294 C 271.535 241.345,260.660 241.480,247.533 241.594 M395.600 243.726 C 395.600 244.042,395.497 244.907,395.371 245.650 C 395.155 246.928,395.176 246.958,395.771 246.224 C 396.479 245.350,396.606 243.775,396.000 243.400 C 395.780 243.264,395.600 243.411,395.600 243.726 M5.200 250.896 C 5.200 251.477,5.372 252.059,5.583 252.189 C 5.793 252.319,5.870 252.674,5.754 252.977 C 5.637 253.280,5.825 254.075,6.171 254.744 C 6.517 255.413,6.800 256.524,6.800 257.213 C 6.800 258.047,6.967 258.405,7.300 258.283 C 7.575 258.183,7.731 257.853,7.647 257.550 C 7.564 257.248,7.133 255.560,6.692 253.800 C 5.834 250.381,5.200 249.148,5.200 250.896 M394.454 250.439 C 394.425 250.790,394.151 251.600,393.848 252.239 C 393.097 253.816,392.727 256.000,393.210 256.000 C 393.425 256.000,393.600 255.454,393.600 254.786 C 393.600 254.118,393.884 253.139,394.231 252.609 C 394.578 252.080,394.782 251.231,394.685 250.723 C 394.588 250.215,394.484 250.087,394.454 250.439 M392.011 258.171 C 391.785 258.765,391.597 259.465,391.594 259.726 C 391.591 259.987,391.329 260.920,391.012 261.800 C 390.320 263.720,390.265 264.400,390.800 264.400 C 391.020 264.400,391.200 263.871,391.200 263.224 C 391.200 262.577,391.362 261.947,391.560 261.825 C 392.017 261.542,392.969 257.635,392.656 257.323 C 392.528 257.194,392.237 257.576,392.011 258.171 M7.784 260.100 C 7.936 260.595,8.187 261.527,8.341 262.170 C 8.495 262.814,8.820 263.407,9.063 263.488 C 9.349 263.583,9.274 262.850,8.853 261.418 C 8.494 260.199,8.044 259.201,7.853 259.201 C 7.663 259.200,7.631 259.605,7.784 260.100 M9.200 264.776 C 9.200 265.509,9.868 266.266,10.211 265.923 C 10.485 265.648,9.922 264.000,9.553 264.000 C 9.359 264.000,9.200 264.349,9.200 264.776 M389.591 265.900 C 389.585 266.285,389.155 267.635,388.635 268.900 C 388.115 270.165,387.855 271.200,388.057 271.200 C 388.260 271.200,388.523 270.885,388.642 270.500 C 388.761 270.115,389.025 269.487,389.229 269.105 C 389.433 268.723,389.600 268.059,389.600 267.629 C 389.600 267.199,389.780 266.736,390.000 266.600 C 390.220 266.464,390.400 266.093,390.400 265.776 C 390.400 265.459,390.220 265.200,390.000 265.200 C 389.780 265.200,389.596 265.515,389.591 265.900 M10.631 268.200 C 10.870 269.854,11.391 270.743,11.850 270.283 C 11.995 270.138,11.933 269.790,11.711 269.510 C 11.489 269.229,11.103 268.460,10.853 267.800 C 10.415 266.644,10.407 266.659,10.631 268.200 M11.600 271.167 C 11.600 271.814,12.076 272.800,12.387 272.800 C 12.553 272.800,12.603 272.350,12.498 271.800 C 12.319 270.865,11.600 270.358,11.600 271.167 M387.229 272.400 C 387.210 272.730,386.907 273.540,386.554 274.200 C 385.592 276.000,385.150 277.683,385.685 277.505 C 385.930 277.423,386.182 277.096,386.245 276.778 C 386.308 276.460,386.646 275.412,386.996 274.448 C 387.346 273.484,387.549 272.494,387.448 272.248 C 387.346 272.002,387.248 272.070,387.229 272.400 M12.946 274.550 C 13.067 275.402,13.443 276.406,13.783 276.781 C 14.122 277.156,14.400 277.764,14.400 278.131 C 14.400 278.499,14.571 278.800,14.779 278.800 C 15.231 278.800,14.660 276.895,13.520 274.600 L 12.725 273.000 12.946 274.550 M384.610 279.170 C 384.465 279.626,384.178 280.000,383.973 280.000 C 383.768 280.000,383.600 280.382,383.600 280.849 C 383.600 282.000,384.618 281.179,384.980 279.736 C 385.294 278.485,384.980 278.004,384.610 279.170 M15.213 280.100 C 15.219 280.375,15.759 281.675,16.413 282.990 C 17.066 284.304,17.604 285.564,17.609 285.790 C 17.614 286.015,17.970 286.650,18.400 287.200 C 18.830 287.750,19.186 288.605,19.191 289.100 C 19.196 289.595,19.386 290.000,19.613 290.000 C 19.839 290.000,20.136 290.315,20.272 290.700 C 20.710 291.946,22.011 294.560,23.008 296.200 C 23.543 297.080,24.096 298.115,24.237 298.500 C 24.378 298.885,24.655 299.200,24.852 299.200 C 25.251 299.200,24.246 296.575,23.479 295.615 C 23.209 295.277,21.936 292.840,20.649 290.200 C 19.363 287.560,17.904 284.590,17.408 283.600 C 16.912 282.610,16.388 281.305,16.245 280.700 C 15.986 279.607,15.189 279.143,15.213 280.100 M382.998 282.724 C 382.371 283.887,381.747 285.254,380.955 287.200 C 380.552 288.190,380.117 289.090,379.988 289.200 C 379.860 289.310,379.510 290.030,379.211 290.800 C 378.913 291.570,378.430 292.482,378.139 292.826 C 377.848 293.170,377.410 294.025,377.166 294.726 C 376.922 295.427,376.579 296.000,376.404 296.000 C 376.230 296.000,375.781 296.764,375.407 297.699 C 375.033 298.633,374.585 299.488,374.411 299.599 C 374.237 299.709,373.758 300.451,373.347 301.246 C 372.936 302.042,372.102 303.617,371.493 304.746 C 370.885 305.876,370.541 306.800,370.729 306.800 C 370.917 306.800,371.274 306.395,371.522 305.900 C 371.770 305.405,372.522 304.100,373.192 303.000 C 373.862 301.900,374.706 300.325,375.066 299.500 C 375.426 298.675,375.885 298.000,376.084 298.000 C 376.284 298.000,376.348 297.839,376.226 297.642 C 376.104 297.445,376.248 297.190,376.545 297.076 C 376.843 296.962,377.199 296.305,377.337 295.616 C 377.475 294.927,378.040 293.769,378.594 293.044 C 379.147 292.318,379.604 291.471,379.609 291.162 C 379.614 290.853,379.970 290.150,380.400 289.600 C 380.830 289.050,381.186 288.307,381.191 287.949 C 381.196 287.591,381.458 287.083,381.774 286.821 C 382.090 286.559,382.471 285.772,382.620 285.072 C 382.770 284.373,383.069 283.581,383.284 283.313 C 383.499 283.046,383.613 282.638,383.536 282.407 C 383.459 282.176,383.217 282.318,382.998 282.724 M25.200 300.007 C 25.200 300.231,25.875 301.538,26.700 302.912 C 27.525 304.286,28.455 305.903,28.768 306.505 C 29.080 307.107,29.569 307.600,29.856 307.600 C 30.319 307.600,29.327 305.707,28.060 304.175 C 27.867 303.941,27.280 302.816,26.757 301.675 C 25.876 299.755,25.200 299.031,25.200 300.007 M368.982 308.582 C 368.621 309.341,368.073 310.174,367.763 310.431 C 367.453 310.688,367.200 311.115,367.200 311.379 C 367.200 311.644,366.750 312.283,366.200 312.800 C 365.650 313.317,365.200 313.944,365.200 314.194 C 365.200 314.444,364.885 314.998,364.500 315.425 C 363.357 316.690,360.653 320.786,360.838 320.971 C 360.990 321.123,362.720 318.907,364.400 316.410 C 364.730 315.920,365.492 314.952,366.094 314.259 C 366.695 313.567,367.190 312.830,367.194 312.622 C 367.200 312.215,369.072 309.346,369.904 308.468 C 370.338 308.009,370.269 307.200,369.795 307.200 C 369.708 307.200,369.343 307.822,368.982 308.582 M30.614 308.800 C 30.761 309.350,31.178 310.033,31.540 310.317 C 31.903 310.602,32.177 310.962,32.150 311.117 C 32.085 311.478,34.447 314.956,34.877 315.133 C 35.055 315.207,35.200 315.610,35.200 316.030 C 35.200 316.450,35.560 317.018,36.000 317.293 C 36.440 317.568,36.800 318.010,36.800 318.276 C 36.800 318.542,37.044 318.904,37.342 319.080 C 37.640 319.256,38.335 320.120,38.887 321.000 C 40.078 322.901,42.051 325.200,42.491 325.200 C 42.663 325.200,41.408 323.351,39.702 321.090 C 37.996 318.830,36.420 316.693,36.200 316.343 C 35.643 315.455,31.072 308.738,30.674 308.222 C 30.494 307.990,30.468 308.250,30.614 308.800 M359.663 321.882 C 357.791 325.380,337.599 347.549,336.218 347.622 C 335.712 347.649,333.828 349.962,334.096 350.229 C 334.200 350.333,335.818 348.929,337.692 347.109 C 339.567 345.289,341.528 343.424,342.050 342.965 C 342.573 342.506,344.260 340.733,345.800 339.024 C 347.340 337.316,349.143 335.351,349.807 334.659 C 350.965 333.452,355.367 328.380,356.200 327.294 C 356.420 327.007,356.780 326.553,357.000 326.286 C 359.614 323.105,360.437 321.910,360.298 321.495 C 360.198 321.194,359.951 321.345,359.663 321.882 M42.812 325.900 C 42.805 326.175,43.160 326.760,43.600 327.200 C 44.040 327.640,44.400 328.097,44.400 328.216 C 44.400 328.335,44.855 328.920,45.410 329.516 C 45.966 330.112,47.541 331.837,48.910 333.349 C 50.280 334.861,53.155 337.886,55.300 340.071 C 57.445 342.257,59.200 344.209,59.200 344.408 C 59.200 344.608,59.546 344.957,59.969 345.183 C 60.392 345.410,60.977 345.822,61.269 346.099 C 65.027 349.668,68.910 353.198,69.959 354.000 C 70.679 354.550,71.917 355.585,72.712 356.300 C 73.506 357.015,74.391 357.600,74.678 357.600 C 74.965 357.600,75.200 357.796,75.200 358.036 C 75.200 358.545,76.812 359.967,77.411 359.987 C 77.637 359.994,78.106 360.315,78.454 360.700 C 79.588 361.957,80.871 362.863,81.137 362.596 C 81.281 362.452,81.039 362.078,80.599 361.764 C 78.588 360.330,70.334 353.668,67.635 351.299 C 62.584 346.869,46.800 330.765,46.800 330.043 C 46.800 329.925,46.447 329.462,46.015 329.014 C 45.583 328.566,44.688 327.570,44.026 326.800 C 43.365 326.030,42.818 325.625,42.812 325.900 M329.403 353.891 C 328.410 354.540,328.010 355.003,328.347 355.116 C 328.645 355.215,329.450 354.735,330.137 354.048 C 331.638 352.547,331.503 352.518,329.403 353.891 M324.751 357.593 C 323.348 358.689,321.930 359.832,321.600 360.134 C 321.270 360.435,320.505 361.000,319.900 361.387 C 319.295 361.775,318.800 362.268,318.800 362.483 C 318.800 362.697,320.015 361.920,321.500 360.755 C 322.985 359.590,324.380 358.501,324.600 358.336 C 325.810 357.426,327.765 355.622,327.551 355.612 C 327.414 355.605,326.154 356.497,324.751 357.593 M81.600 363.167 C 81.600 363.405,81.780 363.600,82.000 363.600 C 82.220 363.600,82.760 363.960,83.200 364.400 C 83.640 364.840,84.270 365.200,84.600 365.200 C 84.930 365.200,85.200 365.380,85.200 365.600 C 85.200 365.820,85.470 366.000,85.800 366.000 C 86.130 366.000,86.400 366.162,86.400 366.360 C 86.400 366.661,88.249 367.983,89.800 368.792 C 90.567 369.191,92.601 370.583,92.800 370.844 C 93.003 371.111,95.335 372.487,97.258 373.474 C 97.840 373.772,98.537 374.283,98.807 374.608 C 99.337 375.247,100.999 375.445,100.615 374.824 C 100.487 374.616,99.531 374.031,98.491 373.524 C 97.451 373.016,96.539 372.461,96.463 372.290 C 96.388 372.120,95.758 371.734,95.063 371.433 C 94.369 371.132,93.440 370.591,93.000 370.232 C 92.560 369.872,91.210 368.961,90.000 368.206 C 88.790 367.452,87.620 366.686,87.400 366.504 C 87.180 366.323,86.325 365.761,85.500 365.255 C 84.675 364.749,84.000 364.190,84.000 364.014 C 84.000 363.838,83.685 363.582,83.300 363.446 C 82.915 363.311,82.375 363.095,82.100 362.966 C 81.825 362.838,81.600 362.928,81.600 363.167 M316.000 363.934 C 316.000 364.117,315.005 364.952,313.789 365.790 C 312.574 366.627,311.658 367.391,311.755 367.488 C 312.027 367.761,313.600 366.821,313.600 366.386 C 313.600 366.174,313.825 366.000,314.100 366.000 C 314.634 365.999,316.800 364.277,316.800 363.853 C 316.800 363.714,316.620 363.600,316.400 363.600 C 316.180 363.600,316.000 363.750,316.000 363.934 M309.594 368.605 C 308.852 369.152,307.999 369.600,307.699 369.600 C 307.398 369.600,307.268 369.786,307.408 370.013 C 307.637 370.383,309.820 369.360,310.973 368.343 C 311.923 367.505,310.793 367.720,309.594 368.605 M305.300 371.249 C 304.365 371.679,303.600 372.190,303.600 372.384 C 303.600 372.579,302.970 372.946,302.200 373.200 C 301.430 373.454,300.800 373.816,300.800 374.004 C 300.800 374.192,300.426 374.465,299.970 374.610 C 299.513 374.754,299.245 374.979,299.375 375.108 C 299.504 375.237,300.140 374.951,300.789 374.472 C 301.437 373.992,302.146 373.600,302.364 373.600 C 302.731 373.600,306.117 371.499,306.980 370.736 C 307.503 370.273,307.262 370.347,305.300 371.249 M101.291 375.673 C 101.378 375.934,102.158 376.488,103.024 376.905 C 103.891 377.321,104.870 377.818,105.200 378.008 C 108.119 379.691,116.217 383.600,116.784 383.600 C 117.179 383.600,117.717 383.858,117.979 384.174 C 118.241 384.490,119.022 384.873,119.715 385.025 C 120.993 385.306,122.115 385.831,123.200 386.656 C 123.530 386.908,124.610 387.220,125.600 387.351 C 126.590 387.483,127.130 387.482,126.800 387.349 C 126.470 387.217,125.480 386.792,124.600 386.405 C 120.733 384.706,119.939 384.400,119.386 384.400 C 119.064 384.400,118.800 384.220,118.800 384.000 C 118.800 383.780,118.597 383.600,118.349 383.600 C 118.102 383.600,116.887 383.087,115.649 382.461 C 114.412 381.834,112.725 381.100,111.900 380.830 C 111.075 380.559,110.400 380.208,110.400 380.049 C 110.400 379.891,109.725 379.522,108.900 379.231 C 108.075 378.940,107.130 378.482,106.800 378.213 C 104.832 376.610,101.017 374.851,101.291 375.673 M298.050 375.482 C 297.424 375.730,295.875 377.200,296.238 377.200 C 296.706 377.200,298.800 375.822,298.800 375.514 C 298.800 375.341,298.755 375.214,298.700 375.232 C 298.645 375.249,298.353 375.361,298.050 375.482 M293.200 378.200 C 292.795 378.688,292.815 378.800,293.308 378.800 C 293.642 378.800,294.018 378.530,294.145 378.200 C 294.271 377.870,294.223 377.600,294.036 377.600 C 293.850 377.600,293.474 377.870,293.200 378.200 M286.531 381.421 C 285.832 381.727,285.147 382.162,285.007 382.389 C 284.657 382.954,284.736 382.931,286.968 381.798 C 289.036 380.749,288.709 380.467,286.531 381.421 M280.200 384.427 C 279.464 384.899,279.247 385.197,279.639 385.198 C 279.990 385.199,280.693 384.840,281.200 384.400 C 282.358 383.395,281.786 383.411,280.200 384.427 M276.500 385.859 C 275.785 386.212,275.200 386.661,275.200 386.858 C 275.200 387.055,275.920 386.849,276.800 386.400 C 278.302 385.634,278.788 385.188,278.100 385.209 C 277.935 385.214,277.215 385.507,276.500 385.859 M127.666 387.998 C 127.762 388.287,128.764 388.813,129.891 389.166 C 131.019 389.519,132.074 389.941,132.237 390.104 C 132.400 390.267,132.863 390.400,133.267 390.400 C 134.722 390.400,133.951 389.773,131.500 388.964 C 130.125 388.511,128.660 387.989,128.245 387.806 C 127.698 387.564,127.539 387.617,127.666 387.998 M271.200 388.017 C 270.870 388.220,269.970 388.661,269.200 388.997 C 268.366 389.361,268.204 389.513,268.800 389.372 C 269.350 389.242,270.247 389.031,270.793 388.903 C 271.951 388.633,273.208 387.584,272.329 387.624 C 272.038 387.636,271.530 387.813,271.200 388.017 M134.533 390.667 C 134.970 391.104,140.072 392.800,140.949 392.800 C 142.361 392.800,141.136 392.115,138.157 391.237 C 135.248 390.381,134.060 390.194,134.533 390.667 M262.245 391.212 C 260.362 391.803,258.377 392.838,259.220 392.790 C 259.711 392.762,264.827 390.906,265.062 390.671 C 265.459 390.274,264.877 390.386,262.245 391.212 M142.600 393.200 C 142.736 393.420,143.299 393.600,143.852 393.600 C 144.405 393.600,145.119 393.862,145.438 394.181 C 145.758 394.501,147.092 394.884,148.403 395.032 C 149.714 395.180,150.992 395.549,151.242 395.851 C 151.493 396.153,152.180 396.400,152.769 396.400 C 153.358 396.400,154.011 396.564,154.220 396.763 C 154.429 396.963,156.400 397.225,158.600 397.344 C 161.032 397.476,162.130 397.430,161.400 397.228 C 160.740 397.045,159.435 396.873,158.500 396.847 C 157.565 396.821,156.800 396.649,156.800 396.464 C 156.800 396.279,155.495 395.898,153.900 395.616 C 152.305 395.335,150.730 394.964,150.400 394.792 C 150.070 394.620,149.260 394.386,148.600 394.271 C 147.940 394.157,146.500 393.781,145.400 393.436 C 143.078 392.708,142.253 392.638,142.600 393.200 M255.800 393.200 L 254.600 393.505 255.876 393.553 C 256.578 393.579,257.264 393.420,257.400 393.200 C 257.674 392.757,257.540 392.757,255.800 393.200 M250.800 394.800 C 250.008 395.054,249.967 395.120,250.600 395.120 C 251.040 395.120,251.850 394.976,252.400 394.800 C 253.192 394.546,253.233 394.480,252.600 394.480 C 252.160 394.480,251.350 394.624,250.800 394.800 M246.200 395.556 C 245.396 395.731,245.166 395.922,245.504 396.134 C 246.100 396.510,247.600 396.108,247.600 395.573 C 247.600 395.368,247.555 395.221,247.500 395.247 C 247.445 395.273,246.860 395.412,246.200 395.556 M243.600 396.341 C 243.600 396.566,243.015 396.828,242.300 396.925 C 241.432 397.042,241.598 397.083,242.800 397.050 C 243.790 397.022,244.569 396.825,244.530 396.610 C 244.434 396.075,243.600 395.834,243.600 396.341 M238.305 397.483 C 238.802 397.579,239.522 397.575,239.905 397.475 C 240.287 397.375,239.880 397.296,239.000 397.301 C 238.120 397.305,237.807 397.387,238.305 397.483 M234.600 397.885 C 233.082 398.250,233.004 398.800,234.471 398.800 C 235.258 398.800,236.126 398.530,236.400 398.200 C 236.933 397.558,236.369 397.460,234.600 397.885 " stroke="none" fill="#acacac" fill-rule="evenodd"></path><path id="path2" d="M179.305 1.487 C 179.914 1.579,180.814 1.577,181.305 1.482 C 181.797 1.387,181.300 1.311,180.200 1.314 C 179.100 1.317,178.697 1.395,179.305 1.487 M218.900 1.487 C 219.505 1.578,220.495 1.578,221.100 1.487 C 221.705 1.395,221.210 1.320,220.000 1.320 C 218.790 1.320,218.295 1.395,218.900 1.487 M154.600 5.600 C 153.829 5.931,153.831 5.945,154.676 5.972 C 155.158 5.987,155.664 5.820,155.800 5.600 C 156.092 5.127,155.701 5.127,154.600 5.600 M144.800 8.000 C 144.800 8.220,145.070 8.400,145.400 8.400 C 145.730 8.400,146.000 8.220,146.000 8.000 C 146.000 7.780,145.730 7.600,145.400 7.600 C 145.070 7.600,144.800 7.780,144.800 8.000 M253.739 8.054 C 254.268 8.361,254.602 8.358,254.919 8.041 C 255.240 7.720,255.041 7.603,254.180 7.612 C 253.146 7.623,253.091 7.677,253.739 8.054 M234.500 71.894 C 235.545 71.976,237.255 71.976,238.300 71.894 C 239.345 71.812,238.490 71.744,236.400 71.744 C 234.310 71.744,233.455 71.812,234.500 71.894 M248.000 71.920 C 248.000 72.096,248.675 72.172,249.500 72.091 C 251.822 71.861,251.991 71.666,249.900 71.632 C 248.855 71.614,248.000 71.744,248.000 71.920 M227.862 72.300 C 227.760 72.465,228.559 72.600,229.638 72.600 C 230.717 72.600,231.600 72.465,231.600 72.300 C 231.600 72.135,230.801 72.000,229.824 72.000 C 228.847 72.000,227.964 72.135,227.862 72.300 M253.400 72.262 C 257.235 72.555,261.511 72.576,261.340 72.300 C 261.237 72.135,259.048 72.031,256.476 72.070 C 253.904 72.108,252.520 72.195,253.400 72.262 M245.452 123.516 C 245.344 123.690,245.918 123.770,246.728 123.693 C 249.202 123.459,249.493 123.295,247.524 123.246 C 246.492 123.221,245.559 123.342,245.452 123.516 M168.154 128.177 C 168.032 128.494,168.003 129.079,168.089 129.477 C 168.187 129.928,168.324 129.712,168.454 128.900 C 168.671 127.538,168.530 127.196,168.154 128.177 M166.983 154.600 C 166.983 164.060,167.036 167.873,167.100 163.073 C 167.164 158.273,167.163 150.533,167.099 145.873 C 167.036 141.213,166.983 145.140,166.983 154.600 M224.509 143.600 C 224.509 144.590,224.587 144.995,224.682 144.500 C 224.778 144.005,224.778 143.195,224.682 142.700 C 224.587 142.205,224.509 142.610,224.509 143.600 M1.354 172.977 C 1.232 173.294,1.203 173.879,1.289 174.277 C 1.387 174.728,1.524 174.512,1.654 173.700 C 1.871 172.338,1.730 171.996,1.354 172.977 M166.940 183.200 C 166.940 185.070,167.009 185.835,167.093 184.900 C 167.177 183.965,167.177 182.435,167.093 181.500 C 167.009 180.565,166.940 181.330,166.940 183.200 M121.700 187.097 C 123.185 187.174,125.615 187.174,127.100 187.097 C 128.585 187.020,127.370 186.957,124.400 186.957 C 121.430 186.957,120.215 187.020,121.700 187.097 M140.900 187.098 C 143.045 187.170,146.555 187.170,148.700 187.098 C 150.845 187.026,149.090 186.967,144.800 186.967 C 140.510 186.967,138.755 187.026,140.900 187.098 M161.312 187.095 C 162.364 187.177,163.984 187.176,164.912 187.092 C 165.840 187.008,164.980 186.941,163.000 186.942 C 161.020 186.943,160.260 187.012,161.312 187.095 M225.491 187.089 C 226.201 187.177,227.461 187.179,228.291 187.092 C 229.121 187.005,228.540 186.933,227.000 186.931 C 225.460 186.929,224.781 187.000,225.491 187.089 M242.117 187.097 C 243.611 187.174,245.951 187.174,247.317 187.096 C 248.682 187.018,247.460 186.955,244.600 186.955 C 241.740 186.956,240.622 187.020,242.117 187.097 M251.105 187.083 C 251.602 187.179,252.322 187.175,252.705 187.075 C 253.087 186.975,252.680 186.896,251.800 186.901 C 250.920 186.905,250.607 186.987,251.105 187.083 M261.700 187.097 C 263.185 187.174,265.615 187.174,267.100 187.097 C 268.585 187.020,267.370 186.957,264.400 186.957 C 261.430 186.957,260.215 187.020,261.700 187.097 M276.500 187.076 C 276.885 187.176,277.515 187.176,277.900 187.076 C 278.285 186.975,277.970 186.893,277.200 186.893 C 276.430 186.893,276.115 186.975,276.500 187.076 M277.301 201.000 C 277.305 201.880,277.387 202.193,277.483 201.695 C 277.579 201.198,277.575 200.478,277.475 200.095 C 277.375 199.713,277.296 200.120,277.301 201.000 M276.901 204.200 C 276.905 205.080,276.987 205.393,277.083 204.895 C 277.179 204.398,277.175 203.678,277.075 203.295 C 276.975 202.913,276.896 203.320,276.901 204.200 M274.901 220.200 C 274.905 221.080,274.987 221.393,275.083 220.895 C 275.179 220.398,275.175 219.678,275.075 219.295 C 274.975 218.913,274.896 219.320,274.901 220.200 M1.293 228.000 C 1.293 228.770,1.375 229.085,1.476 228.700 C 1.576 228.315,1.576 227.685,1.476 227.300 C 1.375 226.915,1.293 227.230,1.293 228.000 M273.190 232.881 C 273.084 233.916,273.145 234.615,273.326 234.434 C 273.507 234.253,273.593 233.407,273.519 232.553 L 273.383 231.000 273.190 232.881 M166.946 246.600 C 166.947 248.800,167.014 249.649,167.095 248.487 C 167.176 247.324,167.176 245.524,167.093 244.487 C 167.011 243.449,166.945 244.400,166.946 246.600 M166.955 265.400 C 166.956 268.260,167.020 269.378,167.097 267.883 C 167.174 266.389,167.174 264.049,167.096 262.683 C 167.018 261.318,166.955 262.540,166.955 265.400 M166.955 285.400 C 166.956 288.260,167.020 289.378,167.097 287.883 C 167.174 286.389,167.174 284.049,167.096 282.683 C 167.018 281.318,166.955 282.540,166.955 285.400 M166.955 305.400 C 166.956 308.260,167.020 309.378,167.097 307.883 C 167.174 306.389,167.174 304.049,167.096 302.683 C 167.018 301.318,166.955 302.540,166.955 305.400 M166.955 325.400 C 166.956 328.260,167.020 329.378,167.097 327.883 C 167.174 326.389,167.174 324.049,167.096 322.683 C 167.018 321.318,166.955 322.540,166.955 325.400 M166.957 345.600 C 166.957 348.570,167.020 349.785,167.097 348.300 C 167.174 346.815,167.174 344.385,167.097 342.900 C 167.020 341.415,166.957 342.630,166.957 345.600 M166.954 366.000 C 166.954 368.750,167.018 369.875,167.096 368.500 C 167.174 367.125,167.174 364.875,167.096 363.500 C 167.018 362.125,166.954 363.250,166.954 366.000 M166.954 386.000 C 166.954 388.750,167.018 389.875,167.096 388.500 C 167.174 387.125,167.174 384.875,167.096 383.500 C 167.018 382.125,166.954 383.250,166.954 386.000 M141.600 392.084 C 141.710 392.193,142.426 392.493,143.191 392.751 C 143.956 393.010,144.406 393.050,144.191 392.839 C 143.976 392.629,143.260 392.329,142.600 392.172 C 141.940 392.016,141.490 391.976,141.600 392.084 M157.166 396.526 C 157.347 396.707,158.193 396.793,159.047 396.719 L 160.600 396.583 158.719 396.390 C 157.684 396.284,156.985 396.345,157.166 396.526 M224.900 399.076 C 225.285 399.176,225.915 399.176,226.300 399.076 C 226.685 398.975,226.370 398.893,225.600 398.893 C 224.830 398.893,224.515 398.975,224.900 399.076 " stroke="none" fill="#505050" fill-rule="evenodd"></path><path id="path3" d="M176.200 2.000 C 174.308 2.260,174.286 2.275,175.800 2.294 C 176.680 2.304,178.480 2.179,179.800 2.015 L 182.200 1.718 180.200 1.722 C 179.100 1.724,177.300 1.849,176.200 2.000 M218.900 1.887 C 219.505 1.978,220.495 1.978,221.100 1.887 C 221.705 1.795,221.210 1.720,220.000 1.720 C 218.790 1.720,218.295 1.795,218.900 1.887 M222.900 2.276 C 223.285 2.376,223.915 2.376,224.300 2.276 C 224.685 2.175,224.370 2.093,223.600 2.093 C 222.830 2.093,222.515 2.175,222.900 2.276 M171.452 2.716 C 171.344 2.890,171.873 2.961,172.628 2.873 C 173.383 2.785,174.000 2.642,174.000 2.556 C 174.000 2.255,171.645 2.403,171.452 2.716 M226.033 2.543 C 226.125 2.622,226.920 2.797,227.800 2.932 C 228.890 3.099,229.209 3.055,228.800 2.795 C 228.253 2.446,225.645 2.209,226.033 2.543 M167.400 3.200 C 166.322 3.474,166.302 3.506,167.200 3.513 C 167.750 3.517,168.650 3.376,169.200 3.200 C 170.544 2.769,169.092 2.769,167.400 3.200 M231.200 3.194 C 231.530 3.411,232.235 3.591,232.767 3.594 C 234.051 3.602,233.725 3.375,232.000 3.058 C 231.015 2.877,230.778 2.918,231.200 3.194 M158.064 4.873 C 157.109 5.087,156.405 5.338,156.499 5.432 C 156.592 5.526,157.824 5.350,159.235 5.041 C 160.646 4.733,161.350 4.482,160.800 4.483 C 160.250 4.484,159.019 4.660,158.064 4.873 M241.600 5.200 C 242.968 5.638,244.019 5.638,243.000 5.200 C 242.560 5.011,241.840 4.862,241.400 4.868 C 240.757 4.877,240.796 4.943,241.600 5.200 M146.800 7.600 C 145.996 7.857,145.957 7.923,146.600 7.932 C 147.040 7.938,147.760 7.789,148.200 7.600 C 149.219 7.162,148.168 7.162,146.800 7.600 M250.833 7.344 C 250.925 7.423,251.540 7.608,252.200 7.756 C 253.076 7.952,253.238 7.915,252.800 7.618 C 252.260 7.253,250.432 6.998,250.833 7.344 M141.400 9.200 C 141.108 9.673,141.499 9.673,142.600 9.200 C 143.371 8.869,143.369 8.855,142.524 8.828 C 142.042 8.813,141.536 8.980,141.400 9.200 M275.199 15.351 C 275.749 15.672,276.274 15.859,276.366 15.767 C 276.614 15.519,276.314 15.330,275.200 15.033 L 274.200 14.767 275.199 15.351 M100.300 27.029 C 98.805 27.840,98.896 28.178,100.400 27.400 C 101.060 27.059,101.600 26.694,101.600 26.590 C 101.600 26.332,101.557 26.347,100.300 27.029 M314.400 36.546 C 314.400 36.656,314.940 37.130,315.600 37.600 C 316.260 38.070,316.800 38.364,316.800 38.254 C 316.800 38.144,316.260 37.670,315.600 37.200 C 314.940 36.730,314.400 36.436,314.400 36.546 M79.600 40.849 C 78.206 42.071,78.205 42.072,79.488 41.219 C 80.196 40.748,80.882 40.191,81.012 39.981 C 81.397 39.357,81.077 39.554,79.600 40.849 M318.944 39.909 C 319.260 40.421,321.600 42.153,321.600 41.875 C 321.600 41.776,320.939 41.191,320.132 40.575 C 319.324 39.959,318.789 39.659,318.944 39.909 M74.900 44.415 C 73.305 45.737,72.000 46.907,72.000 47.015 C 72.000 47.122,73.350 46.102,75.000 44.748 C 77.644 42.578,78.273 41.984,77.900 42.006 C 77.845 42.009,76.495 43.094,74.900 44.415 M322.000 42.095 C 322.000 42.201,323.845 43.792,326.100 45.632 C 328.355 47.472,331.100 49.793,332.200 50.789 C 333.300 51.784,333.840 52.172,333.400 51.649 C 332.219 50.246,322.000 41.682,322.000 42.095 M68.581 49.831 L 65.800 52.463 68.700 49.950 C 71.369 47.637,71.811 47.200,71.481 47.200 C 71.416 47.200,70.111 48.384,68.581 49.831 M61.792 56.100 L 58.200 59.800 61.900 56.208 C 65.336 52.872,65.782 52.400,65.492 52.400 C 65.432 52.400,63.767 54.065,61.792 56.100 M338.000 56.200 C 340.081 58.290,341.874 60.000,341.984 60.000 C 342.094 60.000,340.481 58.290,338.400 56.200 C 336.319 54.110,334.526 52.400,334.416 52.400 C 334.306 52.400,335.919 54.110,338.000 56.200 M54.591 63.300 L 51.400 66.600 54.700 63.409 C 57.765 60.446,58.182 60.000,57.891 60.000 C 57.830 60.000,56.345 61.485,54.591 63.300 M342.400 60.510 C 342.400 60.571,343.795 61.966,345.500 63.610 L 348.600 66.600 345.610 63.500 C 342.833 60.621,342.400 60.217,342.400 60.510 M49.781 68.500 L 48.200 70.200 49.900 68.619 C 50.835 67.749,51.600 66.984,51.600 66.919 C 51.600 66.616,51.252 66.919,49.781 68.500 M349.800 68.400 C 350.659 69.280,351.452 70.000,351.562 70.000 C 351.672 70.000,351.059 69.280,350.200 68.400 C 349.341 67.520,348.548 66.800,348.438 66.800 C 348.328 66.800,348.941 67.520,349.800 68.400 M353.600 72.800 C 354.744 74.120,355.769 75.200,355.879 75.200 C 355.989 75.200,355.144 74.120,354.000 72.800 C 352.856 71.480,351.831 70.400,351.721 70.400 C 351.611 70.400,352.456 71.480,353.600 72.800 M223.200 72.800 C 221.816 73.091,221.814 73.095,223.000 73.141 C 223.660 73.167,224.470 73.013,224.800 72.800 C 225.466 72.370,225.245 72.370,223.200 72.800 M268.833 72.953 C 268.925 73.037,271.160 73.200,273.800 73.315 C 277.153 73.460,277.816 73.429,276.000 73.209 C 273.196 72.869,268.561 72.703,268.833 72.953 M217.007 74.053 C 216.131 74.258,215.263 74.577,215.078 74.762 C 214.893 74.947,215.682 74.854,216.831 74.556 C 220.030 73.726,220.175 73.312,217.007 74.053 M281.106 98.629 L 281.212 123.618 265.226 123.509 C 256.433 123.449,249.377 123.537,249.544 123.705 C 249.712 123.872,256.948 123.962,265.625 123.905 L 281.400 123.800 281.503 99.023 C 281.560 85.396,281.470 74.110,281.303 73.943 C 281.136 73.776,281.048 84.885,281.106 98.629 M43.341 76.100 C 42.010 77.602,39.920 80.400,40.130 80.400 C 40.238 80.400,41.246 79.230,42.370 77.800 C 44.388 75.232,44.891 74.353,43.341 76.100 M356.975 76.932 C 357.591 77.739,358.176 78.400,358.275 78.400 C 358.553 78.400,356.821 76.060,356.309 75.744 C 356.059 75.589,356.359 76.124,356.975 76.932 M360.791 81.988 C 361.257 82.641,361.842 83.302,362.091 83.456 C 362.341 83.611,362.041 83.076,361.425 82.268 C 360.088 80.515,359.584 80.292,360.791 81.988 M197.097 82.366 C 195.455 83.418,195.355 83.623,196.738 83.101 C 197.420 82.843,198.068 82.400,198.177 82.116 C 198.414 81.499,198.469 81.486,197.097 82.366 M186.392 91.087 C 183.917 93.624,183.503 94.145,185.200 92.587 C 187.722 90.272,190.652 87.200,190.338 87.200 C 190.254 87.200,188.478 88.949,186.392 91.087 M177.302 102.500 C 176.736 103.215,175.940 104.800,176.146 104.800 C 176.242 104.800,176.693 104.170,177.147 103.400 C 177.973 102.001,178.049 101.557,177.302 102.500 M174.584 107.232 C 174.018 108.349,173.610 109.404,173.677 109.576 C 173.745 109.748,174.285 108.833,174.878 107.544 C 176.201 104.666,175.995 104.447,174.584 107.232 M384.432 123.624 C 384.414 123.966,384.680 124.596,385.022 125.024 C 385.634 125.788,385.638 125.787,385.276 125.000 C 385.074 124.560,384.808 123.930,384.686 123.600 C 384.493 123.082,384.459 123.085,384.432 123.624 M168.846 124.067 C 168.821 124.434,168.696 125.064,168.570 125.467 C 168.352 126.162,168.363 126.163,168.797 125.487 C 169.048 125.096,169.173 124.466,169.073 124.087 C 168.911 123.468,168.888 123.466,168.846 124.067 M244.400 124.000 L 243.000 124.295 244.276 124.347 C 244.978 124.376,245.664 124.220,245.800 124.000 C 245.936 123.780,245.992 123.624,245.924 123.653 C 245.856 123.682,245.170 123.838,244.400 124.000 M230.961 129.501 C 230.059 130.325,229.159 131.277,228.961 131.616 C 228.762 131.954,229.050 131.745,229.600 131.150 C 230.150 130.555,231.140 129.609,231.800 129.047 C 232.460 128.485,232.910 128.020,232.800 128.014 C 232.690 128.007,231.862 128.677,230.961 129.501 M166.537 144.200 C 166.539 145.960,166.609 146.630,166.693 145.689 C 166.778 144.749,166.777 143.309,166.691 142.489 C 166.605 141.670,166.536 142.440,166.537 144.200 M224.096 166.300 L 224.000 186.800 250.300 186.703 L 276.600 186.606 250.504 186.500 L 224.407 186.394 224.300 166.097 L 224.193 145.800 224.096 166.300 M393.638 151.034 C 394.239 153.335,394.432 153.612,394.169 151.800 C 394.042 150.920,393.778 150.035,393.583 149.834 C 393.388 149.633,393.412 150.173,393.638 151.034 M394.459 153.800 C 394.445 154.020,394.681 155.190,394.983 156.400 C 395.285 157.610,395.533 158.150,395.535 157.600 C 395.538 156.630,394.509 152.996,394.459 153.800 M395.867 158.667 C 395.720 158.813,395.611 159.308,395.625 159.767 C 395.649 160.533,395.682 160.523,396.034 159.642 C 396.426 158.663,396.344 158.189,395.867 158.667 M3.050 164.050 C 2.717 165.717,3.040 166.040,3.400 164.400 C 3.552 163.709,3.593 163.059,3.491 162.958 C 3.389 162.856,3.191 163.347,3.050 164.050 M166.577 174.400 C 166.577 180.890,166.632 183.545,166.699 180.300 C 166.766 177.055,166.766 171.745,166.699 168.500 C 166.632 165.255,166.577 167.910,166.577 174.400 M398.216 173.648 C 398.432 175.350,398.800 175.629,398.800 174.090 C 398.800 173.407,398.633 172.744,398.428 172.618 C 398.218 172.488,398.126 172.935,398.216 173.648 M1.418 174.618 C 1.265 175.639,1.222 176.555,1.322 176.655 C 1.422 176.755,1.629 176.002,1.782 174.982 C 1.935 173.961,1.978 173.045,1.878 172.945 C 1.778 172.845,1.571 173.598,1.418 174.618 M1.010 178.500 C 0.716 179.387,0.591 183.171,0.865 182.881 C 1.119 182.611,1.518 177.998,1.287 177.999 C 1.226 178.000,1.100 178.225,1.010 178.500 M399.309 186.400 C 399.309 187.390,399.387 187.795,399.482 187.300 C 399.578 186.805,399.578 185.995,399.482 185.500 C 399.387 185.005,399.309 185.410,399.309 186.400 M0.501 186.600 C 0.505 187.480,0.587 187.793,0.683 187.295 C 0.779 186.798,0.775 186.078,0.675 185.695 C 0.575 185.313,0.496 185.720,0.501 186.600 M125.900 186.699 C 128.375 186.769,132.425 186.769,134.900 186.699 C 137.375 186.628,135.350 186.571,130.400 186.571 C 125.450 186.571,123.425 186.628,125.900 186.699 M140.500 186.676 C 140.885 186.776,141.515 186.776,141.900 186.676 C 142.285 186.575,141.970 186.493,141.200 186.493 C 140.430 186.493,140.115 186.575,140.500 186.676 M148.700 186.699 C 152.055 186.766,157.545 186.766,160.900 186.699 C 164.255 186.632,161.510 186.578,154.800 186.578 C 148.090 186.578,145.345 186.632,148.700 186.699 M278.788 186.985 C 279.063 187.317,279.216 188.209,279.128 188.966 C 279.040 189.724,279.110 190.256,279.284 190.148 C 279.908 189.762,279.631 186.898,278.943 186.634 C 278.397 186.424,278.371 186.483,278.788 186.985 M118.540 196.000 C 118.540 197.870,118.609 198.635,118.693 197.700 C 118.777 196.765,118.777 195.235,118.693 194.300 C 118.609 193.365,118.540 194.130,118.540 196.000 M276.768 207.700 C 276.649 208.560,276.710 209.050,276.912 208.848 C 277.105 208.655,277.198 207.981,277.119 207.349 C 276.987 206.291,276.959 206.319,276.768 207.700 M0.493 215.200 C 0.493 215.970,0.575 216.285,0.676 215.900 C 0.776 215.515,0.776 214.885,0.676 214.500 C 0.575 214.115,0.493 214.430,0.493 215.200 M275.190 220.081 C 275.084 221.116,275.145 221.815,275.326 221.634 C 275.507 221.453,275.593 220.607,275.519 219.753 L 275.383 218.200 275.190 220.081 M0.880 221.896 C 1.325 226.100,1.618 226.556,1.332 222.600 C 1.205 220.840,0.977 219.263,0.826 219.096 C 0.675 218.928,0.699 220.188,0.880 221.896 M1.568 227.900 C 1.759 229.281,1.787 229.309,1.919 228.251 C 1.998 227.619,1.905 226.945,1.712 226.752 C 1.510 226.550,1.449 227.040,1.568 227.900 M398.300 226.628 C 398.135 226.796,398.000 227.479,398.000 228.147 C 398.000 229.014,398.123 229.237,398.431 228.929 C 398.668 228.692,398.803 228.008,398.731 227.410 C 398.659 226.812,398.465 226.461,398.300 226.628 M2.400 233.376 C 2.400 233.913,2.547 234.444,2.728 234.555 C 2.908 234.667,2.977 234.227,2.882 233.579 C 2.672 232.149,2.400 232.035,2.400 233.376 M118.534 236.400 C 118.534 238.050,118.605 238.725,118.691 237.900 C 118.778 237.075,118.778 235.725,118.691 234.900 C 118.605 234.075,118.534 234.750,118.534 236.400 M272.958 234.966 C 272.838 235.278,272.805 236.043,272.884 236.666 C 273.002 237.591,273.064 237.487,273.225 236.100 C 273.427 234.351,273.338 233.975,272.958 234.966 M396.854 235.467 C 396.825 235.944,396.696 236.664,396.570 237.067 C 396.352 237.761,396.364 237.762,396.796 237.088 C 397.047 236.697,397.175 235.977,397.081 235.488 C 396.909 234.601,396.909 234.601,396.854 235.467 M2.868 236.400 C 2.888 237.439,3.518 239.146,3.532 238.200 C 3.538 237.760,3.389 237.040,3.200 236.600 C 2.989 236.110,2.861 236.032,2.868 236.400 M396.200 239.200 C 396.048 239.891,396.007 240.541,396.109 240.642 C 396.211 240.744,396.409 240.253,396.550 239.550 C 396.691 238.847,396.731 238.198,396.641 238.108 C 396.550 238.017,396.352 238.509,396.200 239.200 M272.752 239.513 C 272.621 240.307,272.679 240.681,272.901 240.459 C 273.103 240.257,273.201 239.667,273.119 239.146 C 272.993 238.345,272.937 238.402,272.752 239.513 M3.687 240.000 C 3.683 240.550,3.824 241.450,4.000 242.000 C 4.431 243.344,4.431 241.892,4.000 240.200 C 3.726 239.122,3.694 239.102,3.687 240.000 M118.501 241.000 C 118.505 241.880,118.587 242.193,118.683 241.695 C 118.779 241.198,118.775 240.478,118.675 240.095 C 118.575 239.713,118.496 240.120,118.501 241.000 M395.628 241.876 C 395.613 242.358,395.780 242.864,396.000 243.000 C 396.473 243.292,396.473 242.901,396.000 241.800 C 395.669 241.029,395.655 241.031,395.628 241.876 M142.700 242.700 L 166.400 242.806 166.400 320.165 L 166.400 397.524 164.700 397.307 C 162.515 397.028,162.857 397.405,165.100 397.749 L 166.800 398.009 166.800 320.205 L 166.800 242.400 142.900 242.497 L 119.000 242.594 142.700 242.700 M224.185 242.900 C 224.080 243.175,224.041 278.410,224.098 321.200 L 224.202 399.000 224.301 320.903 L 224.400 242.806 248.500 242.700 L 272.600 242.594 248.487 242.497 C 229.494 242.421,224.335 242.506,224.185 242.900 M5.008 246.400 C 5.126 247.390,5.416 248.797,5.652 249.527 C 6.410 251.878,6.355 250.690,5.562 247.600 C 5.023 245.500,4.856 245.140,5.008 246.400 M394.099 248.679 C 393.603 250.798,393.266 252.600,393.350 252.683 C 393.574 252.908,395.304 245.709,395.140 245.233 C 395.063 245.010,394.595 246.560,394.099 248.679 M392.629 254.229 C 392.481 254.815,392.438 255.372,392.532 255.466 C 392.627 255.560,392.824 255.158,392.971 254.571 C 393.119 253.985,393.162 253.428,393.068 253.334 C 392.973 253.240,392.776 253.642,392.629 254.229 M15.106 277.818 C 15.210 278.365,15.428 278.894,15.590 278.994 C 15.752 279.094,15.799 278.729,15.694 278.182 C 15.590 277.635,15.372 277.106,15.210 277.006 C 15.048 276.906,15.001 277.271,15.106 277.818 M26.681 301.187 C 26.794 301.620,27.132 302.178,27.433 302.427 C 27.845 302.770,27.828 302.578,27.360 301.640 C 26.653 300.222,26.381 300.041,26.681 301.187 M365.123 313.500 C 364.418 314.321,363.890 315.200,364.101 315.200 C 364.183 315.200,364.649 314.660,365.137 314.000 C 366.101 312.696,366.092 312.372,365.123 313.500 M36.800 316.800 C 37.270 317.460,37.744 318.000,37.854 318.000 C 37.964 318.000,37.670 317.460,37.200 316.800 C 36.730 316.140,36.256 315.600,36.146 315.600 C 36.036 315.600,36.330 316.140,36.800 316.800 M38.975 319.732 C 39.591 320.539,40.176 321.200,40.275 321.200 C 40.553 321.200,38.821 318.860,38.309 318.544 C 38.059 318.389,38.359 318.924,38.975 319.732 M361.144 319.100 C 359.993 320.489,359.506 321.200,359.704 321.200 C 359.814 321.200,360.386 320.570,360.973 319.800 C 362.063 318.371,362.195 317.832,361.144 319.100 M43.092 325.000 C 43.543 325.660,44.665 327.010,45.584 328.000 C 46.942 329.462,46.867 329.312,45.183 327.200 C 42.790 324.199,41.909 323.272,43.092 325.000 M354.601 327.419 C 353.558 328.640,352.772 329.696,352.853 329.766 C 352.934 329.836,353.869 328.837,354.932 327.546 C 357.385 324.567,357.124 324.467,354.601 327.419 M47.200 330.125 C 47.200 330.194,47.785 330.779,48.500 331.425 L 49.800 332.600 48.625 331.300 C 47.530 330.088,47.200 329.816,47.200 330.125 M349.466 333.400 C 347.971 335.050,346.826 336.400,346.921 336.400 C 347.015 336.400,348.355 335.050,349.897 333.400 C 351.439 331.750,352.584 330.400,352.442 330.400 C 352.299 330.400,350.960 331.750,349.466 333.400 M51.400 334.800 C 52.483 335.900,53.460 336.800,53.570 336.800 C 53.680 336.800,52.883 335.900,51.800 334.800 C 50.717 333.700,49.740 332.800,49.630 332.800 C 49.520 332.800,50.317 333.700,51.400 334.800 M63.000 346.863 C 63.440 347.104,64.617 348.044,65.615 348.951 C 67.127 350.325,67.083 350.250,65.350 348.500 C 64.206 347.345,63.030 346.405,62.735 346.412 C 62.439 346.419,62.558 346.621,63.000 346.863 M329.137 353.247 C 327.302 354.813,325.440 356.468,325.000 356.924 C 324.053 357.906,328.379 354.428,330.400 352.583 C 331.170 351.879,332.160 351.106,332.600 350.864 C 333.040 350.622,333.192 350.419,332.937 350.412 C 332.682 350.405,330.972 351.681,329.137 353.247 M70.435 353.300 C 70.528 353.355,71.233 353.940,72.002 354.600 L 73.400 355.800 72.225 354.500 C 71.579 353.785,70.874 353.200,70.658 353.200 C 70.443 353.200,70.343 353.245,70.435 353.300 M73.967 356.145 C 74.500 356.801,76.000 357.793,76.000 357.489 C 76.000 357.413,75.415 356.922,74.700 356.399 C 73.896 355.810,73.616 355.713,73.967 356.145 M76.400 358.111 C 76.400 358.187,76.985 358.678,77.700 359.201 C 78.504 359.790,78.784 359.887,78.433 359.455 C 77.900 358.799,76.400 357.807,76.400 358.111 M322.087 359.100 C 321.130 360.035,321.114 360.081,321.981 359.406 C 323.688 358.076,323.769 358.000,323.486 358.000 C 323.336 358.000,322.706 358.495,322.087 359.100 M79.200 360.125 C 79.200 360.224,79.861 360.809,80.668 361.425 C 81.476 362.041,82.011 362.341,81.856 362.091 C 81.540 361.579,79.200 359.847,79.200 360.125 M317.400 362.635 L 316.200 363.666 317.500 362.806 C 318.215 362.333,318.800 361.868,318.800 361.773 C 318.800 361.473,318.631 361.578,317.400 362.635 M298.000 375.000 C 297.450 375.314,297.180 375.572,297.400 375.572 C 297.620 375.572,298.250 375.314,298.800 375.000 C 299.350 374.686,299.620 374.428,299.400 374.428 C 299.180 374.428,298.550 374.686,298.000 375.000 M287.600 380.441 C 286.830 380.886,286.560 381.128,287.000 380.979 C 287.440 380.831,288.115 380.619,288.500 380.508 C 288.885 380.397,289.200 380.148,289.200 379.953 C 289.200 379.504,289.252 379.488,287.600 380.441 M264.000 390.250 L 262.600 390.793 264.000 390.550 C 265.435 390.300,265.860 390.112,265.567 389.853 C 265.475 389.773,264.770 389.951,264.000 390.250 M255.400 392.800 C 254.381 393.238,255.432 393.238,256.800 392.800 C 257.604 392.543,257.643 392.477,257.000 392.468 C 256.560 392.462,255.840 392.611,255.400 392.800 M249.200 394.400 C 248.408 394.654,248.367 394.720,249.000 394.720 C 249.440 394.720,250.250 394.576,250.800 394.400 C 251.592 394.146,251.633 394.080,251.000 394.080 C 250.560 394.080,249.750 394.224,249.200 394.400 M153.141 395.301 C 153.343 395.503,153.933 395.601,154.454 395.519 C 155.255 395.393,155.198 395.337,154.087 395.152 C 153.293 395.021,152.919 395.079,153.141 395.301 M160.800 396.782 C 161.130 397.005,161.745 397.191,162.167 397.194 C 163.190 397.202,162.871 396.973,161.400 396.644 C 160.524 396.448,160.362 396.485,160.800 396.782 M230.900 398.276 C 231.285 398.376,231.915 398.376,232.300 398.276 C 232.685 398.175,232.370 398.093,231.600 398.093 C 230.830 398.093,230.515 398.175,230.900 398.276 " stroke="none" fill="#3c3c3c" fill-rule="evenodd"></path><path id="path4" d="M183.507 1.090 C 184.226 1.179,185.306 1.177,185.907 1.086 C 186.508 0.995,185.920 0.922,184.600 0.924 C 183.280 0.926,182.788 1.001,183.507 1.090 M214.307 1.090 C 215.026 1.179,216.106 1.177,216.707 1.086 C 217.308 0.995,216.720 0.922,215.400 0.924 C 214.080 0.926,213.588 1.001,214.307 1.090 M235.211 3.319 C 235.601 3.756,238.800 4.325,238.800 3.957 C 238.800 3.761,238.395 3.598,237.900 3.595 C 237.405 3.592,236.550 3.475,236.000 3.335 C 235.450 3.196,235.095 3.189,235.211 3.319 M134.200 11.200 C 134.064 11.420,133.614 11.600,133.200 11.600 C 132.786 11.600,132.324 11.799,132.174 12.043 C 131.986 12.346,132.200 12.396,132.850 12.200 C 133.759 11.927,135.255 10.800,134.709 10.800 C 134.565 10.800,134.336 10.980,134.200 11.200 M265.800 11.530 C 266.511 12.205,268.000 12.497,268.000 11.960 C 268.000 11.689,267.891 11.575,267.759 11.708 C 267.626 11.840,267.041 11.769,266.459 11.549 C 265.836 11.314,265.565 11.306,265.800 11.530 M322.400 42.106 C 322.400 42.194,323.165 42.874,324.100 43.617 C 325.035 44.360,325.546 44.652,325.236 44.265 C 324.651 43.537,322.400 41.823,322.400 42.106 M326.875 45.800 C 327.353 46.350,327.806 46.800,327.881 46.800 C 327.957 46.800,327.724 46.350,327.363 45.800 C 327.003 45.250,326.550 44.800,326.357 44.800 C 326.163 44.800,326.397 45.250,326.875 45.800 M340.800 58.600 C 341.546 59.370,342.247 60.000,342.357 60.000 C 342.467 60.000,341.946 59.370,341.200 58.600 C 340.454 57.830,339.753 57.200,339.643 57.200 C 339.533 57.200,340.054 57.830,340.800 58.600 M241.300 71.891 C 242.125 71.978,243.475 71.978,244.300 71.891 C 245.125 71.805,244.450 71.734,242.800 71.734 C 241.150 71.734,240.475 71.805,241.300 71.891 M228.700 72.682 C 229.195 72.778,230.005 72.778,230.500 72.682 C 230.995 72.587,230.590 72.509,229.600 72.509 C 228.610 72.509,228.205 72.587,228.700 72.682 M254.316 72.697 C 255.699 72.775,257.859 72.774,259.116 72.695 C 260.372 72.616,259.240 72.552,256.600 72.553 C 253.960 72.553,252.932 72.618,254.316 72.697 M280.988 98.400 C 280.988 111.930,281.038 117.465,281.100 110.700 C 281.161 103.935,281.161 92.865,281.100 86.100 C 281.038 79.335,280.988 84.870,280.988 98.400 M174.636 107.942 C 174.194 108.658,173.566 110.582,173.899 110.200 C 174.340 109.694,175.239 107.600,175.015 107.600 C 174.923 107.600,174.752 107.754,174.636 107.942 M169.812 120.917 C 169.641 121.312,169.613 121.747,169.751 121.884 C 170.157 122.290,170.484 121.720,170.297 120.931 C 170.132 120.233,170.110 120.232,169.812 120.917 M383.886 121.606 C 384.195 122.790,384.717 122.945,384.496 121.788 C 384.392 121.245,384.165 120.800,383.991 120.800 C 383.817 120.800,383.770 121.163,383.886 121.606 M257.874 123.499 C 261.655 123.565,267.955 123.565,271.874 123.499 C 275.793 123.434,272.700 123.380,265.000 123.380 C 257.300 123.380,254.093 123.434,257.874 123.499 M243.045 123.928 C 242.933 124.108,243.373 124.177,244.021 124.082 C 244.670 123.987,245.200 123.840,245.200 123.755 C 245.200 123.450,243.243 123.607,243.045 123.928 M13.280 127.480 C 12.688 129.409,12.975 129.695,13.600 127.800 C 13.864 127.001,14.002 126.269,13.907 126.174 C 13.812 126.078,13.530 126.666,13.280 127.480 M229.775 130.100 L 228.600 131.400 229.900 130.225 C 230.615 129.579,231.200 128.994,231.200 128.925 C 231.200 128.616,230.870 128.888,229.775 130.100 M167.314 135.800 C 167.317 136.900,167.395 137.303,167.487 136.695 C 167.579 136.086,167.577 135.186,167.482 134.695 C 167.387 134.203,167.311 134.700,167.314 135.800 M223.789 146.100 C 223.456 146.999,223.391 186.800,223.724 186.800 C 223.902 186.800,223.918 187.025,223.759 187.300 C 223.601 187.575,223.594 187.692,223.743 187.559 C 223.995 187.336,224.337 145.600,224.087 145.600 C 224.026 145.600,223.891 145.825,223.789 146.100 M394.468 152.200 C 394.462 152.640,394.611 153.360,394.800 153.800 C 395.238 154.819,395.238 153.768,394.800 152.400 C 394.543 151.596,394.477 151.557,394.468 152.200 M166.946 176.200 C 166.947 178.400,167.014 179.249,167.095 178.087 C 167.176 176.924,167.176 175.124,167.093 174.087 C 167.011 173.049,166.945 174.000,166.946 176.200 M0.909 176.800 C 0.909 177.790,0.987 178.195,1.082 177.700 C 1.178 177.205,1.178 176.395,1.082 175.900 C 0.987 175.405,0.909 175.810,0.909 176.800 M131.312 187.095 C 132.364 187.177,133.984 187.176,134.912 187.092 C 135.840 187.008,134.980 186.941,133.000 186.942 C 131.020 186.943,130.260 187.012,131.312 187.095 M154.100 187.094 C 155.145 187.176,156.855 187.176,157.900 187.094 C 158.945 187.012,158.090 186.944,156.000 186.944 C 153.910 186.944,153.055 187.012,154.100 187.094 M230.100 187.076 C 230.485 187.176,231.115 187.176,231.500 187.076 C 231.885 186.975,231.570 186.893,230.800 186.893 C 230.030 186.893,229.715 186.975,230.100 187.076 M235.300 187.091 C 236.125 187.178,237.475 187.178,238.300 187.091 C 239.125 187.005,238.450 186.934,236.800 186.934 C 235.150 186.934,234.475 187.005,235.300 187.091 M255.500 187.089 C 256.215 187.178,257.385 187.178,258.100 187.089 C 258.815 187.001,258.230 186.928,256.800 186.928 C 255.370 186.928,254.785 187.001,255.500 187.089 M271.100 187.093 C 272.035 187.177,273.565 187.177,274.500 187.093 C 275.435 187.009,274.670 186.940,272.800 186.940 C 270.930 186.940,270.165 187.009,271.100 187.093 M278.780 188.510 C 278.975 190.158,278.983 190.167,279.119 188.849 C 279.196 188.106,279.106 187.346,278.920 187.160 C 278.733 186.973,278.671 187.581,278.780 188.510 M118.946 196.200 C 118.947 198.400,119.014 199.249,119.095 198.087 C 119.176 196.924,119.176 195.124,119.093 194.087 C 119.011 193.049,118.945 194.000,118.946 196.200 M276.501 207.400 C 276.505 208.280,276.587 208.593,276.683 208.095 C 276.779 207.598,276.775 206.878,276.675 206.495 C 276.575 206.113,276.496 206.520,276.501 207.400 M274.509 223.200 C 274.509 224.190,274.587 224.595,274.682 224.100 C 274.778 223.605,274.778 222.795,274.682 222.300 C 274.587 221.805,274.509 222.210,274.509 223.200 M0.909 224.800 C 0.909 225.790,0.987 226.195,1.082 225.700 C 1.178 225.205,1.178 224.395,1.082 223.900 C 0.987 223.405,0.909 223.810,0.909 224.800 M118.931 237.000 C 118.933 238.540,119.005 239.121,119.092 238.291 C 119.179 237.461,119.177 236.201,119.089 235.491 C 119.000 234.781,118.929 235.460,118.931 237.000 M3.458 241.600 C 3.775 243.325,4.002 243.651,3.994 242.367 C 3.991 241.835,3.811 241.130,3.594 240.800 C 3.318 240.378,3.277 240.615,3.458 241.600 M271.628 240.676 C 271.718 241.715,272.344 242.596,272.372 241.724 C 272.387 241.242,272.220 240.736,272.000 240.600 C 271.780 240.464,271.613 240.498,271.628 240.676 M223.796 321.200 C 223.796 363.550,223.843 380.875,223.900 359.700 C 223.957 338.525,223.957 303.875,223.900 282.700 C 223.843 261.525,223.796 278.850,223.796 321.200 M166.955 255.400 C 166.956 258.260,167.020 259.378,167.097 257.883 C 167.174 256.389,167.174 254.049,167.096 252.683 C 167.018 251.318,166.955 252.540,166.955 255.400 M166.955 275.400 C 166.956 278.260,167.020 279.378,167.097 277.883 C 167.174 276.389,167.174 274.049,167.096 272.683 C 167.018 271.318,166.955 272.540,166.955 275.400 M166.955 295.400 C 166.956 298.260,167.020 299.378,167.097 297.883 C 167.174 296.389,167.174 294.049,167.096 292.683 C 167.018 291.318,166.955 292.540,166.955 295.400 M368.511 308.900 C 367.808 309.810,367.528 310.616,368.199 309.800 C 368.560 309.360,369.037 309.049,369.258 309.110 C 369.479 309.170,369.545 309.035,369.406 308.810 C 369.081 308.284,368.980 308.294,368.511 308.900 M166.955 315.400 C 166.956 318.260,167.020 319.378,167.097 317.883 C 167.174 316.389,167.174 314.049,167.096 312.683 C 167.018 311.318,166.955 312.540,166.955 315.400 M37.706 318.748 C 37.739 319.186,37.898 319.463,38.058 319.364 C 38.219 319.264,38.536 319.502,38.763 319.892 C 38.990 320.281,39.181 320.448,39.188 320.263 C 39.195 320.078,38.850 319.482,38.423 318.938 C 37.723 318.048,37.652 318.029,37.706 318.748 M166.955 335.400 C 166.956 338.260,167.020 339.378,167.097 337.883 C 167.174 336.389,167.174 334.049,167.096 332.683 C 167.018 331.318,166.955 332.540,166.955 335.400 M166.957 356.000 C 166.957 358.970,167.020 360.185,167.097 358.700 C 167.174 357.215,167.174 354.785,167.097 353.300 C 167.020 351.815,166.957 353.030,166.957 356.000 M330.000 353.236 C 329.336 353.779,329.269 353.915,329.800 353.640 C 331.105 352.966,331.828 352.412,331.400 352.415 C 331.180 352.417,330.550 352.786,330.000 353.236 M80.400 361.668 C 81.402 362.645,81.910 362.825,81.418 362.029 C 81.273 361.795,80.760 361.399,80.278 361.149 C 79.483 360.736,79.494 360.785,80.400 361.668 M166.957 376.000 C 166.957 378.970,167.020 380.185,167.097 378.700 C 167.174 377.215,167.174 374.785,167.097 373.300 C 167.020 371.815,166.957 373.030,166.957 376.000 M118.800 383.991 C 118.800 384.165,119.245 384.392,119.788 384.496 C 120.331 384.599,120.694 384.552,120.594 384.390 C 120.328 383.960,118.800 383.620,118.800 383.991 M134.000 389.928 C 134.000 390.138,134.546 390.389,135.213 390.487 C 136.538 390.682,136.337 390.252,134.900 389.818 C 134.405 389.668,134.000 389.718,134.000 389.928 M166.944 394.400 C 166.944 396.490,167.012 397.345,167.094 396.300 C 167.176 395.255,167.176 393.545,167.094 392.500 C 167.012 391.455,166.944 392.310,166.944 394.400 M258.200 392.400 C 257.429 392.731,257.431 392.745,258.276 392.772 C 258.758 392.787,259.264 392.620,259.400 392.400 C 259.692 391.927,259.301 391.927,258.200 392.400 " stroke="none" fill="#747474" fill-rule="evenodd"></path></g></svg>