<svg id="svg" version="1.1" xmlns="http://www.w3.org/2000/svg" xmlns:xlink="http://www.w3.org/1999/xlink" width="400" height="400" viewBox="0, 0, 400,400"><g id="svgg"><path id="path0" d="M119.700 0.283 C 114.772 0.364,111.600 0.570,111.600 0.808 C 111.600 1.040,109.805 1.200,107.200 1.200 C 104.533 1.200,102.800 1.358,102.800 1.600 C 102.800 1.829,101.600 2.000,100.000 2.000 C 98.400 2.000,97.200 2.171,97.200 2.400 C 97.200 2.620,96.210 2.800,95.000 2.800 C 93.790 2.800,92.800 2.980,92.800 3.200 C 92.800 3.420,91.900 3.600,90.800 3.600 C 89.700 3.600,88.800 3.780,88.800 4.000 C 88.800 4.220,88.001 4.400,87.024 4.400 C 86.047 4.400,85.136 4.580,85.000 4.800 C 84.864 5.020,84.223 5.200,83.576 5.200 C 82.929 5.200,82.400 5.380,82.400 5.600 C 82.400 5.820,81.680 6.000,80.800 6.000 C 79.920 6.000,79.200 6.180,79.200 6.400 C 79.200 6.620,78.660 6.800,78.000 6.800 C 77.340 6.800,76.800 6.980,76.800 7.200 C 76.800 7.420,76.350 7.600,75.800 7.600 C 75.250 7.600,74.800 7.780,74.800 8.000 C 74.800 8.220,74.404 8.400,73.920 8.400 C 72.687 8.400,68.400 9.712,68.400 10.089 C 68.400 10.260,67.961 10.400,67.424 10.400 C 66.887 10.400,66.336 10.580,66.200 10.800 C 66.064 11.020,65.603 11.200,65.176 11.200 C 64.749 11.200,64.400 11.380,64.400 11.600 C 64.400 11.820,64.135 12.000,63.812 12.000 C 63.489 12.000,62.583 12.360,61.800 12.800 C 61.017 13.240,60.111 13.600,59.788 13.600 C 59.465 13.600,59.200 13.758,59.200 13.951 C 59.200 14.145,58.660 14.527,58.000 14.800 C 57.340 15.073,56.800 15.455,56.800 15.649 C 56.800 15.842,56.440 16.000,56.000 16.000 C 55.560 16.000,55.200 16.180,55.200 16.400 C 55.200 16.620,54.840 16.800,54.400 16.800 C 53.960 16.800,53.600 16.980,53.600 17.200 C 53.600 17.420,53.364 17.600,53.075 17.600 C 52.787 17.600,52.164 17.960,51.692 18.400 C 51.220 18.840,50.596 19.200,50.305 19.200 C 50.014 19.200,49.517 19.560,49.200 20.000 C 48.883 20.440,48.343 20.800,48.000 20.800 C 47.657 20.800,47.117 21.160,46.800 21.600 C 46.483 22.040,45.993 22.400,45.712 22.400 C 45.430 22.400,45.200 22.580,45.200 22.800 C 45.200 23.020,44.996 23.200,44.747 23.200 C 44.498 23.200,44.003 23.517,43.647 23.904 C 43.291 24.292,42.280 25.141,41.400 25.792 C 39.067 27.516,26.500 40.254,26.201 41.198 C 26.061 41.639,25.793 42.000,25.606 42.000 C 25.418 42.000,24.900 42.591,24.453 43.314 C 24.007 44.036,23.182 45.161,22.621 45.814 C 22.060 46.466,21.601 47.185,21.600 47.412 C 21.600 47.638,21.240 48.083,20.800 48.400 C 20.360 48.717,20.000 49.297,20.000 49.688 C 20.000 50.080,19.820 50.400,19.600 50.400 C 19.380 50.400,19.200 50.636,19.200 50.925 C 19.200 51.213,18.840 51.836,18.400 52.308 C 17.960 52.780,17.600 53.444,17.600 53.783 C 17.600 54.122,17.420 54.400,17.200 54.400 C 16.980 54.400,16.800 54.678,16.800 55.017 C 16.800 55.356,16.440 56.020,16.000 56.492 C 15.560 56.964,15.200 57.587,15.200 57.875 C 15.200 58.164,15.020 58.400,14.800 58.400 C 14.580 58.400,14.400 58.665,14.400 58.988 C 14.400 59.311,14.040 60.217,13.600 61.000 C 13.160 61.783,12.800 62.689,12.800 63.012 C 12.800 63.335,12.620 63.600,12.400 63.600 C 12.180 63.600,12.000 63.949,12.000 64.376 C 12.000 64.803,11.820 65.264,11.600 65.400 C 11.380 65.536,11.200 66.087,11.200 66.624 C 11.200 67.161,11.020 67.600,10.800 67.600 C 10.580 67.600,10.400 67.949,10.400 68.376 C 10.400 68.803,10.220 69.264,10.000 69.400 C 9.780 69.536,9.600 70.076,9.600 70.600 C 9.600 71.124,9.437 71.654,9.237 71.777 C 9.038 71.900,8.751 72.901,8.600 74.000 C 8.449 75.100,8.162 76.000,7.962 76.000 C 7.763 76.000,7.600 76.540,7.600 77.200 C 7.600 77.860,7.420 78.400,7.200 78.400 C 6.980 78.400,6.800 79.120,6.800 80.000 C 6.800 80.880,6.620 81.600,6.400 81.600 C 6.180 81.600,6.000 82.230,6.000 83.000 C 6.000 83.770,5.820 84.400,5.600 84.400 C 5.380 84.400,5.200 85.210,5.200 86.200 C 5.200 87.190,5.020 88.000,4.800 88.000 C 4.580 88.000,4.400 88.900,4.400 90.000 C 4.400 91.100,4.220 92.000,4.000 92.000 C 3.780 92.000,3.600 92.990,3.600 94.200 C 3.600 95.410,3.420 96.400,3.200 96.400 C 2.971 96.400,2.800 97.600,2.800 99.200 C 2.800 100.800,2.629 102.000,2.400 102.000 C 2.158 102.000,2.000 103.733,2.000 106.400 C 2.000 109.067,1.842 110.800,1.600 110.800 C 1.347 110.800,1.200 113.656,1.200 118.567 C 1.200 124.424,1.077 126.374,0.700 126.500 C -0.030 126.743,-0.024 274.859,0.706 275.102 C 1.075 275.225,1.200 277.180,1.200 282.810 C 1.200 287.407,1.356 290.449,1.600 290.600 C 1.820 290.736,2.000 292.446,2.000 294.400 C 2.000 296.354,2.180 298.064,2.400 298.200 C 2.620 298.336,2.800 299.686,2.800 301.200 C 2.800 302.714,2.980 304.064,3.200 304.200 C 3.420 304.336,3.600 305.326,3.600 306.400 C 3.600 307.474,3.780 308.464,4.000 308.600 C 4.220 308.736,4.400 309.636,4.400 310.600 C 4.400 311.564,4.580 312.464,4.800 312.600 C 5.020 312.736,5.200 313.557,5.200 314.424 C 5.200 315.291,5.380 316.000,5.600 316.000 C 5.820 316.000,6.000 316.720,6.000 317.600 C 6.000 318.480,6.180 319.200,6.400 319.200 C 6.620 319.200,6.800 319.729,6.800 320.376 C 6.800 321.023,6.980 321.664,7.200 321.800 C 7.420 321.936,7.600 322.476,7.600 323.000 C 7.600 323.524,7.780 324.064,8.000 324.200 C 8.220 324.336,8.401 324.932,8.402 325.524 C 8.404 326.116,8.674 327.116,9.002 327.746 C 9.331 328.376,9.600 329.220,9.600 329.622 C 9.600 330.024,9.744 330.442,9.921 330.551 C 10.097 330.660,10.490 331.661,10.793 332.775 C 11.096 333.889,11.492 334.800,11.672 334.800 C 11.853 334.800,12.000 335.149,12.000 335.576 C 12.000 336.003,12.180 336.464,12.400 336.600 C 12.620 336.736,12.800 337.197,12.800 337.624 C 12.800 338.051,12.980 338.400,13.200 338.400 C 13.420 338.400,13.600 338.760,13.600 339.200 C 13.600 339.640,13.780 340.000,14.000 340.000 C 14.220 340.000,14.400 340.360,14.400 340.800 C 14.400 341.240,14.580 341.600,14.800 341.600 C 15.020 341.600,15.200 341.960,15.200 342.400 C 15.200 342.840,15.380 343.200,15.600 343.200 C 15.820 343.200,16.000 343.436,16.000 343.725 C 16.000 344.013,16.360 344.636,16.800 345.108 C 17.240 345.580,17.600 346.244,17.600 346.583 C 17.600 346.922,17.780 347.200,18.000 347.200 C 18.220 347.200,18.400 347.520,18.400 347.912 C 18.400 348.303,18.760 348.883,19.200 349.200 C 19.640 349.517,20.000 350.057,20.000 350.400 C 20.000 350.743,20.360 351.283,20.800 351.600 C 21.240 351.917,21.600 352.457,21.600 352.800 C 21.600 353.143,21.960 353.683,22.400 354.000 C 22.840 354.317,23.200 354.807,23.200 355.088 C 23.200 355.370,23.380 355.600,23.600 355.600 C 23.820 355.600,24.000 355.790,24.000 356.022 C 24.000 356.254,24.539 357.019,25.198 357.722 C 25.857 358.425,26.397 359.125,26.398 359.277 C 26.399 359.430,27.435 360.618,28.700 361.917 C 29.965 363.217,31.830 365.162,32.844 366.240 C 35.377 368.934,39.623 372.878,41.468 374.251 C 42.311 374.878,43.291 375.708,43.647 376.096 C 44.003 376.483,44.498 376.800,44.747 376.800 C 44.996 376.800,45.200 376.980,45.200 377.200 C 45.200 377.420,45.430 377.600,45.712 377.600 C 45.993 377.600,46.483 377.960,46.800 378.400 C 47.117 378.840,47.657 379.200,48.000 379.200 C 48.343 379.200,48.883 379.560,49.200 380.000 C 49.517 380.440,50.014 380.800,50.305 380.800 C 50.596 380.800,51.220 381.160,51.692 381.600 C 52.164 382.040,52.787 382.400,53.075 382.400 C 53.364 382.400,53.600 382.580,53.600 382.800 C 53.600 383.020,53.960 383.200,54.400 383.200 C 54.840 383.200,55.200 383.380,55.200 383.600 C 55.200 383.820,55.436 384.000,55.725 384.000 C 56.013 384.000,56.636 384.360,57.108 384.800 C 57.580 385.240,58.244 385.600,58.583 385.600 C 58.922 385.600,59.200 385.780,59.200 386.000 C 59.200 386.220,59.465 386.400,59.788 386.400 C 60.111 386.400,61.017 386.760,61.800 387.200 C 62.583 387.640,63.489 388.000,63.812 388.000 C 64.135 388.000,64.400 388.180,64.400 388.400 C 64.400 388.620,64.672 388.800,65.005 388.800 C 65.338 388.800,65.923 388.959,66.305 389.153 C 68.681 390.362,72.481 391.600,73.814 391.600 C 74.356 391.600,74.800 391.780,74.800 392.000 C 74.800 392.220,75.250 392.400,75.800 392.400 C 76.350 392.400,76.800 392.580,76.800 392.800 C 76.800 393.020,77.340 393.200,78.000 393.200 C 78.660 393.200,79.200 393.380,79.200 393.600 C 79.200 393.820,79.920 394.000,80.800 394.000 C 81.680 394.000,82.400 394.180,82.400 394.400 C 82.400 394.620,83.120 394.800,84.000 394.800 C 84.880 394.800,85.600 394.980,85.600 395.200 C 85.600 395.420,86.320 395.600,87.200 395.600 C 88.080 395.600,88.800 395.780,88.800 396.000 C 88.800 396.220,89.700 396.400,90.800 396.400 C 91.900 396.400,92.800 396.580,92.800 396.800 C 92.800 397.020,93.779 397.200,94.976 397.200 C 96.173 397.200,97.264 397.380,97.400 397.600 C 97.536 397.820,98.807 398.000,100.224 398.000 C 101.675 398.000,102.800 398.175,102.800 398.400 C 102.800 398.642,104.522 398.800,107.167 398.800 C 110.304 398.800,111.580 398.941,111.700 399.300 C 111.945 400.035,288.525 400.035,289.260 399.300 C 289.595 398.965,291.113 398.800,293.856 398.800 C 296.156 398.800,298.061 398.625,298.200 398.400 C 298.336 398.180,299.686 398.000,301.200 398.000 C 302.714 398.000,304.064 397.820,304.200 397.600 C 304.336 397.380,305.427 397.200,306.624 397.200 C 307.821 397.200,308.800 397.020,308.800 396.800 C 308.800 396.580,309.700 396.400,310.800 396.400 C 311.900 396.400,312.800 396.220,312.800 396.000 C 312.800 395.780,313.520 395.600,314.400 395.600 C 315.280 395.600,316.000 395.420,316.000 395.200 C 316.000 394.980,316.720 394.800,317.600 394.800 C 318.480 394.800,319.200 394.620,319.200 394.400 C 319.200 394.180,319.819 394.000,320.576 394.000 C 321.333 394.000,322.064 393.820,322.200 393.600 C 322.336 393.380,322.887 393.200,323.424 393.200 C 323.961 393.200,324.400 393.020,324.400 392.800 C 324.400 392.580,324.940 392.400,325.600 392.400 C 326.260 392.400,326.800 392.244,326.800 392.054 C 326.800 391.864,327.612 391.597,328.605 391.461 C 329.598 391.325,331.161 390.851,332.080 390.407 C 332.999 389.963,333.914 389.600,334.114 389.600 C 334.684 389.600,341.384 386.276,341.533 385.919 C 341.607 385.744,342.012 385.600,342.433 385.600 C 342.855 385.600,343.200 385.420,343.200 385.200 C 343.200 384.980,343.560 384.800,344.000 384.800 C 344.440 384.800,344.800 384.620,344.800 384.400 C 344.800 384.180,345.078 384.000,345.417 384.000 C 345.756 384.000,346.420 383.640,346.892 383.200 C 347.364 382.760,347.987 382.400,348.275 382.400 C 348.564 382.400,348.800 382.220,348.800 382.000 C 348.800 381.780,349.120 381.600,349.512 381.600 C 349.903 381.600,350.483 381.240,350.800 380.800 C 351.117 380.360,351.657 380.000,352.000 380.000 C 352.343 380.000,352.883 379.640,353.200 379.200 C 353.517 378.760,353.980 378.400,354.229 378.400 C 354.478 378.400,355.246 377.860,355.937 377.200 C 356.628 376.540,357.292 376.000,357.413 376.000 C 357.534 376.000,358.016 375.644,358.483 375.208 C 358.951 374.773,360.065 373.918,360.959 373.308 C 362.854 372.017,372.459 362.503,373.491 360.895 C 374.377 359.514,374.779 358.998,375.900 357.799 C 376.395 357.270,376.800 356.737,376.800 356.615 C 376.800 356.493,377.340 355.828,378.000 355.137 C 378.660 354.446,379.200 353.678,379.200 353.429 C 379.200 353.180,379.560 352.717,380.000 352.400 C 380.440 352.083,380.800 351.586,380.800 351.295 C 380.800 351.004,381.160 350.380,381.600 349.908 C 382.040 349.436,382.400 348.813,382.400 348.525 C 382.400 348.236,382.580 348.000,382.800 348.000 C 383.020 348.000,383.200 347.722,383.200 347.383 C 383.200 347.044,383.560 346.380,384.000 345.908 C 384.440 345.436,384.800 344.813,384.800 344.525 C 384.800 344.236,384.980 344.000,385.200 344.000 C 385.420 344.000,385.600 343.640,385.600 343.200 C 385.600 342.760,385.780 342.400,386.000 342.400 C 386.220 342.400,386.400 342.055,386.400 341.633 C 386.400 341.212,386.544 340.807,386.720 340.733 C 387.167 340.547,389.600 335.387,389.600 334.625 C 389.600 334.281,389.740 334.000,389.911 334.000 C 390.219 334.000,391.600 329.812,391.600 328.880 C 391.600 328.616,391.780 328.400,392.000 328.400 C 392.220 328.400,392.400 327.860,392.400 327.200 C 392.400 326.540,392.580 326.000,392.800 326.000 C 393.020 326.000,393.200 325.460,393.200 324.800 C 393.200 324.140,393.380 323.600,393.600 323.600 C 393.820 323.600,394.000 322.970,394.000 322.200 C 394.000 321.430,394.180 320.800,394.400 320.800 C 394.620 320.800,394.800 320.271,394.800 319.624 C 394.800 318.977,394.980 318.336,395.200 318.200 C 395.420 318.064,395.600 317.344,395.600 316.600 C 395.600 315.856,395.780 315.136,396.000 315.000 C 396.220 314.864,396.400 313.953,396.400 312.976 C 396.400 311.999,396.580 311.200,396.800 311.200 C 397.020 311.200,397.200 310.300,397.200 309.200 C 397.200 308.100,397.380 307.200,397.600 307.200 C 397.822 307.200,398.000 306.133,398.000 304.800 C 398.000 303.467,398.178 302.400,398.400 302.400 C 398.630 302.400,398.800 301.160,398.800 299.480 C 398.800 297.677,398.991 296.369,399.300 296.060 C 400.035 295.325,400.035 103.075,399.300 102.340 C 399.007 102.047,398.800 100.807,398.800 99.344 C 398.800 97.971,398.620 96.736,398.400 96.600 C 398.180 96.464,398.000 95.373,398.000 94.176 C 398.000 92.979,397.820 92.000,397.600 92.000 C 397.380 92.000,397.200 91.100,397.200 90.000 C 397.200 88.900,397.020 88.000,396.800 88.000 C 396.580 88.000,396.400 87.291,396.400 86.424 C 396.400 85.557,396.220 84.736,396.000 84.600 C 395.780 84.464,395.600 83.733,395.600 82.976 C 395.600 82.219,395.420 81.600,395.200 81.600 C 394.980 81.600,394.800 80.880,394.800 80.000 C 394.800 79.120,394.620 78.400,394.400 78.400 C 394.180 78.400,394.000 77.961,394.000 77.424 C 394.000 76.887,393.820 76.336,393.600 76.200 C 393.380 76.064,393.200 75.513,393.200 74.976 C 393.200 74.439,393.020 74.000,392.800 74.000 C 392.580 74.000,392.400 73.460,392.400 72.800 C 392.400 72.140,392.220 71.600,392.000 71.600 C 391.780 71.600,391.599 71.105,391.598 70.500 C 391.596 69.895,391.326 68.884,390.998 68.254 C 390.669 67.624,390.400 66.940,390.400 66.735 C 390.400 66.529,390.040 65.616,389.600 64.706 C 389.160 63.795,388.800 62.814,388.800 62.525 C 388.800 62.236,388.620 62.000,388.400 62.000 C 388.180 62.000,388.000 61.735,388.000 61.411 C 388.000 61.087,387.542 60.052,386.982 59.111 C 386.423 58.170,385.862 57.085,385.736 56.700 C 385.610 56.315,385.348 56.000,385.153 56.000 C 384.959 56.000,384.800 55.640,384.800 55.200 C 384.800 54.760,384.620 54.400,384.400 54.400 C 384.180 54.400,384.000 54.122,384.000 53.783 C 384.000 53.444,383.640 52.780,383.200 52.308 C 382.760 51.836,382.400 51.213,382.400 50.925 C 382.400 50.636,382.220 50.400,382.000 50.400 C 381.780 50.400,381.600 50.080,381.600 49.688 C 381.600 49.297,381.240 48.717,380.800 48.400 C 380.360 48.083,380.000 47.593,380.000 47.312 C 380.000 47.030,379.820 46.800,379.600 46.800 C 379.380 46.800,379.200 46.570,379.200 46.288 C 379.200 46.007,378.840 45.517,378.400 45.200 C 377.960 44.883,377.600 44.409,377.600 44.147 C 377.600 43.885,377.060 43.217,376.400 42.661 C 375.740 42.106,375.200 41.461,375.200 41.229 C 375.200 40.383,363.099 27.925,360.917 26.523 C 359.513 25.622,359.002 25.224,357.799 24.100 C 357.270 23.605,356.688 23.200,356.506 23.200 C 356.325 23.200,355.917 22.840,355.600 22.400 C 355.283 21.960,354.838 21.600,354.612 21.599 C 354.385 21.599,353.570 21.059,352.800 20.400 C 352.030 19.741,351.175 19.201,350.900 19.201 C 350.625 19.200,350.400 19.020,350.400 18.800 C 350.400 18.580,350.080 18.400,349.688 18.400 C 349.297 18.400,348.717 18.040,348.400 17.600 C 348.083 17.160,347.503 16.800,347.112 16.800 C 346.720 16.800,346.400 16.620,346.400 16.400 C 346.400 16.180,346.040 16.000,345.600 16.000 C 345.160 16.000,344.800 15.820,344.800 15.600 C 344.800 15.380,344.440 15.200,344.000 15.200 C 343.560 15.200,343.200 15.046,343.200 14.857 C 343.200 14.668,342.210 14.087,341.000 13.564 C 339.790 13.042,338.800 12.476,338.800 12.307 C 338.800 12.138,338.564 12.000,338.275 12.000 C 337.986 12.000,337.005 11.640,336.094 11.200 C 335.184 10.760,334.284 10.400,334.094 10.400 C 333.905 10.400,332.999 10.037,332.080 9.593 C 331.161 9.149,329.598 8.675,328.605 8.539 C 327.612 8.403,326.800 8.136,326.800 7.946 C 326.800 7.756,326.260 7.600,325.600 7.600 C 324.940 7.600,324.400 7.420,324.400 7.200 C 324.400 6.980,323.860 6.800,323.200 6.800 C 322.540 6.800,322.000 6.620,322.000 6.400 C 322.000 6.180,321.370 6.000,320.600 6.000 C 319.830 6.000,319.200 5.820,319.200 5.600 C 319.200 5.380,318.480 5.200,317.600 5.200 C 316.720 5.200,316.000 5.020,316.000 4.800 C 316.000 4.580,315.291 4.400,314.424 4.400 C 313.557 4.400,312.736 4.220,312.600 4.000 C 312.464 3.780,311.373 3.600,310.176 3.600 C 308.979 3.600,308.000 3.420,308.000 3.200 C 308.000 2.980,307.010 2.800,305.800 2.800 C 304.590 2.800,303.600 2.620,303.600 2.400 C 303.600 2.172,302.408 2.000,300.824 2.000 C 299.297 2.000,297.936 1.820,297.800 1.600 C 297.660 1.374,295.689 1.200,293.256 1.200 C 290.353 1.200,288.798 1.038,288.460 0.700 C 287.988 0.228,144.561 -0.126,119.700 0.283 M260.200 37.600 C 260.355 37.850,264.396 38.000,271.000 38.000 C 277.604 38.000,281.645 38.150,281.800 38.400 C 281.943 38.632,284.137 38.800,287.024 38.800 C 290.075 38.800,292.000 38.955,292.000 39.200 C 292.000 39.430,293.240 39.600,294.920 39.600 C 296.526 39.600,298.011 39.763,298.220 39.963 C 298.429 40.163,299.500 40.426,300.600 40.548 C 305.214 41.060,309.200 41.766,309.200 42.072 C 309.200 42.252,309.830 42.400,310.600 42.400 C 311.370 42.400,312.000 42.580,312.000 42.800 C 312.000 43.020,312.540 43.200,313.200 43.200 C 313.860 43.200,314.400 43.380,314.400 43.600 C 314.400 43.820,314.940 44.000,315.600 44.000 C 316.260 44.000,316.800 44.180,316.800 44.400 C 316.800 44.620,317.160 44.800,317.600 44.800 C 318.040 44.800,318.400 44.980,318.400 45.200 C 318.400 45.420,318.940 45.600,319.600 45.600 C 320.260 45.600,320.800 45.780,320.800 46.000 C 320.800 46.220,321.160 46.400,321.600 46.400 C 322.040 46.400,322.400 46.580,322.400 46.800 C 322.400 47.020,322.760 47.200,323.200 47.200 C 323.640 47.200,324.000 47.380,324.000 47.600 C 324.000 47.820,324.360 48.000,324.800 48.000 C 325.240 48.000,325.600 48.136,325.600 48.302 C 325.600 48.469,326.185 48.864,326.900 49.180 C 327.615 49.497,328.549 50.080,328.975 50.478 C 329.402 50.875,329.987 51.200,330.275 51.200 C 330.564 51.200,330.800 51.368,330.800 51.573 C 330.800 51.778,331.166 52.062,331.613 52.204 C 332.060 52.346,332.839 52.875,333.343 53.380 C 333.848 53.885,334.654 54.508,335.135 54.765 C 337.192 55.866,346.400 65.094,346.400 66.055 C 346.400 66.288,346.940 66.983,347.600 67.600 C 348.260 68.217,348.800 68.969,348.800 69.272 C 348.800 69.575,349.160 70.083,349.600 70.400 C 350.040 70.717,350.400 71.297,350.400 71.688 C 350.400 72.080,350.580 72.400,350.800 72.400 C 351.020 72.400,351.200 72.670,351.200 73.000 C 351.200 73.330,351.380 73.600,351.600 73.600 C 351.820 73.600,352.000 73.836,352.000 74.125 C 352.000 74.413,352.360 75.036,352.800 75.508 C 353.240 75.980,353.600 76.723,353.600 77.160 C 353.600 77.596,353.780 78.064,354.000 78.200 C 354.220 78.336,354.400 78.797,354.400 79.224 C 354.400 79.651,354.580 80.000,354.800 80.000 C 355.020 80.000,355.200 80.360,355.200 80.800 C 355.200 81.240,355.380 81.600,355.600 81.600 C 355.820 81.600,356.000 82.140,356.000 82.800 C 356.000 83.460,356.180 84.000,356.400 84.000 C 356.620 84.000,356.800 84.349,356.800 84.776 C 356.800 85.203,356.980 85.664,357.200 85.800 C 357.420 85.936,357.600 86.399,357.600 86.829 C 357.600 87.259,357.767 87.923,357.971 88.305 C 358.176 88.687,358.553 90.080,358.811 91.400 C 359.068 92.720,359.457 94.520,359.675 95.400 C 359.893 96.280,360.163 97.810,360.275 98.800 C 360.386 99.790,360.640 100.771,360.839 100.980 C 361.037 101.189,361.200 102.494,361.200 103.880 C 361.200 105.266,361.368 106.400,361.574 106.400 C 362.002 106.400,362.336 111.578,362.630 122.797 C 362.742 127.085,363.006 130.766,363.217 130.977 C 363.755 131.515,363.738 269.068,363.200 269.400 C 362.955 269.551,362.800 272.730,362.800 277.600 C 362.800 282.470,362.645 285.649,362.400 285.800 C 362.180 285.936,362.000 287.711,362.000 289.744 C 362.000 291.777,361.835 293.611,361.634 293.820 C 361.432 294.029,361.171 295.280,361.054 296.600 C 360.718 300.372,360.384 302.533,360.002 303.400 C 359.808 303.840,359.555 304.830,359.440 305.600 C 358.929 309.015,358.221 312.000,357.924 312.000 C 357.746 312.000,357.600 312.540,357.600 313.200 C 357.600 313.860,357.420 314.400,357.200 314.400 C 356.980 314.400,356.800 314.940,356.800 315.600 C 356.800 316.260,356.620 316.800,356.400 316.800 C 356.180 316.800,356.000 317.160,356.000 317.600 C 356.000 318.040,355.820 318.400,355.600 318.400 C 355.380 318.400,355.200 318.839,355.200 319.376 C 355.200 319.913,355.020 320.464,354.800 320.600 C 354.580 320.736,354.400 321.197,354.400 321.624 C 354.400 322.051,354.220 322.400,354.000 322.400 C 353.780 322.400,353.600 322.760,353.600 323.200 C 353.600 323.640,353.464 324.000,353.298 324.000 C 353.131 324.000,352.771 324.506,352.497 325.125 C 352.224 325.744,351.640 326.636,351.200 327.108 C 350.760 327.580,350.400 328.244,350.400 328.583 C 350.400 328.922,350.250 329.200,350.068 329.200 C 349.885 329.200,349.480 329.695,349.168 330.300 C 348.855 330.905,348.195 331.813,347.700 332.318 C 347.205 332.823,346.800 333.393,346.800 333.586 C 346.800 333.778,346.125 334.654,345.300 335.534 C 344.475 336.413,343.350 337.731,342.800 338.463 C 341.568 340.102,340.594 341.068,338.697 342.532 C 337.890 343.155,336.558 344.280,335.737 345.032 C 334.916 345.785,334.049 346.400,333.810 346.400 C 333.572 346.400,333.117 346.760,332.800 347.200 C 332.483 347.640,332.027 348.000,331.787 348.000 C 331.547 348.000,330.994 348.315,330.558 348.700 C 329.553 349.588,327.609 350.783,326.700 351.071 C 326.315 351.193,326.000 351.452,326.000 351.647 C 326.000 351.841,325.730 352.000,325.400 352.000 C 325.070 352.000,324.800 352.180,324.800 352.400 C 324.800 352.620,324.440 352.800,324.000 352.800 C 323.560 352.800,323.200 352.980,323.200 353.200 C 323.200 353.420,322.840 353.600,322.400 353.600 C 321.960 353.600,321.600 353.780,321.600 354.000 C 321.600 354.220,321.060 354.400,320.400 354.400 C 319.740 354.400,319.200 354.580,319.200 354.800 C 319.200 355.020,318.840 355.200,318.400 355.200 C 317.960 355.200,317.600 355.380,317.600 355.600 C 317.600 355.820,317.060 356.000,316.400 356.000 C 315.740 356.000,315.200 356.180,315.200 356.400 C 315.200 356.620,314.660 356.800,314.000 356.800 C 313.340 356.800,312.800 356.980,312.800 357.200 C 312.800 357.420,312.260 357.600,311.600 357.600 C 310.940 357.600,310.400 357.747,310.400 357.926 C 310.400 358.235,306.765 358.966,302.800 359.455 C 301.810 359.578,300.829 359.840,300.620 360.039 C 300.411 360.237,299.142 360.400,297.800 360.400 C 296.458 360.400,295.189 360.567,294.980 360.772 C 293.990 361.740,274.109 362.427,241.300 362.625 C 221.611 362.744,210.800 362.950,210.800 363.205 C 210.800 363.454,207.117 363.600,200.800 363.600 C 194.483 363.600,190.800 363.454,190.800 363.205 C 190.800 362.950,179.989 362.744,160.300 362.625 C 133.178 362.461,124.698 362.250,110.300 361.381 C 108.155 361.251,106.400 360.993,106.400 360.807 C 106.400 360.621,105.275 360.376,103.900 360.262 C 102.525 360.149,100.410 359.870,99.200 359.643 C 97.990 359.415,95.709 358.998,94.131 358.715 C 92.554 358.432,91.129 358.065,90.965 357.900 C 90.801 357.735,90.247 357.600,89.733 357.600 C 89.220 357.600,88.800 357.420,88.800 357.200 C 88.800 356.980,88.260 356.800,87.600 356.800 C 86.940 356.800,86.400 356.620,86.400 356.400 C 86.400 356.180,85.860 356.000,85.200 356.000 C 84.540 356.000,84.000 355.820,84.000 355.600 C 84.000 355.380,83.640 355.200,83.200 355.200 C 82.760 355.200,82.400 355.020,82.400 354.800 C 82.400 354.580,81.860 354.400,81.200 354.400 C 80.540 354.400,80.000 354.220,80.000 354.000 C 80.000 353.780,79.640 353.600,79.200 353.600 C 78.760 353.600,78.400 353.420,78.400 353.200 C 78.400 352.980,78.040 352.800,77.600 352.800 C 77.160 352.800,76.800 352.620,76.800 352.400 C 76.800 352.180,76.440 352.000,76.000 352.000 C 75.560 352.000,75.200 351.820,75.200 351.600 C 75.200 351.380,74.930 351.200,74.600 351.200 C 74.270 351.200,74.000 351.020,74.000 350.800 C 74.000 350.580,73.730 350.400,73.400 350.400 C 73.070 350.400,72.800 350.220,72.800 350.000 C 72.800 349.780,72.530 349.600,72.200 349.600 C 71.870 349.600,71.600 349.420,71.600 349.200 C 71.600 348.980,71.375 348.800,71.100 348.799 C 70.825 348.799,69.970 348.259,69.200 347.600 C 68.430 346.941,67.672 346.401,67.515 346.401 C 66.541 346.398,54.400 334.039,54.400 333.051 C 54.400 332.854,54.084 332.403,53.697 332.047 C 53.311 331.691,52.740 330.905,52.430 330.300 C 52.119 329.695,51.715 329.200,51.532 329.200 C 51.350 329.200,51.200 329.007,51.200 328.772 C 51.200 328.537,50.660 327.559,50.000 326.600 C 49.340 325.641,48.800 324.663,48.800 324.428 C 48.800 324.193,48.620 324.000,48.400 324.000 C 48.180 324.000,48.000 323.651,48.000 323.224 C 48.000 322.797,47.820 322.336,47.600 322.200 C 47.380 322.064,47.200 321.513,47.200 320.976 C 47.200 320.439,47.020 320.000,46.800 320.000 C 46.580 320.000,46.400 319.640,46.400 319.200 C 46.400 318.760,46.220 318.400,46.000 318.400 C 45.780 318.400,45.600 317.860,45.600 317.200 C 45.600 316.540,45.420 316.000,45.200 316.000 C 44.980 316.000,44.800 315.550,44.800 315.000 C 44.800 314.450,44.620 314.000,44.400 314.000 C 44.180 314.000,44.000 313.460,44.000 312.800 C 44.000 312.140,43.820 311.600,43.600 311.600 C 43.380 311.600,43.200 311.060,43.200 310.400 C 43.200 309.740,43.020 309.200,42.800 309.200 C 42.580 309.200,42.400 308.480,42.400 307.600 C 42.400 306.720,42.254 306.000,42.077 306.000 C 41.758 306.000,40.925 300.495,40.533 295.800 C 40.423 294.480,40.168 293.229,39.966 293.020 C 39.765 292.811,39.600 290.642,39.600 288.200 C 39.600 285.758,39.427 283.587,39.215 283.375 C 38.537 282.697,38.371 266.420,38.365 200.200 C 38.358 130.223,38.618 117.828,40.367 104.800 C 41.450 96.737,41.824 94.437,42.100 94.164 C 42.265 94.000,42.400 93.367,42.400 92.757 C 42.400 92.147,42.580 91.536,42.800 91.400 C 43.020 91.264,43.200 90.623,43.200 89.976 C 43.200 89.329,43.380 88.800,43.600 88.800 C 43.820 88.800,44.000 88.260,44.000 87.600 C 44.000 86.940,44.180 86.400,44.400 86.400 C 44.620 86.400,44.800 85.860,44.800 85.200 C 44.800 84.540,44.980 84.000,45.200 84.000 C 45.420 84.000,45.600 83.640,45.600 83.200 C 45.600 82.760,45.780 82.400,46.000 82.400 C 46.220 82.400,46.400 81.860,46.400 81.200 C 46.400 80.540,46.580 80.000,46.800 80.000 C 47.020 80.000,47.200 79.640,47.200 79.200 C 47.200 78.760,47.380 78.400,47.600 78.400 C 47.820 78.400,48.000 78.040,48.000 77.600 C 48.000 77.160,48.180 76.800,48.400 76.800 C 48.620 76.800,48.800 76.440,48.800 76.000 C 48.800 75.560,48.936 75.200,49.102 75.200 C 49.269 75.200,49.664 74.615,49.980 73.900 C 50.297 73.185,50.880 72.251,51.278 71.825 C 51.675 71.398,52.000 70.813,52.000 70.525 C 52.000 70.236,52.150 70.000,52.332 70.000 C 52.515 70.000,52.919 69.505,53.230 68.900 C 53.540 68.295,54.074 67.530,54.416 67.200 C 54.758 66.870,55.475 65.970,56.008 65.200 C 57.444 63.128,57.585 62.965,60.275 60.275 C 62.977 57.573,63.149 57.424,65.193 55.982 C 65.960 55.442,67.067 54.505,67.654 53.900 C 68.241 53.295,68.969 52.800,69.272 52.800 C 69.575 52.800,70.083 52.440,70.400 52.000 C 70.717 51.560,71.297 51.200,71.688 51.200 C 72.080 51.200,72.400 51.020,72.400 50.800 C 72.400 50.580,72.588 50.400,72.817 50.400 C 73.046 50.400,73.620 50.040,74.092 49.600 C 74.564 49.160,75.187 48.800,75.475 48.800 C 75.764 48.800,76.000 48.620,76.000 48.400 C 76.000 48.180,76.360 48.000,76.800 48.000 C 77.240 48.000,77.600 47.820,77.600 47.600 C 77.600 47.380,77.960 47.200,78.400 47.200 C 78.840 47.200,79.200 47.020,79.200 46.800 C 79.200 46.580,79.639 46.400,80.176 46.400 C 80.713 46.400,81.264 46.220,81.400 46.000 C 81.536 45.780,81.997 45.600,82.424 45.600 C 82.851 45.600,83.200 45.420,83.200 45.200 C 83.200 44.980,83.740 44.800,84.400 44.800 C 85.060 44.800,85.600 44.620,85.600 44.400 C 85.600 44.180,86.050 44.000,86.600 44.000 C 87.150 44.000,87.600 43.820,87.600 43.600 C 87.600 43.380,88.140 43.200,88.800 43.200 C 89.460 43.200,90.000 43.020,90.000 42.800 C 90.000 42.580,90.540 42.400,91.200 42.400 C 91.860 42.400,92.400 42.255,92.400 42.078 C 92.400 41.901,93.975 41.531,95.900 41.255 C 97.825 40.980,100.390 40.575,101.600 40.355 C 105.633 39.624,110.153 39.150,115.000 38.951 C 117.640 38.842,119.971 38.584,120.180 38.377 C 120.398 38.160,125.038 38.000,131.080 38.000 C 137.827 38.000,141.600 37.857,141.600 37.600 C 141.600 37.046,259.858 37.046,260.200 37.600 M303.600 68.800 C 303.600 69.020,302.700 69.200,301.600 69.200 C 300.500 69.200,299.600 69.380,299.600 69.600 C 299.600 69.820,299.328 70.000,298.995 70.000 C 298.662 70.000,297.987 70.208,297.495 70.462 C 297.003 70.717,296.330 71.049,296.000 71.200 C 294.620 71.833,293.368 72.644,292.757 73.300 C 292.399 73.685,291.988 74.000,291.843 74.000 C 291.464 74.000,288.000 77.516,288.000 77.901 C 288.000 78.078,287.640 78.483,287.200 78.800 C 286.760 79.117,286.400 79.697,286.400 80.088 C 286.400 80.480,286.220 80.800,286.000 80.800 C 285.780 80.800,285.600 81.160,285.600 81.600 C 285.600 82.040,285.420 82.400,285.200 82.400 C 284.980 82.400,284.800 82.760,284.800 83.200 C 284.800 83.640,284.620 84.000,284.400 84.000 C 284.180 84.000,284.000 84.540,284.000 85.200 C 284.000 85.860,283.820 86.400,283.600 86.400 C 283.370 86.400,283.200 87.640,283.200 89.320 C 283.200 91.058,283.006 92.434,282.720 92.720 C 282.347 93.093,282.347 93.307,282.720 93.680 C 282.999 93.959,283.200 95.298,283.200 96.880 C 283.200 98.427,283.373 99.600,283.600 99.600 C 283.820 99.600,284.000 100.129,284.000 100.776 C 284.000 101.423,284.180 102.064,284.400 102.200 C 284.620 102.336,284.800 102.887,284.800 103.424 C 284.800 103.961,284.936 104.400,285.102 104.400 C 285.269 104.400,285.640 104.932,285.928 105.581 C 286.496 106.865,292.801 113.600,293.435 113.600 C 293.648 113.600,294.083 113.960,294.400 114.400 C 294.717 114.840,295.297 115.200,295.688 115.200 C 296.080 115.200,296.400 115.380,296.400 115.600 C 296.400 115.820,296.839 116.000,297.376 116.000 C 297.913 116.000,298.464 116.180,298.600 116.400 C 298.736 116.620,299.377 116.800,300.024 116.800 C 300.671 116.800,301.200 116.980,301.200 117.200 C 301.200 117.450,303.592 117.600,307.576 117.600 C 311.396 117.600,314.052 117.440,314.200 117.200 C 314.336 116.980,314.977 116.800,315.624 116.800 C 316.271 116.800,316.800 116.620,316.800 116.400 C 316.800 116.180,317.160 116.000,317.600 116.000 C 318.040 116.000,318.400 115.820,318.400 115.600 C 318.400 115.380,318.760 115.200,319.200 115.200 C 319.640 115.200,320.000 115.020,320.000 114.800 C 320.000 114.580,320.320 114.400,320.712 114.400 C 321.103 114.400,321.683 114.040,322.000 113.600 C 322.317 113.160,322.722 112.800,322.899 112.800 C 323.429 112.800,326.800 109.263,326.800 108.707 C 326.800 108.424,327.160 107.968,327.600 107.693 C 328.040 107.418,328.400 106.925,328.400 106.597 C 328.400 106.268,328.580 106.000,328.800 106.000 C 329.020 106.000,329.200 105.730,329.200 105.400 C 329.200 105.070,329.380 104.800,329.600 104.800 C 329.820 104.800,330.000 104.528,330.000 104.195 C 330.000 103.862,330.180 103.232,330.400 102.795 C 330.620 102.358,330.980 101.642,331.200 101.205 C 331.420 100.768,331.600 99.688,331.600 98.805 C 331.600 97.922,331.780 97.200,332.000 97.200 C 332.240 97.200,332.400 95.608,332.400 93.224 C 332.400 91.004,332.223 89.138,332.000 89.000 C 331.780 88.864,331.600 88.043,331.600 87.176 C 331.600 86.309,331.420 85.600,331.200 85.600 C 330.980 85.600,330.800 85.060,330.800 84.400 C 330.800 83.740,330.620 83.200,330.400 83.200 C 330.180 83.200,330.000 82.840,330.000 82.400 C 330.000 81.960,329.820 81.600,329.600 81.600 C 329.380 81.600,329.200 81.280,329.200 80.888 C 329.200 80.497,328.840 79.917,328.400 79.600 C 327.960 79.283,327.600 78.810,327.600 78.548 C 327.600 77.945,322.835 73.200,322.229 73.200 C 321.980 73.200,321.517 72.840,321.200 72.400 C 320.883 71.960,320.303 71.600,319.912 71.600 C 319.520 71.600,319.200 71.420,319.200 71.200 C 319.200 70.980,318.840 70.800,318.400 70.800 C 317.960 70.800,317.600 70.620,317.600 70.400 C 317.600 70.180,317.060 70.000,316.400 70.000 C 315.740 70.000,315.200 69.820,315.200 69.600 C 315.200 69.380,314.491 69.200,313.624 69.200 C 312.757 69.200,311.936 69.020,311.800 68.800 C 311.662 68.577,309.796 68.400,307.576 68.400 C 305.192 68.400,303.600 68.560,303.600 68.800 M192.000 96.800 C 192.000 97.035,190.608 97.200,188.624 97.200 C 186.767 97.200,185.136 97.380,185.000 97.600 C 184.864 97.820,183.874 98.000,182.800 98.000 C 181.726 98.000,180.736 98.180,180.600 98.400 C 180.464 98.620,179.654 98.800,178.800 98.800 C 177.946 98.800,177.136 98.980,177.000 99.200 C 176.864 99.420,176.133 99.600,175.376 99.600 C 174.619 99.600,174.000 99.780,174.000 100.000 C 174.000 100.220,173.280 100.400,172.400 100.400 C 171.520 100.400,170.800 100.580,170.800 100.800 C 170.800 101.020,170.260 101.200,169.600 101.200 C 168.940 101.200,168.400 101.380,168.400 101.600 C 168.400 101.820,167.860 102.000,167.200 102.000 C 166.540 102.000,166.000 102.180,166.000 102.400 C 166.000 102.620,165.460 102.800,164.800 102.800 C 164.140 102.800,163.600 102.980,163.600 103.200 C 163.600 103.420,163.240 103.600,162.800 103.600 C 162.360 103.600,162.000 103.780,162.000 104.000 C 162.000 104.220,161.676 104.400,161.280 104.400 C 160.386 104.400,158.407 105.294,158.403 105.700 C 158.401 105.865,158.040 106.000,157.600 106.000 C 157.160 106.000,156.800 106.180,156.800 106.400 C 156.800 106.620,156.440 106.800,156.000 106.800 C 155.560 106.800,155.200 106.980,155.200 107.200 C 155.200 107.420,154.840 107.600,154.400 107.600 C 153.960 107.600,153.600 107.780,153.600 108.000 C 153.600 108.220,153.285 108.401,152.900 108.402 C 152.108 108.404,147.159 110.839,146.400 111.601 C 146.290 111.711,145.705 112.056,145.100 112.368 C 144.495 112.680,144.000 113.085,144.000 113.268 C 144.000 113.450,143.770 113.600,143.488 113.600 C 143.207 113.600,142.717 113.960,142.400 114.400 C 142.083 114.840,141.543 115.200,141.200 115.200 C 140.857 115.200,140.317 115.560,140.000 116.000 C 139.683 116.440,139.215 116.800,138.960 116.800 C 138.705 116.800,137.755 117.520,136.848 118.400 C 135.941 119.280,135.016 120.000,134.792 120.000 C 134.232 120.000,120.800 133.390,120.800 133.949 C 120.800 134.196,120.080 135.141,119.200 136.048 C 118.320 136.955,117.600 137.905,117.600 138.160 C 117.600 138.415,117.240 138.883,116.800 139.200 C 116.360 139.517,116.000 140.057,116.000 140.400 C 116.000 140.743,115.640 141.283,115.200 141.600 C 114.760 141.917,114.400 142.324,114.400 142.505 C 114.400 142.686,114.040 143.220,113.600 143.692 C 113.160 144.164,112.800 144.787,112.800 145.075 C 112.800 145.364,112.648 145.600,112.463 145.600 C 112.277 145.600,111.692 146.455,111.163 147.500 C 110.633 148.545,110.065 149.460,109.900 149.533 C 109.735 149.607,109.600 149.894,109.600 150.172 C 109.600 150.678,109.012 152.059,107.570 154.938 C 107.147 155.784,106.800 156.729,106.800 157.038 C 106.800 157.347,106.620 157.600,106.400 157.600 C 106.180 157.600,106.000 157.960,106.000 158.400 C 106.000 158.840,105.820 159.200,105.600 159.200 C 105.380 159.200,105.200 159.549,105.200 159.976 C 105.200 160.403,105.020 160.864,104.800 161.000 C 104.580 161.136,104.400 161.597,104.400 162.024 C 104.400 162.451,104.220 162.800,104.000 162.800 C 103.780 162.800,103.600 163.340,103.600 164.000 C 103.600 164.660,103.420 165.200,103.200 165.200 C 102.980 165.200,102.800 165.740,102.800 166.400 C 102.800 167.060,102.620 167.600,102.400 167.600 C 102.180 167.600,102.000 168.140,102.000 168.800 C 102.000 169.460,101.820 170.000,101.600 170.000 C 101.380 170.000,101.200 170.540,101.200 171.200 C 101.200 171.860,101.020 172.400,100.800 172.400 C 100.580 172.400,100.400 173.120,100.400 174.000 C 100.400 174.880,100.220 175.600,100.000 175.600 C 99.780 175.600,99.600 176.410,99.600 177.400 C 99.600 178.390,99.437 179.200,99.237 179.200 C 98.850 179.200,98.500 181.755,98.154 187.100 C 98.037 188.915,97.774 190.400,97.571 190.400 C 97.353 190.400,97.200 194.374,97.200 200.000 C 97.200 206.133,97.344 209.600,97.600 209.600 C 97.835 209.600,98.000 210.992,98.000 212.976 C 98.000 214.833,98.180 216.464,98.400 216.600 C 98.620 216.736,98.800 217.737,98.800 218.824 C 98.800 219.911,98.980 220.800,99.200 220.800 C 99.420 220.800,99.600 221.610,99.600 222.600 C 99.600 223.590,99.780 224.400,100.000 224.400 C 100.220 224.400,100.400 225.120,100.400 226.000 C 100.400 226.880,100.580 227.600,100.800 227.600 C 101.020 227.600,101.200 228.140,101.200 228.800 C 101.200 229.460,101.380 230.000,101.600 230.000 C 101.820 230.000,102.000 230.540,102.000 231.200 C 102.000 231.860,102.180 232.400,102.400 232.400 C 102.620 232.400,102.800 232.940,102.800 233.600 C 102.800 234.260,102.980 234.800,103.200 234.800 C 103.420 234.800,103.600 235.340,103.600 236.000 C 103.600 236.660,103.780 237.200,104.000 237.200 C 104.220 237.200,104.400 237.650,104.400 238.200 C 104.400 238.750,104.580 239.200,104.800 239.200 C 105.020 239.200,105.200 239.434,105.200 239.720 C 105.200 240.456,106.141 242.393,106.500 242.397 C 106.665 242.399,106.800 242.716,106.800 243.101 C 106.800 243.487,107.430 245.101,108.200 246.689 C 108.970 248.276,109.600 249.760,109.600 249.987 C 109.600 250.214,109.738 250.400,109.906 250.400 C 110.074 250.400,110.513 251.096,110.882 251.947 C 111.250 252.799,111.788 253.744,112.076 254.047 C 112.364 254.351,112.841 255.068,113.135 255.639 C 113.429 256.211,114.104 257.184,114.635 257.802 C 115.166 258.419,115.600 259.068,115.600 259.244 C 115.600 259.420,116.050 260.014,116.600 260.564 C 117.150 261.114,117.600 261.752,117.600 261.981 C 117.600 262.211,118.320 263.141,119.200 264.048 C 120.080 264.955,120.800 265.873,120.800 266.088 C 120.800 266.593,134.217 280.000,134.722 280.000 C 134.932 280.000,135.845 280.720,136.752 281.600 C 137.659 282.480,138.631 283.200,138.912 283.200 C 139.193 283.200,139.683 283.560,140.000 284.000 C 140.317 284.440,140.779 284.800,141.026 284.800 C 141.274 284.800,141.802 285.160,142.200 285.600 C 142.598 286.040,143.084 286.400,143.279 286.400 C 143.474 286.400,144.020 286.760,144.492 287.200 C 144.964 287.640,145.587 288.000,145.875 288.000 C 146.164 288.000,146.400 288.137,146.400 288.304 C 146.400 288.596,149.732 290.397,152.900 291.818 C 153.725 292.188,154.400 292.651,154.400 292.846 C 154.400 293.041,154.839 293.200,155.376 293.200 C 155.913 293.200,156.464 293.380,156.600 293.600 C 156.736 293.820,157.197 294.000,157.624 294.000 C 158.051 294.000,158.400 294.180,158.400 294.400 C 158.400 294.620,158.670 294.800,159.000 294.800 C 159.330 294.800,159.600 294.980,159.600 295.200 C 159.600 295.420,160.039 295.600,160.576 295.600 C 161.113 295.600,161.664 295.780,161.800 296.000 C 161.936 296.220,162.397 296.400,162.824 296.400 C 163.251 296.400,163.600 296.580,163.600 296.800 C 163.600 297.020,164.140 297.200,164.800 297.200 C 165.460 297.200,166.000 297.380,166.000 297.600 C 166.000 297.820,166.540 298.000,167.200 298.000 C 167.860 298.000,168.400 298.180,168.400 298.400 C 168.400 298.620,168.940 298.800,169.600 298.800 C 170.260 298.800,170.800 298.980,170.800 299.200 C 170.800 299.420,171.340 299.600,172.000 299.600 C 172.660 299.600,173.200 299.780,173.200 300.000 C 173.200 300.220,173.920 300.400,174.800 300.400 C 175.680 300.400,176.400 300.580,176.400 300.800 C 176.400 301.020,177.174 301.200,178.120 301.200 C 179.066 301.200,180.011 301.363,180.220 301.561 C 180.670 301.989,183.346 302.369,187.900 302.653 C 189.715 302.766,191.200 303.026,191.200 303.229 C 191.200 303.447,195.174 303.600,200.800 303.600 C 206.933 303.600,210.400 303.456,210.400 303.200 C 210.400 302.967,211.733 302.800,213.600 302.800 C 215.467 302.800,216.800 302.633,216.800 302.400 C 216.800 302.180,217.779 302.000,218.976 302.000 C 220.173 302.000,221.264 301.820,221.400 301.600 C 221.536 301.380,222.346 301.200,223.200 301.200 C 224.054 301.200,224.864 301.020,225.000 300.800 C 225.136 300.580,225.856 300.400,226.600 300.400 C 227.344 300.400,228.064 300.220,228.200 300.000 C 228.336 299.780,228.977 299.600,229.624 299.600 C 230.271 299.600,230.800 299.420,230.800 299.200 C 230.800 298.980,231.340 298.800,232.000 298.800 C 232.660 298.800,233.200 298.620,233.200 298.400 C 233.200 298.180,233.740 298.000,234.400 298.000 C 235.060 298.000,235.600 297.820,235.600 297.600 C 235.600 297.380,236.140 297.200,236.800 297.200 C 237.460 297.200,238.000 297.020,238.000 296.800 C 238.000 296.580,238.450 296.400,239.000 296.400 C 239.550 296.400,240.000 296.220,240.000 296.000 C 240.000 295.780,240.360 295.600,240.800 295.600 C 241.240 295.600,241.600 295.420,241.600 295.200 C 241.600 294.980,241.960 294.800,242.400 294.800 C 242.840 294.800,243.200 294.620,243.200 294.400 C 243.200 294.180,243.560 294.000,244.000 294.000 C 244.440 294.000,244.800 293.820,244.800 293.600 C 244.800 293.380,245.035 293.200,245.321 293.200 C 245.829 293.200,248.563 291.979,251.800 290.307 C 252.680 289.853,253.804 289.283,254.297 289.040 C 254.790 288.798,255.195 288.465,255.197 288.300 C 255.199 288.135,255.442 288.000,255.738 288.000 C 256.034 288.000,256.602 287.640,257.000 287.200 C 257.398 286.760,257.926 286.400,258.174 286.400 C 258.421 286.400,258.883 286.040,259.200 285.600 C 259.517 285.160,260.057 284.800,260.400 284.800 C 260.743 284.800,261.283 284.440,261.600 284.000 C 261.917 283.560,262.385 283.200,262.640 283.200 C 262.895 283.200,263.845 282.480,264.752 281.600 C 265.659 280.720,266.587 280.000,266.816 280.000 C 267.352 280.000,280.800 266.546,280.800 266.009 C 280.800 265.784,281.520 264.859,282.400 263.952 C 283.280 263.045,284.000 262.095,284.000 261.840 C 284.000 261.585,284.360 261.117,284.800 260.800 C 285.240 260.483,285.600 259.943,285.600 259.600 C 285.600 259.257,285.960 258.717,286.400 258.400 C 286.840 258.083,287.200 257.621,287.200 257.374 C 287.200 257.126,287.560 256.598,288.000 256.200 C 288.440 255.802,288.800 255.346,288.800 255.186 C 288.800 255.027,289.430 253.851,290.200 252.572 C 290.970 251.293,291.600 249.921,291.600 249.524 C 291.600 249.126,291.780 248.800,292.000 248.800 C 292.220 248.800,292.400 248.440,292.400 248.000 C 292.400 247.560,292.580 247.200,292.800 247.200 C 293.020 247.200,293.200 246.840,293.200 246.400 C 293.200 245.960,293.380 245.600,293.600 245.600 C 293.820 245.600,294.000 245.240,294.000 244.800 C 294.000 244.360,294.180 244.000,294.400 244.000 C 294.620 244.000,294.800 243.640,294.800 243.200 C 294.800 242.760,294.980 242.400,295.200 242.400 C 295.420 242.400,295.600 242.040,295.600 241.600 C 295.600 241.160,295.780 240.800,296.000 240.800 C 296.220 240.800,296.400 240.350,296.400 239.800 C 296.400 239.250,296.580 238.800,296.800 238.800 C 297.020 238.800,297.200 238.440,297.200 238.000 C 297.200 237.560,297.380 237.200,297.600 237.200 C 297.820 237.200,298.000 236.660,298.000 236.000 C 298.000 235.340,298.180 234.800,298.400 234.800 C 298.620 234.800,298.800 234.260,298.800 233.600 C 298.800 232.940,298.980 232.400,299.200 232.400 C 299.420 232.400,299.600 231.860,299.600 231.200 C 299.600 230.540,299.780 230.000,300.000 230.000 C 300.220 230.000,300.400 229.280,300.400 228.400 C 300.400 227.520,300.580 226.800,300.800 226.800 C 301.020 226.800,301.200 226.181,301.200 225.424 C 301.200 224.667,301.380 223.936,301.600 223.800 C 301.820 223.664,302.000 222.854,302.000 222.000 C 302.000 221.146,302.180 220.336,302.400 220.200 C 302.620 220.064,302.800 219.074,302.800 218.000 C 302.800 216.926,302.980 215.936,303.200 215.800 C 303.420 215.664,303.600 214.044,303.600 212.200 C 303.600 210.356,303.780 208.736,304.000 208.600 C 304.246 208.448,304.400 205.137,304.400 200.000 C 304.400 194.863,304.246 191.552,304.000 191.400 C 303.780 191.264,303.600 189.644,303.600 187.800 C 303.600 185.956,303.420 184.336,303.200 184.200 C 302.980 184.064,302.800 183.074,302.800 182.000 C 302.800 180.926,302.620 179.936,302.400 179.800 C 302.180 179.664,302.000 178.854,302.000 178.000 C 302.000 177.146,301.820 176.336,301.600 176.200 C 301.380 176.064,301.200 175.333,301.200 174.576 C 301.200 173.819,301.020 173.200,300.800 173.200 C 300.580 173.200,300.400 172.480,300.400 171.600 C 300.400 170.720,300.220 170.000,300.000 170.000 C 299.780 170.000,299.600 169.460,299.600 168.800 C 299.600 168.140,299.420 167.600,299.200 167.600 C 298.980 167.600,298.800 167.060,298.800 166.400 C 298.800 165.740,298.620 165.200,298.400 165.200 C 298.180 165.200,298.000 164.761,298.000 164.224 C 298.000 163.687,297.820 163.136,297.600 163.000 C 297.380 162.864,297.200 162.403,297.200 161.976 C 297.200 161.549,297.020 161.200,296.800 161.200 C 296.580 161.200,296.400 160.750,296.400 160.200 C 296.400 159.650,296.220 159.200,296.000 159.200 C 295.780 159.200,295.600 158.840,295.600 158.400 C 295.600 157.960,295.420 157.600,295.200 157.600 C 294.980 157.600,294.800 157.240,294.800 156.800 C 294.800 156.360,294.620 156.000,294.400 156.000 C 294.180 156.000,294.000 155.640,294.000 155.200 C 294.000 154.760,293.820 154.400,293.600 154.400 C 293.380 154.400,293.200 154.040,293.200 153.600 C 293.200 153.160,293.020 152.800,292.800 152.800 C 292.580 152.800,292.400 152.440,292.400 152.000 C 292.400 151.560,292.220 151.200,292.000 151.200 C 291.780 151.200,291.600 150.874,291.600 150.476 C 291.600 150.079,290.970 148.707,290.200 147.428 C 289.430 146.149,288.800 144.945,288.800 144.752 C 288.800 144.558,288.650 144.400,288.468 144.400 C 288.285 144.400,287.881 143.905,287.570 143.300 C 287.260 142.695,286.689 141.909,286.303 141.553 C 285.916 141.197,285.600 140.684,285.600 140.414 C 285.600 140.143,285.060 139.417,284.400 138.800 C 283.740 138.183,283.200 137.481,283.200 137.240 C 283.200 136.998,282.480 136.059,281.600 135.152 C 280.720 134.245,280.000 133.335,280.000 133.130 C 280.000 132.636,268.172 120.800,267.679 120.800 C 267.469 120.800,266.555 120.080,265.648 119.200 C 264.741 118.320,263.802 117.600,263.560 117.600 C 263.319 117.600,262.617 117.060,262.000 116.400 C 261.383 115.740,260.631 115.200,260.328 115.200 C 260.025 115.200,259.517 114.840,259.200 114.400 C 258.883 113.960,258.427 113.600,258.187 113.600 C 257.947 113.600,257.393 113.285,256.955 112.900 C 255.419 111.549,249.671 108.422,248.700 108.409 C 248.315 108.404,248.000 108.220,248.000 108.000 C 248.000 107.780,247.640 107.600,247.200 107.600 C 246.760 107.600,246.400 107.420,246.400 107.200 C 246.400 106.980,246.040 106.800,245.600 106.800 C 245.160 106.800,244.800 106.620,244.800 106.400 C 244.800 106.180,244.440 106.000,244.000 106.000 C 243.560 106.000,243.200 105.820,243.200 105.600 C 243.200 105.380,242.840 105.200,242.400 105.200 C 241.960 105.200,241.600 105.020,241.600 104.800 C 241.600 104.580,241.150 104.400,240.600 104.400 C 240.050 104.400,239.600 104.220,239.600 104.000 C 239.600 103.780,239.251 103.600,238.824 103.600 C 238.397 103.600,237.936 103.420,237.800 103.200 C 237.664 102.980,237.113 102.800,236.576 102.800 C 236.039 102.800,235.600 102.620,235.600 102.400 C 235.600 102.180,235.060 102.000,234.400 102.000 C 233.740 102.000,233.200 101.820,233.200 101.600 C 233.200 101.380,232.660 101.200,232.000 101.200 C 231.340 101.200,230.800 101.020,230.800 100.800 C 230.800 100.580,230.080 100.400,229.200 100.400 C 228.320 100.400,227.600 100.220,227.600 100.000 C 227.600 99.780,226.880 99.600,226.000 99.600 C 225.120 99.600,224.400 99.420,224.400 99.200 C 224.400 98.980,223.680 98.800,222.800 98.800 C 221.920 98.800,221.200 98.620,221.200 98.400 C 221.200 98.180,220.221 98.000,219.024 98.000 C 217.827 98.000,216.736 97.820,216.600 97.600 C 216.464 97.380,214.844 97.200,213.000 97.200 C 211.156 97.200,209.536 97.020,209.400 96.800 C 209.248 96.553,205.863 96.400,200.576 96.400 C 195.125 96.400,192.000 96.546,192.000 96.800 M205.400 134.400 C 205.536 134.620,206.987 134.800,208.624 134.800 C 210.341 134.800,211.600 134.969,211.600 135.200 C 211.600 135.420,212.399 135.600,213.376 135.600 C 214.353 135.600,215.264 135.780,215.400 136.000 C 215.536 136.220,216.267 136.400,217.024 136.400 C 217.781 136.400,218.400 136.580,218.400 136.800 C 218.400 137.020,218.929 137.200,219.576 137.200 C 220.223 137.200,220.864 137.380,221.000 137.600 C 221.136 137.820,221.676 138.000,222.200 138.000 C 222.724 138.000,223.264 138.180,223.400 138.400 C 223.536 138.620,224.087 138.800,224.624 138.800 C 225.161 138.800,225.600 138.980,225.600 139.200 C 225.600 139.420,225.825 139.606,226.100 139.613 C 226.375 139.619,227.500 140.068,228.600 140.609 C 229.700 141.150,230.825 141.594,231.100 141.596 C 231.375 141.598,231.600 141.780,231.600 142.000 C 231.600 142.220,231.960 142.400,232.400 142.400 C 232.840 142.400,233.200 142.580,233.200 142.800 C 233.200 143.020,233.520 143.200,233.912 143.200 C 234.303 143.200,234.883 143.560,235.200 144.000 C 235.517 144.440,236.057 144.800,236.400 144.800 C 236.743 144.800,237.283 145.160,237.600 145.600 C 237.917 146.040,238.425 146.400,238.728 146.400 C 239.031 146.400,239.783 146.940,240.400 147.600 C 241.017 148.260,241.631 148.800,241.765 148.800 C 241.899 148.800,244.079 150.870,246.609 153.400 C 249.139 155.930,251.387 158.000,251.604 158.000 C 251.822 158.000,252.000 158.288,252.000 158.640 C 252.000 158.991,252.540 159.783,253.200 160.400 C 253.860 161.017,254.400 161.769,254.400 162.072 C 254.400 162.375,254.760 162.883,255.200 163.200 C 255.640 163.517,256.000 164.057,256.000 164.400 C 256.000 164.743,256.360 165.283,256.800 165.600 C 257.240 165.917,257.600 166.497,257.600 166.888 C 257.600 167.280,257.780 167.600,258.000 167.600 C 258.220 167.600,258.402 167.915,258.405 168.300 C 258.407 168.685,258.857 169.783,259.405 170.741 C 259.952 171.698,260.400 172.733,260.400 173.041 C 260.400 173.348,260.580 173.600,260.800 173.600 C 261.020 173.600,261.200 173.960,261.200 174.400 C 261.200 174.840,261.380 175.200,261.600 175.200 C 261.820 175.200,262.000 175.740,262.000 176.400 C 262.000 177.060,262.180 177.600,262.400 177.600 C 262.620 177.600,262.800 178.039,262.800 178.576 C 262.800 179.113,262.980 179.664,263.200 179.800 C 263.420 179.936,263.600 180.577,263.600 181.224 C 263.600 181.871,263.780 182.400,264.000 182.400 C 264.220 182.400,264.400 183.019,264.400 183.776 C 264.400 184.533,264.580 185.264,264.800 185.400 C 265.020 185.536,265.200 186.447,265.200 187.424 C 265.200 188.401,265.380 189.200,265.600 189.200 C 265.831 189.200,266.000 190.459,266.000 192.176 C 266.000 193.813,266.180 195.264,266.400 195.400 C 266.627 195.540,266.800 197.530,266.800 200.000 C 266.800 202.470,266.627 204.460,266.400 204.600 C 266.180 204.736,266.000 206.176,266.000 207.800 C 266.000 209.424,265.820 210.864,265.600 211.000 C 265.380 211.136,265.200 211.946,265.200 212.800 C 265.200 213.654,265.020 214.464,264.800 214.600 C 264.580 214.736,264.400 215.467,264.400 216.224 C 264.400 216.981,264.220 217.600,264.000 217.600 C 263.780 217.600,263.600 218.129,263.600 218.776 C 263.600 219.423,263.420 220.064,263.200 220.200 C 262.980 220.336,262.800 220.876,262.800 221.400 C 262.800 221.924,262.620 222.464,262.400 222.600 C 262.180 222.736,262.000 223.287,262.000 223.824 C 262.000 224.361,261.820 224.800,261.600 224.800 C 261.380 224.800,261.200 225.046,261.200 225.347 C 261.200 225.648,260.570 227.125,259.800 228.628 C 259.030 230.132,258.400 231.595,258.400 231.881 C 258.400 232.166,258.220 232.400,258.000 232.400 C 257.780 232.400,257.600 232.720,257.600 233.112 C 257.600 233.503,257.240 234.083,256.800 234.400 C 256.360 234.717,256.000 235.257,256.000 235.600 C 256.000 235.943,255.640 236.483,255.200 236.800 C 254.760 237.117,254.400 237.625,254.400 237.928 C 254.400 238.231,253.860 238.983,253.200 239.600 C 252.540 240.217,252.000 240.899,252.000 241.116 C 252.000 241.333,250.533 242.926,248.739 244.655 C 246.946 246.385,244.700 248.565,243.750 249.500 C 242.799 250.435,241.909 251.200,241.771 251.200 C 241.633 251.200,241.017 251.740,240.400 252.400 C 239.783 253.060,239.031 253.600,238.728 253.600 C 238.425 253.600,237.917 253.960,237.600 254.400 C 237.283 254.840,236.743 255.200,236.400 255.200 C 236.057 255.200,235.517 255.560,235.200 256.000 C 234.883 256.440,234.303 256.800,233.912 256.800 C 233.520 256.800,233.200 256.936,233.200 257.102 C 233.200 257.269,232.615 257.657,231.900 257.965 C 231.185 258.273,229.711 258.947,228.625 259.463 C 227.539 259.978,226.414 260.400,226.125 260.400 C 225.836 260.400,225.600 260.547,225.600 260.728 C 225.600 260.908,224.689 261.304,223.575 261.607 C 222.461 261.910,221.460 262.303,221.351 262.479 C 221.242 262.656,220.634 262.800,220.000 262.800 C 219.366 262.800,218.736 262.980,218.600 263.200 C 218.464 263.420,217.823 263.600,217.176 263.600 C 216.529 263.600,216.000 263.780,216.000 264.000 C 216.000 264.220,215.201 264.400,214.224 264.400 C 213.247 264.400,212.336 264.580,212.200 264.800 C 212.064 265.020,210.793 265.200,209.376 265.200 C 207.925 265.200,206.800 265.375,206.800 265.600 C 206.800 265.849,204.533 266.000,200.800 266.000 C 197.067 266.000,194.800 265.849,194.800 265.600 C 194.800 265.375,193.675 265.200,192.224 265.200 C 190.807 265.200,189.536 265.020,189.400 264.800 C 189.264 264.580,188.353 264.400,187.376 264.400 C 186.399 264.400,185.600 264.220,185.600 264.000 C 185.600 263.780,184.981 263.600,184.224 263.600 C 183.467 263.600,182.736 263.420,182.600 263.200 C 182.464 262.980,181.823 262.800,181.176 262.800 C 180.529 262.800,180.000 262.620,180.000 262.400 C 180.000 262.180,179.561 262.000,179.024 262.000 C 178.487 262.000,177.936 261.820,177.800 261.600 C 177.664 261.380,177.203 261.200,176.776 261.200 C 176.349 261.200,176.000 261.020,176.000 260.800 C 176.000 260.580,175.735 260.400,175.412 260.400 C 175.088 260.400,173.840 259.950,172.637 259.400 C 171.435 258.850,170.260 258.400,170.026 258.400 C 169.792 258.400,169.600 258.220,169.600 258.000 C 169.600 257.780,169.330 257.600,169.000 257.600 C 168.670 257.600,168.400 257.420,168.400 257.200 C 168.400 256.980,168.040 256.800,167.600 256.800 C 167.160 256.800,166.800 256.620,166.800 256.400 C 166.800 256.180,166.530 256.000,166.200 256.000 C 165.870 256.000,165.600 255.820,165.600 255.600 C 165.600 255.380,165.330 255.200,165.000 255.200 C 164.670 255.200,164.400 255.050,164.400 254.868 C 164.400 254.685,163.908 254.280,163.307 253.968 C 162.706 253.655,161.689 252.905,161.048 252.300 C 160.406 251.695,159.751 251.200,159.591 251.200 C 159.188 251.200,149.038 240.909,148.837 240.297 C 148.748 240.024,148.343 239.509,147.937 239.153 C 147.532 238.797,147.200 238.347,147.199 238.153 C 147.199 237.959,146.659 237.170,146.000 236.400 C 145.341 235.630,144.801 234.775,144.801 234.500 C 144.800 234.225,144.620 234.000,144.400 234.000 C 144.180 234.000,144.000 233.640,144.000 233.200 C 144.000 232.760,143.820 232.400,143.600 232.400 C 143.380 232.400,143.200 232.130,143.200 231.800 C 143.200 231.470,143.064 231.200,142.898 231.200 C 142.599 231.200,142.059 230.125,141.194 227.806 C 140.634 226.305,139.646 224.014,139.166 223.105 C 138.965 222.723,138.800 222.048,138.800 221.605 C 138.800 221.162,138.620 220.800,138.400 220.800 C 138.180 220.800,138.000 220.271,138.000 219.624 C 138.000 218.977,137.820 218.336,137.600 218.200 C 137.380 218.064,137.200 217.333,137.200 216.576 C 137.200 215.819,137.020 215.200,136.800 215.200 C 136.580 215.200,136.400 214.401,136.400 213.424 C 136.400 212.447,136.220 211.536,136.000 211.400 C 135.780 211.264,135.600 209.993,135.600 208.576 C 135.600 207.125,135.425 206.000,135.200 206.000 C 134.952 206.000,134.800 203.808,134.800 200.224 C 134.800 196.804,134.963 194.346,135.200 194.200 C 135.420 194.064,135.600 192.804,135.600 191.400 C 135.600 189.996,135.780 188.736,136.000 188.600 C 136.220 188.464,136.400 187.553,136.400 186.576 C 136.400 185.599,136.560 184.800,136.756 184.800 C 137.093 184.800,137.210 184.351,137.832 180.700 C 137.973 179.875,138.248 179.200,138.444 179.200 C 138.640 179.200,138.800 178.838,138.800 178.395 C 138.800 177.952,138.965 177.277,139.167 176.895 C 139.925 175.462,141.172 172.451,141.425 171.444 C 141.569 170.870,141.814 170.400,141.969 170.400 C 142.124 170.400,142.498 169.770,142.800 169.000 C 143.102 168.230,143.496 167.600,143.675 167.600 C 143.854 167.600,144.000 167.240,144.000 166.800 C 144.000 166.360,144.150 166.000,144.332 166.000 C 144.515 166.000,144.919 165.505,145.230 164.900 C 145.540 164.295,146.111 163.509,146.497 163.153 C 146.884 162.797,147.200 162.301,147.200 162.049 C 147.200 161.798,147.740 161.028,148.400 160.337 C 149.060 159.646,149.600 158.970,149.600 158.833 C 149.600 158.421,159.279 148.800,159.694 148.800 C 159.906 148.800,160.583 148.260,161.200 147.600 C 161.817 146.940,162.569 146.400,162.872 146.400 C 163.175 146.400,163.683 146.040,164.000 145.600 C 164.317 145.160,164.857 144.800,165.200 144.800 C 165.543 144.800,166.083 144.440,166.400 144.000 C 166.717 143.560,167.297 143.200,167.688 143.200 C 168.080 143.200,168.400 143.020,168.400 142.800 C 168.400 142.580,168.760 142.400,169.200 142.400 C 169.640 142.400,170.000 142.220,170.000 142.000 C 170.000 141.780,170.181 141.600,170.402 141.600 C 170.623 141.600,171.737 141.150,172.877 140.600 C 174.017 140.050,175.186 139.600,175.475 139.600 C 175.764 139.600,176.000 139.420,176.000 139.200 C 176.000 138.980,176.414 138.800,176.920 138.800 C 177.426 138.800,178.011 138.651,178.220 138.470 C 178.429 138.288,179.410 137.910,180.400 137.631 C 181.390 137.351,182.513 136.960,182.895 136.761 C 183.277 136.562,184.121 136.400,184.771 136.400 C 185.421 136.400,186.064 136.220,186.200 136.000 C 186.336 135.780,187.146 135.600,188.000 135.600 C 188.854 135.600,189.664 135.420,189.800 135.200 C 189.936 134.980,191.286 134.800,192.800 134.800 C 194.314 134.800,195.664 134.620,195.800 134.400 C 195.941 134.171,197.996 134.000,200.600 134.000 C 203.204 134.000,205.259 134.171,205.400 134.400 " stroke="none" fill="#040404" fill-rule="evenodd"></path><path id="path1" d="" stroke="none" fill="#080404" fill-rule="evenodd"></path><path id="path2" d="" stroke="none" fill="#080404" fill-rule="evenodd"></path><path id="path3" d="" stroke="none" fill="#080404" fill-rule="evenodd"></path><path id="path4" d="" stroke="none" fill="#080404" fill-rule="evenodd"></path></g></svg>