<?xml version="1.0" encoding="UTF-8"?>
<svg version="1.1" xmlns="http://www.w3.org/2000/svg" width="600" height="600">
<path d="M0 0 C0.88315384 0.00202423 1.76630768 0.00404846 2.67622375 0.00613403 C3.60135269 0.00438171 4.52648163 0.00262939 5.47964478 0.00082397 C8.55365343 -0.00359611 11.62760508 -0.000656 14.70161438 0.00271606 C16.82771313 0.00204307 18.9538118 0.00107308 21.07991028 -0.00018311 C25.54219798 -0.00166029 30.00446571 0.00049514 34.4667511 0.00515747 C40.20057007 0.01085477 45.93434223 0.00757587 51.66815948 0.00158501 C56.06032161 -0.00202005 60.45247255 -0.00088228 64.84463501 0.0017128 C66.95945237 0.00238222 69.07427072 0.00155312 71.18908691 -0.00076675 C74.13925384 -0.00329237 77.08934384 0.00054603 80.039505 0.00613403 C80.92265884 0.0041098 81.80581268 0.00208557 82.71572876 0 C88.74360204 0.02126622 88.74360204 0.02126622 89.85786438 1.13552856 C90.02063165 3.70062017 90.13717068 6.25533973 90.23286438 8.82302856 C90.61844283 16.84103977 91.95233165 24.33105001 93.85786438 32.13552856 C94.09634094 33.25959106 94.3348175 34.38365356 94.58052063 35.54177856 C99.38651674 58.02228498 111.73329358 79.18212413 126.76411438 96.30740356 C130.85786438 100.98045781 130.85786438 100.98045781 130.85786438 103.13552856 C131.49723938 103.40365356 132.13661438 103.67177856 132.79536438 103.94802856 C134.85786438 105.13552856 134.85786438 105.13552856 135.85786438 108.13552856 C136.57973938 108.42427856 137.30161438 108.71302856 138.04536438 109.01052856 C141.68623874 110.46687831 143.89672607 112.56920869 146.85786438 115.13552856 C147.51786438 115.46552856 148.17786438 115.79552856 148.85786438 116.13552856 C148.85786438 116.79552856 148.85786438 117.45552856 148.85786438 118.13552856 C149.59263 118.39978638 150.32739563 118.66404419 151.08442688 118.93630981 C153.85089159 120.13251357 155.84902339 121.49541714 158.23286438 123.32302856 C164.6661503 127.93194982 171.63077571 130.99569914 178.85786438 134.13552856 C180.22491516 134.74074341 180.22491516 134.74074341 181.61958313 135.35818481 C187.86075032 138.00138445 194.25681236 139.63838275 200.85786438 141.13552856 C200.85786438 141.79552856 200.85786438 142.45552856 200.85786438 143.13552856 C204.83825561 143.42378494 208.81886786 143.70874655 212.79975891 143.99002075 C214.16535126 144.08656797 215.53091163 144.18356882 216.8964386 144.28103638 C218.88342472 144.42224351 220.87064355 144.56016389 222.85786438 144.69802856 C224.05411438 144.78181763 225.25036438 144.86560669 226.48286438 144.95193481 C229.61655159 145.1224016 232.72041411 145.16900745 235.85786438 145.13552856 C237.96473738 149.34927456 237.62583926 151.58020157 236.85786438 156.13552856 C236.77630365 158.96740706 236.74125583 161.77272695 236.76020813 164.60354614 C236.7616684 165.43186951 236.76312866 166.26019287 236.76463318 167.11361694 C236.76842422 168.90274978 236.77452488 170.69187891 236.78269958 172.48099709 C236.79549431 175.3087756 236.80198604 178.13650709 236.80683899 180.96430969 C236.81824415 186.95890387 236.83751134 192.95345898 236.85786438 198.94802856 C236.88143218 205.91162008 236.90181274 212.87518999 236.9138031 219.83881187 C236.9203093 222.63141672 236.93281282 225.42395488 236.94551086 228.21653748 C236.9491408 229.91585226 236.95249285 231.61516768 236.95552063 233.31448364 C236.96327011 234.48717049 236.96327011 234.48717049 236.97117615 235.68354797 C236.97135716 237.50126729 236.9202314 239.31887948 236.85786438 241.13552856 C235.04424412 242.94914882 232.54885872 242.30178138 230.13301086 242.32595825 C212.00190452 242.30438858 194.41220387 240.78482145 176.85786438 236.13552856 C175.97614563 235.90285278 175.09442688 235.670177 174.18598938 235.43045044 C171.38453033 234.68117752 168.58897249 233.91353896 165.79536438 233.13552856 C164.93870178 232.89866333 164.08203918 232.6617981 163.19941711 232.41775513 C157.50176828 230.77857598 152.23281342 228.6205838 146.85786438 226.13552856 C145.19413913 225.46155488 143.52811881 224.79315487 141.85786438 224.13552856 C134.05374671 220.81298342 126.59438062 216.93981424 119.14302063 212.90505981 C116.73084318 211.60575377 114.31878888 210.33823603 111.85786438 209.13552856 C111.85786438 208.47552856 111.85786438 207.81552856 111.85786438 207.13552856 C111.14243469 207.041427 110.427005 206.94732544 109.68989563 206.85037231 C106.38826908 206.01699623 104.31135522 204.66905315 101.54536438 202.69802856 C100.66235657 202.08056763 99.77934875 201.46310669 98.86958313 200.82693481 C97.87378235 199.98968872 97.87378235 199.98968872 96.85786438 199.13552856 C96.85786438 198.47552856 96.85786438 197.81552856 96.85786438 197.13552856 C95.99161438 196.94990356 95.99161438 196.94990356 95.10786438 196.76052856 C92.83450671 196.12904032 90.93251148 195.24694666 88.85786438 194.13552856 C89.18786438 195.12552856 89.51786438 196.11552856 89.85786438 197.13552856 C89.956401 200.08989283 89.996895 203.02065615 89.99157715 205.97518921 C89.9938427 206.89005183 89.99610826 207.80491445 89.99844247 208.74750018 C90.00479425 211.82639993 90.00395232 214.90525579 90.00312805 217.98416138 C90.00611902 220.18683937 90.0095214 222.38951683 90.01330566 224.5921936 C90.02216136 230.58870244 90.02448458 236.58519702 90.02512145 242.58171177 C90.02583166 246.33088136 90.02796553 250.08004731 90.03061867 253.829216 C90.03940236 266.24178945 90.04403773 278.65435594 90.04328819 291.06693211 C90.04322826 292.07106802 90.04322826 292.07106802 90.04316711 293.0954895 C90.04312623 293.76573728 90.04308535 294.43598506 90.04304323 295.12654337 C90.0426378 305.96059904 90.05217967 316.79461978 90.06630548 327.62866536 C90.080713 338.7673665 90.08739054 349.90605328 90.0867117 361.04476428 C90.08645742 367.29219037 90.08926967 373.53957704 90.09988976 379.78699493 C90.10962213 385.67371032 90.10961485 391.56034906 90.10237312 397.44706726 C90.10133329 399.59837202 90.10365412 401.74968167 90.10973358 403.90097809 C90.1820346 431.27780276 85.14877368 457.44494085 72.85786438 482.13552856 C72.19786438 482.13552856 71.53786438 482.13552856 70.85786438 482.13552856 C70.74571594 482.85482544 70.6335675 483.57412231 70.51802063 484.31521606 C66.11498808 503.12580482 45.17072922 524.84774532 30.85786438 537.13552856 C30.19786438 537.13552856 29.53786438 537.13552856 28.85786438 537.13552856 C28.85786438 537.79552856 28.85786438 538.45552856 28.85786438 539.13552856 C25.39632592 542.13552856 25.39632592 542.13552856 22.85786438 542.13552856 C22.85786438 542.79552856 22.85786438 543.45552856 22.85786438 544.13552856 C20.29639868 546.43201506 19.37818866 547.13552856 15.85786438 547.13552856 C15.52786438 548.12552856 15.19786438 549.11552856 14.85786438 550.13552856 C12.86328535 551.65620762 10.91515044 552.99912816 8.79536438 554.32302856 C8.1799176 554.71377563 7.56447083 555.10452271 6.93037415 555.5071106 C0.94396725 559.22788349 -5.29936566 562.35685842 -11.64604187 565.40896606 C-15.05055248 567.02631359 -15.05055248 567.02631359 -17.79057312 568.74880981 C-22.24117707 571.3733354 -27.23636232 572.59150097 -32.14213562 574.13552856 C-33.54622095 574.61732255 -34.94984187 575.10047143 -36.35307312 575.58474731 C-69.19437023 586.56900633 -110.19615228 589.1669676 -143.14213562 577.13552856 C-144.99098608 576.61621556 -146.84444911 576.1126451 -148.70463562 575.63552856 C-154.69602596 574.02502949 -160.33011542 572.09894667 -165.86869812 569.29177856 C-166.56600037 568.93994507 -167.26330261 568.58811157 -167.98173523 568.22561646 C-168.69466736 567.86588745 -169.40759949 567.50615845 -170.14213562 567.13552856 C-171.51006412 566.45601247 -172.87854761 565.77761238 -174.24760437 565.10037231 C-175.60828145 564.42459106 -176.96895854 563.74880981 -178.32963562 563.07302856 C-179.01477234 562.73464966 -179.69990906 562.39627075 -180.4058075 562.04763794 C-187.24805733 558.64297657 -193.28306713 554.62652317 -199.42338562 550.07302856 C-202.05339507 548.12873723 -202.05339507 548.12873723 -204.67338562 546.69802856 C-207.60915353 544.83994761 -209.73169037 542.63443052 -212.14213562 540.13552856 C-214.09254312 538.333926 -216.04937311 536.54280785 -218.01713562 534.76052856 C-231.00918271 522.8780941 -231.00918271 522.8780941 -233.14213562 517.13552856 C-235.15883389 516.00202323 -235.15883389 516.00202323 -237.14213562 515.13552856 C-237.63713562 513.65052856 -237.63713562 513.65052856 -238.14213562 512.13552856 C-239.11300731 511.10722503 -240.11639763 510.10911039 -241.14213562 509.13552856 C-245.29319072 504.20542391 -248.51715322 498.9277071 -251.50932312 493.23318481 C-252.66792047 491.03517596 -253.86476675 488.85713896 -255.08744812 486.69412231 C-259.91345844 478.10723977 -263.49238425 469.45263568 -266.51029968 460.08132935 C-267.06897475 458.36083463 -267.66164996 456.65146138 -268.25932312 454.94412231 C-279.29190993 422.14569565 -278.32590568 387.14839898 -269.14213562 354.13552856 C-268.66260437 352.31601685 -268.66260437 352.31601685 -268.17338562 350.45974731 C-265.08396059 339.06126385 -260.58110288 328.59686135 -255.14213562 318.13552856 C-254.48213562 318.13552856 -253.82213562 318.13552856 -253.14213562 318.13552856 C-252.95651062 317.02177856 -252.95651062 317.02177856 -252.76713562 315.88552856 C-252.18726861 313.33411372 -251.40504823 311.40877126 -250.14213562 309.13552856 C-249.48213562 309.13552856 -248.82213562 309.13552856 -248.14213562 309.13552856 C-247.83276062 307.92896606 -247.83276062 307.92896606 -247.51713562 306.69802856 C-245.21214475 300.72600676 -241.68248319 295.62639006 -237.14213562 291.13552856 C-236.48213562 290.14552856 -235.82213562 289.15552856 -235.14213562 288.13552856 C-234.48213562 288.13552856 -233.82213562 288.13552856 -233.14213562 288.13552856 C-232.90881531 287.587677 -232.675495 287.03982544 -232.43510437 286.47537231 C-227.80920257 278.10402736 -219.32730041 271.19025647 -212.20463562 264.94802856 C-211.24714417 264.10123535 -211.24714417 264.10123535 -210.27030945 263.23733521 C-209.35801575 262.45410889 -209.35801575 262.45410889 -208.42729187 261.65505981 C-207.88983337 261.19204468 -207.35237488 260.72902954 -206.79862976 260.25198364 C-204.93702776 258.99728859 -203.33404575 258.55387299 -201.14213562 258.13552856 C-201.14213562 257.47552856 -201.14213562 256.81552856 -201.14213562 256.13552856 C-199.21540478 254.78651918 -197.22231326 253.53178619 -195.20463562 252.32302856 C-194.60997498 251.96555542 -194.01531433 251.60808228 -193.40263367 251.23977661 C-177.10922747 241.4963065 -160.33107533 233.67755511 -142.14213562 228.13552856 C-140.94463684 227.76016968 -140.94463684 227.76016968 -139.72294617 227.37722778 C-132.24064479 225.16466407 -124.83139032 224.251598 -117.07963562 223.51052856 C-114.67175334 223.27164631 -112.26417962 223.02962599 -109.85697937 222.78396606 C-108.80631287 222.68261353 -107.75564636 222.58126099 -106.67314148 222.47683716 C-104.15351581 222.27608097 -104.15351581 222.27608097 -102.14213562 221.13552856 C-99.29860741 221.03727657 -96.4851152 220.99652374 -93.64213562 221.01052856 C-92.85709656 221.00666138 -92.0720575 221.00279419 -91.26322937 220.99880981 C-85.39544349 221.00887463 -85.39544349 221.00887463 -83.14213562 222.13552856 C-79.51534542 222.3677316 -75.8950075 222.53085472 -72.26322937 222.65310669 C-66.35604931 222.92161487 -66.35604931 222.92161487 -64.14213562 225.13552856 C-63.97152861 228.24108488 -63.93639407 231.25307617 -63.98588562 234.35818481 C-63.99398254 235.35616592 -64.00207947 236.35414703 -64.01042175 237.38237 C-64.04328482 240.96695512 -64.09263598 244.55113552 -64.14213562 248.13552856 C-64.16806908 250.31061095 -64.19273664 252.48570579 -64.21740723 254.66080284 C-64.32915588 264.44692526 -64.46531816 274.23265527 -64.60569763 284.0184021 C-64.66719929 288.33021429 -64.72684388 292.64205219 -64.78666687 296.95388794 C-64.90338768 305.34779366 -65.0220917 313.74166971 -65.14213562 322.13552856 C-68.62225644 321.66312805 -72.10103416 321.18147996 -75.57963562 320.69802856 C-77.0694696 320.49596802 -77.0694696 320.49596802 -78.58940125 320.28982544 C-79.53363953 320.15769653 -80.47787781 320.02556763 -81.45072937 319.88943481 C-82.32527771 319.76898804 -83.19982605 319.64854126 -84.10087585 319.52444458 C-86.14213562 319.13552856 -86.14213562 319.13552856 -87.14213562 318.13552856 C-93.89509478 317.58913965 -100.35983035 318.44216213 -106.95463562 319.82302856 C-107.82048279 320.00091919 -108.68632996 320.17880981 -109.57841492 320.36209106 C-122.64777686 323.18080629 -133.85153438 328.26596248 -144.32963562 336.57302856 C-145.2335907 337.27008911 -145.2335907 337.27008911 -146.1558075 337.98123169 C-149.67836525 340.75365091 -152.35185126 343.60116837 -155.14213562 347.13552856 C-155.80213562 347.13552856 -156.46213562 347.13552856 -157.14213562 347.13552856 C-157.38447937 347.66533325 -157.62682312 348.19513794 -157.87651062 348.74099731 C-159.16724577 351.18303634 -160.65967642 353.4223326 -162.2141571 355.70266724 C-175.72697243 375.72403859 -179.05505448 398.31782442 -175.14213562 422.07302856 C-173.17345864 430.42133329 -169.33402636 437.71910649 -165.14213562 445.13552856 C-164.59557312 446.13584106 -164.04901062 447.13615356 -163.48588562 448.16677856 C-158.6538518 456.40965979 -151.5487284 464.89451927 -143.27494812 469.85427856 C-142.57112 470.27709106 -141.86729187 470.69990356 -141.14213562 471.13552856 C-141.14213562 471.79552856 -141.14213562 472.45552856 -141.14213562 473.13552856 C-140.25526062 473.40365356 -139.36838562 473.67177856 -138.45463562 473.94802856 C-135.33727389 475.06557334 -132.95840981 476.42458906 -130.14213562 478.13552856 C-114.23169548 486.51082626 -95.0823641 490.58158708 -77.30229187 486.18630981 C-76.25944031 485.839552 -75.21658875 485.49279419 -74.14213562 485.13552856 C-72.28853705 484.73704344 -70.43438135 484.34113968 -68.57963562 483.94802856 C-54.40304535 480.403881 -40.88104808 472.2841355 -31.62651062 460.93630981 C-30.14213562 459.13552856 -30.14213562 459.13552856 -27.51713562 456.63552856 C-24.89212192 453.87235624 -23.12865561 451.01079668 -21.25541687 447.70974731 C-20.88803406 447.19025513 -20.52065125 446.67076294 -20.14213562 446.13552856 C-19.48213562 446.13552856 -18.82213562 446.13552856 -18.14213562 446.13552856 C-16.65713562 441.18552856 -16.65713562 441.18552856 -15.14213562 436.13552856 C-14.48213562 436.13552856 -13.82213562 436.13552856 -13.14213562 436.13552856 C-13.02096375 435.41107544 -12.89979187 434.68662231 -12.77494812 433.94021606 C-11.88745391 428.82005714 -10.78604766 424.06726468 -9.14213562 419.13552856 C-8.37604507 413.96295514 -8.01518785 408.98855232 -8.00626373 403.7508173 C-8.00372111 403.04965293 -8.00117849 402.34848856 -7.99855882 401.62607679 C-7.99127036 399.28904898 -7.99096434 396.95207437 -7.99064636 394.61503601 C-7.9867934 392.9176751 -7.98250539 391.22031513 -7.97782087 389.52295631 C-7.96621186 384.86831708 -7.96070413 380.21368763 -7.95618606 375.55903685 C-7.95022555 370.53592754 -7.938561 365.51283116 -7.92755127 360.48973083 C-7.90921897 351.78979903 -7.89436688 343.08986692 -7.8817749 334.389925 C-7.86347538 321.81020352 -7.83881192 309.23050057 -7.812401 296.65079378 C-7.7696273 276.2392172 -7.73050483 255.82763553 -7.69438171 235.41604614 C-7.69221891 234.19468041 -7.69005611 232.97331467 -7.68782777 231.71493786 C-7.6702996 221.80069258 -7.65294963 211.88644699 -7.63562489 201.97220135 C-7.6204588 193.2956052 -7.60522745 184.61900917 -7.58988953 175.94241333 C-7.58773066 174.72041233 -7.58557179 173.49841134 -7.5833475 172.23938001 C-7.54728629 151.8955012 -7.50734101 131.55163182 -7.46458673 111.207766 C-7.43838842 98.65167657 -7.4157398 86.09559005 -7.39760315 73.53948634 C-7.38497136 64.94741997 -7.3688587 56.35536481 -7.34995401 47.76330996 C-7.33915967 42.79920189 -7.33005436 37.83510474 -7.32525826 32.87098694 C-7.32085029 28.33461753 -7.31193824 23.79828102 -7.29931504 19.26192724 C-7.29555514 17.61344113 -7.29351685 15.9649501 -7.29329485 14.31645972 C-7.29275978 12.09071788 -7.28619746 9.86507665 -7.27800751 7.63935184 C-7.27589154 6.39858546 -7.27377557 5.15781908 -7.27159548 3.87945372 C-7.03235601 -1.19127021 -4.45574849 0.0157198 0 0 Z " fill="#050505" transform="translate(319.1421356201172,7.864471435546875)"/>
<path d="M0 0 C0.66 0.33 1.32 0.66 2 1 C-16.76321024 21.72720981 -16.76321024 21.72720981 -22 24 C-20.38360813 20.12065951 -17.76463322 17.28503194 -14.9375 14.25 C-14.2108313 13.46254395 -14.2108313 13.46254395 -13.46948242 12.65917969 C-9.24098508 8.13679659 -4.74247489 3.98133694 0 0 Z " fill="#979797" transform="translate(108,272)"/>
<path d="M0 0 C0.78503906 -0.01224609 1.57007813 -0.02449219 2.37890625 -0.03710938 C4.42063726 -0.04236254 6.46192251 0.0652982 8.5 0.1875 C9.16 0.8475 9.82 1.5075 10.5 2.1875 C0.1510926 2.83793638 -10.1265501 3.35244885 -20.5 3.1875 C-20.5 2.8575 -20.5 2.5275 -20.5 2.1875 C-19.45199219 2.09662109 -19.45199219 2.09662109 -18.3828125 2.00390625 C-17.47273437 1.92011719 -16.56265625 1.83632812 -15.625 1.75 C-14.72007812 1.66878906 -13.81515625 1.58757812 -12.8828125 1.50390625 C-1.56678617 0.00128636 -1.56678617 0.00128636 0 0 Z " fill="#E1E1E1" transform="translate(225.5,228.8125)"/>
</svg>
