<svg id="svg" version="1.1" xmlns="http://www.w3.org/2000/svg" xmlns:xlink="http://www.w3.org/1999/xlink" width="400" height="400" viewBox="0, 0, 400,400"><g id="svgg"><path id="path0" d="M3.600 0.600 C 3.600 0.930,3.750 1.200,3.932 1.200 C 4.115 1.200,4.519 1.695,4.830 2.300 C 5.140 2.905,5.711 3.691,6.097 4.047 C 6.484 4.403,6.800 4.922,6.800 5.200 C 6.800 5.478,7.134 5.997,7.543 6.353 C 7.951 6.709,8.413 7.405,8.570 7.900 C 8.726 8.395,9.000 8.800,9.178 8.800 C 9.357 8.800,9.727 9.340,10.000 10.000 C 10.273 10.660,10.643 11.200,10.822 11.200 C 11.000 11.200,11.253 11.538,11.384 11.951 C 11.516 12.364,12.067 13.219,12.611 13.851 C 13.154 14.483,13.599 15.185,13.600 15.412 C 13.600 15.638,13.960 16.083,14.400 16.400 C 14.840 16.717,15.200 17.257,15.200 17.600 C 15.200 17.943,15.560 18.483,16.000 18.800 C 16.440 19.117,16.800 19.657,16.800 20.000 C 16.800 20.343,17.160 20.883,17.600 21.200 C 18.040 21.517,18.400 22.007,18.400 22.288 C 18.400 22.570,18.580 22.800,18.800 22.800 C 19.020 22.800,19.200 23.070,19.200 23.400 C 19.200 23.730,19.380 24.000,19.600 24.000 C 19.820 24.000,20.000 24.230,20.000 24.512 C 20.000 24.793,20.360 25.283,20.800 25.600 C 21.240 25.917,21.600 26.362,21.601 26.588 C 21.601 26.815,22.141 27.630,22.800 28.400 C 23.459 29.170,23.999 30.025,23.999 30.300 C 24.000 30.575,24.153 30.800,24.339 30.800 C 24.526 30.800,25.003 31.520,25.400 32.400 C 25.797 33.280,26.252 34.000,26.412 34.000 C 26.572 34.000,26.927 34.540,27.200 35.200 C 27.473 35.860,27.825 36.400,27.981 36.400 C 28.137 36.400,28.520 36.892,28.832 37.494 C 29.393 38.575,29.735 39.041,31.500 41.134 C 31.994 41.720,32.399 42.385,32.400 42.612 C 32.400 42.838,32.760 43.283,33.200 43.600 C 33.640 43.917,34.000 44.457,34.000 44.800 C 34.000 45.143,34.360 45.683,34.800 46.000 C 35.240 46.317,35.600 46.857,35.600 47.200 C 35.600 47.543,35.960 48.083,36.400 48.400 C 36.840 48.717,37.200 49.257,37.200 49.600 C 37.200 49.943,37.560 50.483,38.000 50.800 C 38.440 51.117,38.800 51.562,38.801 51.788 C 38.801 52.015,39.341 52.830,40.000 53.600 C 40.659 54.370,41.199 55.225,41.199 55.500 C 41.200 55.775,41.339 56.000,41.509 56.000 C 41.679 56.000,42.157 56.630,42.572 57.400 C 42.987 58.170,43.478 58.800,43.663 58.800 C 43.848 58.800,44.000 59.036,44.000 59.325 C 44.000 59.613,44.315 60.198,44.700 60.625 C 45.085 61.051,45.655 61.895,45.968 62.500 C 46.280 63.105,46.685 63.600,46.868 63.600 C 47.050 63.600,47.200 63.825,47.201 64.100 C 47.201 64.375,47.741 65.230,48.400 66.000 C 49.059 66.770,49.599 67.585,49.599 67.812 C 49.600 68.038,49.960 68.483,50.400 68.800 C 50.840 69.117,51.200 69.631,51.200 69.941 C 51.200 70.252,51.516 70.797,51.903 71.153 C 52.289 71.509,52.860 72.295,53.170 72.900 C 53.481 73.505,53.885 74.000,54.068 74.000 C 54.250 74.000,54.400 74.230,54.400 74.512 C 54.400 74.793,54.760 75.283,55.200 75.600 C 55.640 75.917,56.000 76.431,56.000 76.741 C 56.000 77.052,56.317 77.597,56.706 77.953 C 57.094 78.309,57.764 79.275,58.196 80.100 C 58.628 80.925,59.121 81.600,59.291 81.600 C 59.461 81.600,59.600 81.836,59.600 82.125 C 59.600 82.413,59.915 82.998,60.300 83.425 C 60.685 83.851,61.255 84.695,61.568 85.300 C 61.880 85.905,62.285 86.400,62.468 86.400 C 62.650 86.400,62.800 86.636,62.800 86.925 C 62.800 87.213,63.120 87.798,63.512 88.225 C 63.903 88.651,64.848 89.900,65.612 91.000 C 66.375 92.100,67.315 93.291,67.700 93.647 C 68.085 94.003,68.400 94.548,68.400 94.859 C 68.400 95.169,68.760 95.683,69.200 96.000 C 69.640 96.317,70.000 96.857,70.000 97.200 C 70.000 97.543,70.360 98.083,70.800 98.400 C 71.240 98.717,71.600 99.231,71.600 99.541 C 71.600 99.852,71.916 100.397,72.303 100.753 C 72.689 101.109,73.260 101.895,73.570 102.500 C 73.881 103.105,74.285 103.600,74.468 103.600 C 74.650 103.600,74.800 103.808,74.800 104.062 C 74.800 104.316,75.250 105.114,75.800 105.836 C 76.350 106.557,76.800 107.299,76.800 107.485 C 76.800 107.671,77.160 108.083,77.600 108.400 C 78.040 108.717,78.400 109.257,78.400 109.600 C 78.400 109.943,78.760 110.483,79.200 110.800 C 79.640 111.117,80.000 111.657,80.000 112.000 C 80.000 112.343,80.360 112.883,80.800 113.200 C 81.240 113.517,81.600 113.962,81.601 114.188 C 81.601 114.415,82.141 115.230,82.800 116.000 C 83.459 116.770,83.999 117.585,83.999 117.812 C 84.000 118.038,84.360 118.483,84.800 118.800 C 85.240 119.117,85.600 119.631,85.600 119.941 C 85.600 120.252,85.916 120.797,86.303 121.153 C 86.689 121.509,87.260 122.295,87.570 122.900 C 87.881 123.505,88.285 124.000,88.468 124.000 C 88.650 124.000,88.800 124.230,88.800 124.512 C 88.800 124.793,89.160 125.283,89.600 125.600 C 90.040 125.917,90.400 126.431,90.400 126.741 C 90.400 127.052,90.715 127.597,91.100 127.953 C 91.485 128.309,92.143 129.275,92.563 130.100 C 92.983 130.925,93.478 131.600,93.663 131.600 C 93.848 131.600,94.000 131.836,94.000 132.125 C 94.000 132.413,94.315 132.998,94.700 133.425 C 95.085 133.851,95.655 134.695,95.968 135.300 C 96.280 135.905,96.685 136.400,96.868 136.400 C 97.050 136.400,97.200 136.636,97.200 136.925 C 97.200 137.213,97.560 137.836,98.000 138.308 C 98.440 138.780,98.800 139.354,98.800 139.583 C 98.800 139.812,98.941 140.000,99.114 140.000 C 99.286 140.000,99.721 140.495,100.079 141.100 C 100.437 141.705,101.196 142.740,101.765 143.400 C 102.334 144.060,102.799 144.785,102.800 145.012 C 102.800 145.238,103.160 145.683,103.600 146.000 C 104.040 146.317,104.400 146.857,104.400 147.200 C 104.400 147.543,104.760 148.083,105.200 148.400 C 105.640 148.717,106.000 149.257,106.000 149.600 C 106.000 149.943,106.360 150.483,106.800 150.800 C 107.240 151.117,107.600 151.682,107.600 152.055 C 107.600 152.428,107.753 152.793,107.940 152.867 C 108.230 152.980,109.420 154.648,111.000 157.154 C 111.220 157.503,111.715 158.082,112.100 158.441 C 112.485 158.800,112.800 159.348,112.800 159.659 C 112.800 159.969,113.160 160.483,113.600 160.800 C 114.040 161.117,114.400 161.657,114.400 162.000 C 114.400 162.343,114.760 162.883,115.200 163.200 C 115.640 163.517,116.000 163.962,116.001 164.188 C 116.001 164.415,116.541 165.230,117.200 166.000 C 117.859 166.770,118.399 167.625,118.399 167.900 C 118.400 168.175,118.550 168.400,118.732 168.400 C 118.915 168.400,119.319 168.895,119.630 169.500 C 119.940 170.105,120.467 170.870,120.800 171.200 C 121.133 171.530,121.660 172.295,121.970 172.900 C 122.281 173.505,122.685 174.000,122.868 174.000 C 123.050 174.000,123.200 174.230,123.200 174.512 C 123.200 174.793,123.560 175.283,124.000 175.600 C 124.440 175.917,124.800 176.497,124.800 176.888 C 124.800 177.280,124.958 177.600,125.151 177.600 C 125.345 177.600,125.736 178.163,126.021 178.852 C 126.307 179.540,126.958 180.522,127.470 181.034 C 127.981 181.545,128.400 182.202,128.400 182.494 C 128.400 182.785,128.760 183.283,129.200 183.600 C 129.640 183.917,130.000 184.431,130.000 184.741 C 130.000 185.052,130.316 185.597,130.703 185.953 C 131.089 186.309,131.660 187.095,131.970 187.700 C 132.281 188.305,132.685 188.800,132.868 188.800 C 133.050 188.800,133.200 189.070,133.200 189.400 C 133.200 189.730,133.350 190.000,133.532 190.000 C 133.715 190.000,134.120 190.492,134.432 191.093 C 134.745 191.694,135.495 192.711,136.100 193.352 C 136.705 193.994,137.200 194.722,137.200 194.971 C 137.200 195.220,137.560 195.683,138.000 196.000 C 138.440 196.317,138.800 196.857,138.800 197.200 C 138.800 197.543,139.160 198.083,139.600 198.400 C 140.040 198.717,140.400 199.257,140.400 199.600 C 140.400 199.943,140.760 200.483,141.200 200.800 C 141.640 201.117,142.000 201.598,142.000 201.869 C 142.000 202.453,145.451 207.517,146.483 208.447 C 146.877 208.803,147.200 209.348,147.200 209.659 C 147.200 209.969,147.560 210.483,148.000 210.800 C 148.440 211.117,148.800 211.657,148.800 212.000 C 148.800 212.343,149.160 212.883,149.600 213.200 C 150.040 213.517,150.400 214.057,150.400 214.400 C 150.400 214.743,150.760 215.283,151.200 215.600 C 151.640 215.917,152.000 216.362,152.001 216.588 C 152.001 216.815,152.541 217.630,153.200 218.400 C 153.859 219.170,154.399 219.985,154.399 220.212 C 154.400 220.438,154.760 220.883,155.200 221.200 C 156.428 222.085,156.196 222.660,153.600 225.169 C 152.280 226.444,151.200 227.602,151.200 227.741 C 151.200 227.881,150.120 229.092,148.800 230.432 C 147.480 231.773,146.400 233.030,146.400 233.226 C 146.400 233.421,145.444 234.568,144.277 235.774 C 143.109 236.980,141.894 238.466,141.577 239.077 C 141.259 239.689,139.965 241.192,138.700 242.419 C 137.435 243.646,136.400 244.785,136.400 244.951 C 136.400 245.116,135.500 246.129,134.400 247.200 C 133.300 248.271,132.400 249.316,132.400 249.520 C 132.400 249.725,131.390 250.944,130.155 252.229 C 128.920 253.514,127.618 255.023,127.261 255.583 C 126.904 256.142,125.889 257.381,125.007 258.336 C 124.124 259.291,123.042 260.535,122.601 261.101 C 122.160 261.667,120.855 263.087,119.700 264.256 C 118.545 265.426,117.600 266.537,117.600 266.727 C 117.600 266.916,116.430 268.306,115.000 269.815 C 113.570 271.325,112.400 272.689,112.400 272.847 C 112.400 273.005,111.725 273.846,110.900 274.715 C 108.945 276.774,107.600 278.357,107.600 278.600 C 107.600 278.707,106.520 279.892,105.200 281.232 C 103.880 282.573,102.800 283.833,102.800 284.032 C 102.800 284.232,101.720 285.492,100.400 286.832 C 99.080 288.173,97.996 289.479,97.991 289.735 C 97.987 289.991,97.339 290.740,96.553 291.400 C 95.766 292.060,94.384 293.590,93.481 294.800 C 92.579 296.010,91.156 297.661,90.320 298.469 C 89.484 299.276,88.800 300.110,88.800 300.322 C 88.800 300.534,87.630 301.912,86.200 303.385 C 84.770 304.858,83.600 306.208,83.600 306.384 C 83.600 306.561,82.565 307.777,81.300 309.086 C 80.035 310.395,78.336 312.262,77.524 313.233 C 76.712 314.205,75.587 315.540,75.024 316.200 C 74.462 316.860,74.001 317.545,74.000 317.722 C 74.000 317.899,72.920 319.104,71.600 320.400 C 70.280 321.696,69.200 322.951,69.200 323.190 C 69.200 323.429,68.120 324.665,66.800 325.937 C 65.480 327.209,64.400 328.378,64.400 328.535 C 64.400 328.692,63.593 329.628,62.607 330.614 C 61.620 331.601,60.497 332.901,60.110 333.504 C 59.109 335.064,58.805 335.433,56.900 337.413 C 55.965 338.384,55.200 339.335,55.200 339.526 C 55.200 339.717,54.075 341.058,52.700 342.506 C 47.902 347.559,46.564 349.047,45.606 350.391 C 44.655 351.727,43.056 353.596,41.300 355.426 C 40.805 355.942,40.400 356.548,40.400 356.774 C 40.400 357.000,39.321 358.223,38.002 359.493 C 36.683 360.762,35.603 361.947,35.602 362.126 C 35.601 362.305,34.740 363.295,33.689 364.326 C 32.638 365.357,31.339 366.822,30.802 367.583 C 30.266 368.344,29.056 369.771,28.113 370.755 C 27.171 371.738,26.400 372.699,26.400 372.891 C 26.400 373.082,25.521 374.117,24.447 375.191 C 23.374 376.264,22.072 377.737,21.556 378.462 C 21.039 379.187,19.578 380.836,18.308 382.125 C 17.039 383.415,16.000 384.638,16.000 384.844 C 16.000 385.049,15.010 386.207,13.800 387.417 C 12.590 388.627,11.600 389.779,11.600 389.977 C 11.600 390.175,10.835 391.126,9.900 392.091 C 7.986 394.067,6.800 395.499,6.800 395.836 C 6.800 395.961,6.080 396.754,5.200 397.600 C 2.599 400.099,1.915 400.000,21.857 400.000 L 40.113 400.000 41.257 398.804 C 41.886 398.146,42.400 397.416,42.400 397.181 C 42.400 396.947,43.480 395.696,44.800 394.400 C 46.120 393.104,47.200 391.950,47.200 391.835 C 47.200 391.720,48.280 390.505,49.600 389.135 C 50.920 387.765,52.000 386.503,52.000 386.331 C 52.000 386.159,52.990 384.996,54.200 383.747 C 55.410 382.498,56.400 381.351,56.400 381.199 C 56.400 380.761,59.726 376.903,63.405 373.072 C 64.288 372.152,65.449 370.783,65.984 370.029 C 66.519 369.274,67.911 367.671,69.078 366.466 C 70.245 365.261,71.200 364.138,71.200 363.970 C 71.200 363.803,71.918 362.886,72.796 361.933 C 75.680 358.802,76.000 358.431,76.000 358.217 C 76.000 358.101,77.080 356.908,78.400 355.568 C 79.720 354.227,80.800 352.954,80.800 352.739 C 80.800 352.524,81.660 351.505,82.711 350.474 C 83.762 349.443,85.065 347.970,85.606 347.200 C 86.147 346.430,87.357 345.030,88.295 344.089 C 89.233 343.149,90.000 342.239,90.000 342.068 C 90.000 341.896,91.080 340.635,92.400 339.265 C 93.720 337.895,94.800 336.624,94.800 336.441 C 94.800 336.258,96.060 334.799,97.600 333.200 C 99.140 331.601,100.400 330.125,100.400 329.920 C 100.400 329.716,101.261 328.705,102.314 327.674 C 103.367 326.643,104.492 325.422,104.814 324.960 C 105.136 324.499,106.345 323.073,107.500 321.791 C 108.655 320.510,109.600 319.302,109.600 319.108 C 109.600 318.914,110.680 317.696,112.000 316.400 C 113.320 315.104,114.400 313.844,114.400 313.600 C 114.400 313.356,115.480 312.096,116.800 310.800 C 118.120 309.504,119.200 308.347,119.200 308.229 C 119.200 308.111,120.028 307.156,121.040 306.107 C 122.052 305.058,123.429 303.408,124.100 302.441 C 124.771 301.473,126.193 299.790,127.260 298.700 C 128.327 297.611,129.200 296.553,129.200 296.351 C 129.200 296.148,130.145 295.015,131.300 293.833 C 133.957 291.114,137.426 287.226,138.266 286.027 C 138.925 285.087,140.683 283.059,142.300 281.374 C 142.795 280.858,143.200 280.238,143.200 279.996 C 143.200 279.754,144.280 278.496,145.600 277.200 C 146.920 275.904,148.000 274.733,148.000 274.596 C 148.000 274.460,148.860 273.505,149.911 272.474 C 150.962 271.443,152.261 269.978,152.798 269.217 C 153.334 268.456,154.514 267.060,155.420 266.114 C 156.326 265.169,157.322 263.901,157.634 263.298 C 157.945 262.694,159.235 261.175,160.500 259.922 C 161.765 258.669,162.800 257.533,162.800 257.396 C 162.800 257.260,163.700 256.271,164.800 255.200 C 165.900 254.129,166.800 253.060,166.800 252.826 C 166.800 252.592,166.980 252.400,167.200 252.400 C 167.420 252.400,167.600 252.216,167.600 251.991 C 167.600 251.767,168.590 250.593,169.800 249.383 C 171.010 248.173,172.000 247.007,172.000 246.791 C 172.000 246.576,172.270 246.400,172.600 246.400 C 172.930 246.400,173.200 246.720,173.200 247.112 C 173.200 247.503,173.560 248.083,174.000 248.400 C 174.440 248.717,174.800 249.201,174.800 249.475 C 174.800 250.074,179.848 257.528,180.876 258.447 C 181.274 258.803,181.600 259.348,181.600 259.659 C 181.600 259.969,181.960 260.483,182.400 260.800 C 182.840 261.117,183.200 261.657,183.200 262.000 C 183.200 262.343,183.560 262.883,184.000 263.200 C 184.440 263.517,184.800 264.057,184.800 264.400 C 184.800 264.743,185.160 265.283,185.600 265.600 C 186.040 265.917,186.400 266.362,186.401 266.588 C 186.401 266.815,186.941 267.630,187.600 268.400 C 188.259 269.170,188.799 270.025,188.799 270.300 C 188.800 270.575,188.950 270.800,189.132 270.800 C 189.315 270.800,189.719 271.295,190.030 271.900 C 190.340 272.505,190.885 273.270,191.240 273.600 C 191.595 273.930,192.013 274.605,192.170 275.100 C 192.326 275.595,192.600 276.000,192.778 276.000 C 192.957 276.000,193.327 276.540,193.600 277.200 C 193.873 277.860,194.255 278.400,194.449 278.400 C 194.642 278.400,194.800 278.625,194.801 278.900 C 194.801 279.175,195.341 280.030,196.000 280.800 C 196.659 281.570,197.199 282.385,197.199 282.612 C 197.200 282.838,197.560 283.283,198.000 283.600 C 198.440 283.917,198.800 284.431,198.800 284.741 C 198.800 285.052,199.116 285.597,199.503 285.953 C 199.889 286.309,200.460 287.095,200.770 287.700 C 201.081 288.305,201.485 288.800,201.668 288.800 C 201.850 288.800,202.000 289.070,202.000 289.400 C 202.000 289.730,202.150 290.000,202.332 290.000 C 202.515 290.000,202.919 290.495,203.230 291.100 C 203.540 291.705,204.111 292.491,204.497 292.847 C 204.884 293.203,205.200 293.653,205.201 293.847 C 205.201 294.041,205.741 294.830,206.400 295.600 C 207.059 296.370,207.599 297.225,207.599 297.500 C 207.600 297.775,207.753 298.000,207.939 298.000 C 208.126 298.000,208.603 298.720,209.000 299.600 C 209.397 300.480,209.862 301.200,210.034 301.200 C 210.206 301.200,210.460 301.559,210.599 301.998 C 210.738 302.436,211.074 303.021,211.345 303.298 C 211.616 303.574,212.452 304.700,213.202 305.800 C 213.953 306.900,214.889 308.149,215.283 308.575 C 215.678 309.002,216.000 309.547,216.000 309.787 C 216.000 310.027,216.360 310.483,216.800 310.800 C 217.240 311.117,217.600 311.657,217.600 312.000 C 217.600 312.343,217.960 312.883,218.400 313.200 C 218.840 313.517,219.200 314.057,219.200 314.400 C 219.200 314.743,219.560 315.283,220.000 315.600 C 220.440 315.917,220.800 316.457,220.800 316.800 C 220.800 317.143,221.160 317.683,221.600 318.000 C 222.040 318.317,222.400 318.762,222.401 318.988 C 222.401 319.215,222.941 320.030,223.600 320.800 C 224.259 321.570,224.799 322.347,224.799 322.527 C 224.800 322.919,226.874 325.744,227.300 325.933 C 227.465 326.007,227.600 326.288,227.600 326.558 C 227.600 326.828,227.915 327.398,228.300 327.825 C 228.685 328.251,229.255 329.095,229.568 329.700 C 229.880 330.305,230.285 330.800,230.468 330.800 C 230.650 330.800,230.800 331.025,230.801 331.300 C 230.801 331.575,231.341 332.430,232.000 333.200 C 232.659 333.970,233.199 334.785,233.199 335.012 C 233.200 335.238,233.560 335.683,234.000 336.000 C 234.440 336.317,234.800 336.857,234.800 337.200 C 234.800 337.543,235.160 338.083,235.600 338.400 C 236.040 338.717,236.400 339.179,236.400 339.426 C 236.400 339.674,236.760 340.202,237.200 340.600 C 237.640 340.998,238.000 341.526,238.000 341.774 C 238.000 342.021,238.360 342.483,238.800 342.800 C 239.240 343.117,239.600 343.631,239.600 343.941 C 239.600 344.252,239.917 344.797,240.306 345.153 C 240.694 345.509,241.364 346.475,241.796 347.300 C 242.228 348.125,242.721 348.800,242.891 348.800 C 243.061 348.800,243.200 349.036,243.200 349.325 C 243.200 349.613,243.515 350.198,243.900 350.625 C 244.285 351.051,244.855 351.895,245.168 352.500 C 245.480 353.105,245.885 353.600,246.068 353.600 C 246.250 353.600,246.400 353.825,246.400 354.100 C 246.401 354.375,246.806 355.080,247.300 355.666 C 249.319 358.060,249.558 358.375,250.032 359.268 C 250.303 359.781,250.857 360.491,251.263 360.847 C 251.668 361.203,252.000 361.748,252.000 362.059 C 252.000 362.369,252.360 362.883,252.800 363.200 C 253.240 363.517,253.600 364.057,253.600 364.400 C 253.600 364.743,253.960 365.283,254.400 365.600 C 254.840 365.917,255.200 366.431,255.200 366.741 C 255.200 367.052,255.516 367.597,255.903 367.953 C 256.289 368.309,256.860 369.095,257.170 369.700 C 257.481 370.305,257.885 370.800,258.068 370.800 C 258.250 370.800,258.400 371.008,258.400 371.262 C 258.400 371.516,258.850 372.314,259.400 373.036 C 259.950 373.757,260.400 374.499,260.400 374.685 C 260.400 374.871,260.760 375.283,261.200 375.600 C 261.640 375.917,262.000 376.457,262.000 376.800 C 262.000 377.143,262.360 377.683,262.800 378.000 C 263.240 378.317,263.600 378.857,263.600 379.200 C 263.600 379.543,263.960 380.083,264.400 380.400 C 264.840 380.717,265.200 381.162,265.201 381.388 C 265.201 381.615,265.741 382.430,266.400 383.200 C 267.059 383.970,267.599 384.785,267.599 385.012 C 267.600 385.238,267.960 385.683,268.400 386.000 C 268.840 386.317,269.200 386.831,269.200 387.141 C 269.200 387.452,269.516 387.997,269.903 388.353 C 270.289 388.709,270.860 389.495,271.170 390.100 C 271.481 390.705,271.885 391.200,272.068 391.200 C 272.250 391.200,272.400 391.430,272.400 391.712 C 272.400 391.993,272.760 392.483,273.200 392.800 C 273.640 393.117,274.000 393.697,274.000 394.088 C 274.000 394.480,274.142 394.800,274.316 394.800 C 274.490 394.800,275.158 395.700,275.800 396.800 C 276.442 397.900,277.110 398.800,277.284 398.800 C 277.458 398.800,277.600 399.070,277.600 399.400 C 277.600 399.931,284.467 400.000,337.000 400.000 C 389.533 400.000,396.400 399.931,396.400 399.400 C 396.400 399.070,396.220 398.800,396.000 398.800 C 395.780 398.800,395.600 398.530,395.600 398.200 C 395.600 397.870,395.420 397.600,395.200 397.600 C 394.980 397.600,394.800 397.330,394.800 397.000 C 394.800 396.670,394.650 396.400,394.468 396.400 C 394.285 396.400,393.881 395.905,393.570 395.300 C 393.260 394.695,392.715 393.930,392.360 393.600 C 392.005 393.270,391.587 392.595,391.430 392.100 C 391.274 391.605,390.978 391.200,390.773 391.200 C 390.568 391.200,390.400 390.964,390.400 390.675 C 390.400 390.387,390.040 389.764,389.600 389.292 C 389.160 388.820,388.800 388.291,388.800 388.117 C 388.799 387.943,388.349 387.277,387.800 386.638 C 387.250 385.999,386.800 385.332,386.800 385.156 C 386.800 384.980,386.350 384.386,385.800 383.836 C 385.250 383.286,384.800 382.598,384.800 382.306 C 384.800 382.015,384.440 381.517,384.000 381.200 C 383.560 380.883,383.200 380.369,383.200 380.059 C 383.200 379.748,382.884 379.203,382.497 378.847 C 382.111 378.491,381.540 377.705,381.230 377.100 C 380.919 376.495,380.515 376.000,380.332 376.000 C 380.150 376.000,380.000 375.770,380.000 375.488 C 380.000 375.207,379.640 374.717,379.200 374.400 C 378.760 374.083,378.400 373.638,378.399 373.412 C 378.399 373.185,377.859 372.370,377.200 371.600 C 376.541 370.830,376.001 369.975,376.001 369.700 C 376.000 369.425,375.847 369.200,375.661 369.200 C 375.474 369.200,374.997 368.480,374.600 367.600 C 374.203 366.720,373.726 366.000,373.539 366.000 C 373.353 366.000,373.200 365.764,373.200 365.475 C 373.200 365.187,372.840 364.564,372.400 364.092 C 371.960 363.620,371.597 363.091,371.593 362.917 C 371.586 362.621,370.660 361.407,368.500 358.861 C 368.006 358.277,367.601 357.615,367.600 357.388 C 367.600 357.162,367.240 356.717,366.800 356.400 C 366.360 356.083,366.000 355.543,366.000 355.200 C 366.000 354.857,365.640 354.317,365.200 354.000 C 364.760 353.683,364.400 353.143,364.400 352.800 C 364.400 352.457,364.040 351.917,363.600 351.600 C 363.160 351.283,362.800 350.743,362.800 350.400 C 362.800 350.057,362.440 349.517,362.000 349.200 C 361.560 348.883,361.200 348.438,361.199 348.212 C 361.199 347.985,360.659 347.170,360.000 346.400 C 359.341 345.630,358.801 344.775,358.801 344.500 C 358.800 344.225,358.661 344.000,358.491 344.000 C 358.321 344.000,357.843 343.370,357.428 342.600 C 357.013 341.830,356.522 341.200,356.337 341.200 C 356.152 341.200,356.000 340.964,356.000 340.675 C 356.000 340.387,355.685 339.802,355.300 339.375 C 354.915 338.949,354.345 338.105,354.032 337.500 C 353.720 336.895,353.315 336.400,353.132 336.400 C 352.950 336.400,352.800 336.175,352.799 335.900 C 352.799 335.625,352.259 334.770,351.600 334.000 C 350.941 333.230,350.401 332.415,350.401 332.188 C 350.400 331.962,350.040 331.517,349.600 331.200 C 349.160 330.883,348.800 330.369,348.800 330.059 C 348.800 329.748,348.484 329.203,348.097 328.847 C 347.711 328.491,347.140 327.705,346.830 327.100 C 346.519 326.495,346.115 326.000,345.932 326.000 C 345.750 326.000,345.600 325.770,345.600 325.488 C 345.600 325.207,345.240 324.717,344.800 324.400 C 344.360 324.083,344.000 323.569,344.000 323.259 C 344.000 322.948,343.683 322.403,343.294 322.047 C 342.906 321.691,342.236 320.725,341.804 319.900 C 341.372 319.075,340.879 318.400,340.709 318.400 C 340.539 318.400,340.400 318.164,340.400 317.875 C 340.400 317.587,340.085 317.002,339.700 316.575 C 339.315 316.149,338.745 315.305,338.432 314.700 C 338.120 314.095,337.715 313.600,337.532 313.600 C 337.350 313.600,337.200 313.364,337.200 313.075 C 337.200 312.787,336.840 312.164,336.400 311.692 C 335.960 311.220,335.600 310.646,335.600 310.417 C 335.600 310.188,335.459 310.000,335.286 310.000 C 335.114 310.000,334.651 309.455,334.257 308.789 C 333.864 308.123,333.105 307.141,332.571 306.607 C 332.037 306.073,331.600 305.398,331.600 305.106 C 331.600 304.815,331.240 304.317,330.800 304.000 C 330.360 303.683,330.000 303.143,330.000 302.800 C 330.000 302.457,329.640 301.917,329.200 301.600 C 328.760 301.283,328.400 300.769,328.400 300.459 C 328.400 300.148,328.084 299.603,327.697 299.247 C 327.311 298.891,326.740 298.105,326.430 297.500 C 326.119 296.895,325.715 296.400,325.532 296.400 C 325.350 296.400,325.200 296.192,325.200 295.938 C 325.200 295.684,324.750 294.886,324.200 294.164 C 323.650 293.443,323.200 292.701,323.200 292.515 C 323.200 292.329,322.840 291.917,322.400 291.600 C 321.960 291.283,321.600 290.743,321.600 290.400 C 321.600 290.057,321.240 289.517,320.800 289.200 C 320.360 288.883,320.000 288.369,320.000 288.059 C 320.000 287.748,319.684 287.203,319.297 286.847 C 318.911 286.491,318.340 285.705,318.030 285.100 C 317.719 284.495,317.315 284.000,317.132 284.000 C 316.950 284.000,316.800 283.730,316.800 283.400 C 316.800 283.070,316.620 282.800,316.400 282.800 C 316.180 282.800,316.000 282.530,316.000 282.200 C 316.000 281.870,315.850 281.600,315.668 281.600 C 315.485 281.600,315.081 281.105,314.770 280.500 C 314.460 279.895,313.933 279.130,313.600 278.800 C 313.267 278.470,312.740 277.705,312.430 277.100 C 312.119 276.495,311.715 276.000,311.532 276.000 C 311.350 276.000,311.200 275.770,311.200 275.488 C 311.200 275.207,310.840 274.717,310.400 274.400 C 309.960 274.083,309.600 273.543,309.600 273.200 C 309.600 272.857,309.240 272.317,308.800 272.000 C 308.360 271.683,308.000 271.146,308.000 270.808 C 308.000 270.469,307.550 269.707,307.000 269.113 C 306.450 268.520,306.000 267.797,306.000 267.506 C 306.000 267.215,305.640 266.717,305.200 266.400 C 304.760 266.083,304.400 265.627,304.400 265.387 C 304.400 265.147,304.085 264.602,303.700 264.175 C 303.315 263.749,302.745 262.905,302.432 262.300 C 302.120 261.695,301.715 261.200,301.532 261.200 C 301.350 261.200,301.200 260.930,301.200 260.600 C 301.200 260.270,301.059 260.000,300.886 260.000 C 300.714 260.000,300.279 259.505,299.921 258.900 C 299.563 258.295,298.804 257.260,298.235 256.600 C 297.666 255.940,297.201 255.215,297.200 254.988 C 297.200 254.762,296.840 254.317,296.400 254.000 C 295.960 253.683,295.600 253.143,295.600 252.800 C 295.600 252.457,295.240 251.917,294.800 251.600 C 294.360 251.283,294.000 250.743,294.000 250.400 C 294.000 250.057,293.640 249.517,293.200 249.200 C 292.760 248.883,292.400 248.318,292.400 247.945 C 292.400 247.572,292.247 247.207,292.060 247.133 C 291.770 247.020,290.580 245.352,289.000 242.846 C 288.780 242.497,288.285 241.918,287.900 241.559 C 287.515 241.200,287.200 240.652,287.200 240.341 C 287.200 240.031,286.840 239.517,286.400 239.200 C 285.960 238.883,285.600 238.343,285.600 238.000 C 285.600 237.657,285.240 237.117,284.800 236.800 C 284.360 236.483,284.000 235.943,284.000 235.600 C 284.000 235.257,283.640 234.717,283.200 234.400 C 282.760 234.083,282.400 233.638,282.399 233.412 C 282.399 233.185,281.859 232.370,281.200 231.600 C 280.541 230.830,280.001 230.041,280.001 229.847 C 280.000 229.653,279.684 229.203,279.297 228.847 C 278.911 228.491,278.340 227.705,278.030 227.100 C 277.719 226.495,277.315 226.000,277.132 226.000 C 276.950 226.000,276.800 225.770,276.800 225.488 C 276.800 225.207,276.440 224.717,276.000 224.400 C 275.560 224.083,275.200 223.601,275.200 223.329 C 275.200 222.749,273.580 220.183,272.414 218.914 C 271.966 218.427,271.600 217.792,271.600 217.503 C 271.600 217.213,271.240 216.717,270.800 216.400 C 270.360 216.083,270.000 215.569,270.000 215.259 C 270.000 214.948,269.684 214.403,269.297 214.047 C 268.911 213.691,268.340 212.905,268.030 212.300 C 267.719 211.695,267.315 211.200,267.132 211.200 C 266.950 211.200,266.800 210.930,266.800 210.600 C 266.800 210.270,266.650 210.000,266.468 210.000 C 266.285 210.000,265.880 209.508,265.568 208.907 C 265.255 208.306,264.505 207.289,263.900 206.648 C 263.295 206.006,262.800 205.278,262.800 205.029 C 262.800 204.780,262.440 204.317,262.000 204.000 C 261.560 203.683,261.200 203.143,261.200 202.800 C 261.200 202.457,260.840 201.917,260.400 201.600 C 259.960 201.283,259.600 200.743,259.600 200.400 C 259.600 200.057,259.240 199.517,258.800 199.200 C 258.360 198.883,258.000 198.402,258.000 198.131 C 258.000 197.547,254.549 192.483,253.517 191.553 C 253.123 191.197,252.800 190.652,252.800 190.341 C 252.800 190.031,252.440 189.517,252.000 189.200 C 251.560 188.883,251.200 188.343,251.200 188.000 C 251.200 187.657,250.840 187.117,250.400 186.800 C 249.960 186.483,249.600 185.943,249.600 185.600 C 249.600 185.257,249.240 184.717,248.800 184.400 C 248.360 184.083,248.000 183.638,247.999 183.412 C 247.999 183.185,247.459 182.370,246.800 181.600 C 246.141 180.830,245.601 180.015,245.601 179.788 C 245.600 179.562,245.240 179.117,244.800 178.800 C 244.360 178.483,244.000 177.943,244.000 177.600 C 244.000 177.257,243.640 176.717,243.200 176.400 C 242.760 176.083,242.400 175.593,242.400 175.312 C 242.400 175.030,242.247 174.800,242.061 174.800 C 241.874 174.800,241.397 174.080,241.000 173.200 C 240.603 172.320,240.155 171.600,240.003 171.600 C 239.852 171.600,239.519 171.140,239.262 170.577 C 238.610 169.146,239.036 168.426,243.100 164.088 C 244.035 163.089,244.800 162.117,244.800 161.928 C 244.800 161.738,245.745 160.606,246.900 159.411 C 250.916 155.259,252.635 153.355,253.608 151.981 C 254.146 151.222,255.130 150.043,255.793 149.361 C 257.727 147.376,258.800 146.025,258.800 145.575 C 258.800 145.344,259.880 144.096,261.200 142.800 C 262.520 141.504,263.600 140.346,263.600 140.225 C 263.600 140.104,264.680 138.908,266.000 137.568 C 267.320 136.227,268.400 134.962,268.400 134.756 C 268.400 134.551,269.390 133.393,270.600 132.183 C 271.810 130.973,272.800 129.834,272.800 129.653 C 272.800 129.471,273.168 128.890,273.617 128.361 C 275.870 125.710,278.410 122.900,280.300 120.966 C 281.455 119.784,282.400 118.633,282.400 118.409 C 282.400 118.184,282.580 118.000,282.800 118.000 C 283.020 118.000,283.200 117.816,283.200 117.591 C 283.200 117.367,284.190 116.193,285.400 114.983 C 286.610 113.773,287.600 112.621,287.600 112.424 C 287.600 112.227,288.275 111.354,289.100 110.485 C 291.055 108.426,292.400 106.843,292.400 106.600 C 292.400 106.493,293.480 105.308,294.800 103.968 C 296.120 102.627,297.200 101.354,297.200 101.139 C 297.200 100.924,298.060 99.905,299.111 98.874 C 300.162 97.843,301.461 96.370,301.998 95.600 C 302.535 94.830,303.616 93.570,304.401 92.800 C 305.186 92.030,306.362 90.686,307.014 89.813 C 307.666 88.941,309.055 87.347,310.100 86.273 C 311.145 85.198,312.000 84.158,312.000 83.962 C 312.000 83.766,313.080 82.508,314.400 81.168 C 315.720 79.827,316.800 78.562,316.800 78.356 C 316.800 78.151,317.745 77.023,318.900 75.849 C 320.055 74.676,321.566 73.015,322.258 72.158 C 322.949 71.301,324.074 70.017,324.758 69.304 C 325.441 68.591,326.000 67.816,326.000 67.581 C 326.000 67.347,327.080 66.096,328.400 64.800 C 329.720 63.504,330.800 62.270,330.800 62.057 C 330.800 61.844,331.880 60.573,333.200 59.232 C 334.520 57.892,335.600 56.707,335.600 56.599 C 335.600 56.492,336.459 55.526,337.510 54.453 C 338.560 53.381,339.955 51.721,340.610 50.765 C 341.264 49.809,342.655 48.148,343.700 47.073 C 344.745 45.998,345.600 44.947,345.600 44.737 C 345.600 44.527,346.680 43.296,348.000 42.000 C 349.320 40.704,350.400 39.548,350.400 39.431 C 350.400 39.314,351.390 38.196,352.600 36.947 C 353.810 35.698,354.800 34.543,354.800 34.380 C 354.800 34.218,355.295 33.541,355.900 32.876 C 358.955 29.522,359.600 28.745,359.600 28.421 C 359.600 28.228,360.680 26.973,362.000 25.632 C 363.320 24.292,364.400 23.094,364.400 22.971 C 364.400 22.849,365.260 21.905,366.311 20.874 C 367.362 19.843,368.665 18.370,369.206 17.600 C 369.747 16.830,370.912 15.445,371.795 14.523 C 373.825 12.403,374.174 11.970,374.804 10.792 C 375.086 10.265,376.191 8.983,377.258 7.943 C 378.326 6.903,379.200 5.951,379.200 5.829 C 379.200 5.706,380.280 4.508,381.600 3.168 C 382.920 1.827,384.000 0.566,384.000 0.365 C 384.000 0.150,376.433 -0.000,365.613 -0.000 L 347.227 -0.000 345.815 1.412 C 345.038 2.188,344.089 3.313,343.705 3.912 C 342.709 5.463,342.403 5.835,340.500 7.813 C 339.565 8.784,338.800 9.685,338.800 9.815 C 338.800 9.946,337.940 10.895,336.889 11.926 C 335.838 12.957,334.539 14.430,334.002 15.200 C 333.465 15.970,332.384 17.230,331.600 18.000 C 330.816 18.770,329.733 20.030,329.194 20.800 C 328.654 21.570,327.670 22.761,327.007 23.447 C 326.343 24.133,325.440 25.202,325.000 25.824 C 324.560 26.446,323.255 27.906,322.100 29.069 C 320.945 30.231,320.000 31.367,320.000 31.591 C 320.000 31.816,319.820 32.000,319.600 32.000 C 319.380 32.000,319.200 32.179,319.200 32.397 C 319.200 32.616,318.120 33.892,316.800 35.232 C 315.480 36.573,314.400 37.848,314.400 38.066 C 314.400 38.284,313.721 39.124,312.892 39.931 C 312.063 40.739,310.668 42.300,309.792 43.400 C 308.916 44.500,307.743 45.850,307.185 46.400 C 306.626 46.950,305.731 48.030,305.196 48.800 C 304.660 49.570,303.362 51.043,302.311 52.074 C 301.260 53.105,300.400 54.119,300.400 54.328 C 300.400 54.536,299.275 55.877,297.900 57.307 C 296.525 58.737,294.825 60.603,294.122 61.453 C 293.419 62.304,292.294 63.630,291.623 64.400 C 290.951 65.170,290.401 65.934,290.401 66.097 C 290.400 66.261,289.320 67.492,288.000 68.832 C 286.680 70.173,285.600 71.438,285.600 71.644 C 285.600 71.849,284.655 72.985,283.500 74.169 C 280.195 77.554,276.948 81.260,275.800 82.957 C 275.221 83.813,274.039 85.194,273.173 86.025 C 272.308 86.857,271.600 87.710,271.600 87.922 C 271.600 88.134,270.427 89.543,268.994 91.054 C 263.722 96.610,262.951 97.465,261.994 98.819 C 261.457 99.578,260.653 100.585,260.209 101.056 C 258.007 103.386,256.800 104.866,256.800 105.236 C 256.800 105.460,255.720 106.704,254.400 108.000 C 253.080 109.296,252.000 110.454,252.000 110.575 C 252.000 110.696,250.920 111.892,249.600 113.232 C 248.280 114.573,247.200 115.833,247.200 116.033 C 247.200 116.233,246.290 117.326,245.177 118.462 C 244.065 119.598,242.881 121.056,242.547 121.703 C 242.212 122.350,241.008 123.842,239.869 125.019 C 235.903 129.122,234.164 131.046,233.207 132.390 C 232.677 133.134,231.289 134.729,230.122 135.934 C 228.955 137.139,228.000 138.257,228.000 138.420 C 228.000 138.582,227.505 139.259,226.900 139.924 C 224.018 143.089,223.200 144.044,223.200 144.242 C 223.200 145.449,221.988 145.475,221.252 144.284 C 220.806 143.563,219.982 142.439,219.421 141.786 C 218.860 141.134,218.401 140.415,218.400 140.188 C 218.400 139.962,218.040 139.517,217.600 139.200 C 217.160 138.883,216.800 138.343,216.800 138.000 C 216.800 137.657,216.440 137.117,216.000 136.800 C 215.560 136.483,215.200 135.969,215.200 135.659 C 215.200 135.348,214.884 134.803,214.497 134.447 C 214.111 134.091,213.540 133.305,213.230 132.700 C 212.919 132.095,212.515 131.600,212.332 131.600 C 212.150 131.600,212.000 131.330,212.000 131.000 C 212.000 130.670,211.820 130.400,211.600 130.400 C 211.380 130.400,211.200 130.130,211.200 129.800 C 211.200 129.470,211.050 129.200,210.868 129.200 C 210.685 129.200,210.281 128.705,209.970 128.100 C 209.660 127.495,209.115 126.730,208.760 126.400 C 208.405 126.070,207.987 125.395,207.830 124.900 C 207.674 124.405,207.378 124.000,207.173 124.000 C 206.968 124.000,206.800 123.764,206.800 123.475 C 206.800 123.187,206.440 122.564,206.000 122.092 C 205.560 121.620,205.200 121.091,205.200 120.917 C 205.199 120.743,204.749 120.077,204.200 119.438 C 203.650 118.799,203.200 118.132,203.200 117.956 C 203.200 117.780,202.750 117.186,202.200 116.636 C 201.650 116.086,201.200 115.398,201.200 115.106 C 201.200 114.815,200.840 114.317,200.400 114.000 C 199.960 113.683,199.600 113.143,199.600 112.800 C 199.600 112.457,199.240 111.917,198.800 111.600 C 198.360 111.283,198.000 110.793,198.000 110.512 C 198.000 110.230,197.850 110.000,197.668 110.000 C 197.485 110.000,197.081 109.505,196.770 108.900 C 196.460 108.295,195.889 107.509,195.503 107.153 C 195.116 106.797,194.800 106.347,194.799 106.153 C 194.799 105.959,194.259 105.170,193.600 104.400 C 192.941 103.630,192.401 102.775,192.401 102.500 C 192.400 102.225,192.247 102.000,192.061 102.000 C 191.874 102.000,191.397 101.280,191.000 100.400 C 190.603 99.520,190.126 98.800,189.939 98.800 C 189.753 98.800,189.600 98.564,189.600 98.275 C 189.600 97.987,189.240 97.364,188.800 96.892 C 188.360 96.420,188.000 95.846,188.000 95.617 C 188.000 95.388,187.820 95.200,187.600 95.200 C 187.380 95.200,187.200 95.022,187.200 94.805 C 187.200 94.587,186.885 94.032,186.500 93.571 C 186.115 93.110,185.395 92.253,184.900 91.666 C 184.406 91.080,184.001 90.415,184.000 90.188 C 184.000 89.962,183.640 89.517,183.200 89.200 C 182.760 88.883,182.400 88.343,182.400 88.000 C 182.400 87.657,182.040 87.117,181.600 86.800 C 181.160 86.483,180.800 85.943,180.800 85.600 C 180.800 85.257,180.440 84.717,180.000 84.400 C 179.560 84.083,179.200 83.543,179.200 83.200 C 179.200 82.857,178.840 82.317,178.400 82.000 C 177.960 81.683,177.600 81.238,177.599 81.012 C 177.599 80.785,177.059 79.970,176.400 79.200 C 175.741 78.430,175.201 77.653,175.201 77.473 C 175.200 77.081,173.126 74.256,172.700 74.067 C 172.535 73.993,172.400 73.654,172.400 73.314 C 172.400 72.973,172.084 72.403,171.697 72.047 C 171.311 71.691,170.740 70.905,170.430 70.300 C 170.119 69.695,169.715 69.200,169.532 69.200 C 169.350 69.200,169.200 68.975,169.199 68.700 C 169.199 68.425,168.659 67.570,168.000 66.800 C 167.341 66.030,166.801 65.215,166.801 64.988 C 166.800 64.762,166.440 64.317,166.000 64.000 C 165.560 63.683,165.200 63.143,165.200 62.800 C 165.200 62.457,164.840 61.917,164.400 61.600 C 163.960 61.283,163.600 60.821,163.600 60.574 C 163.600 60.326,163.240 59.798,162.800 59.400 C 162.360 59.002,162.000 58.474,162.000 58.226 C 162.000 57.979,161.640 57.517,161.200 57.200 C 160.760 56.883,160.400 56.369,160.400 56.059 C 160.400 55.748,160.083 55.203,159.694 54.847 C 159.306 54.491,158.636 53.525,158.204 52.700 C 157.772 51.875,157.279 51.200,157.109 51.200 C 156.939 51.200,156.800 50.964,156.800 50.675 C 156.800 50.387,156.485 49.802,156.100 49.375 C 155.715 48.949,155.145 48.105,154.832 47.500 C 154.520 46.895,154.115 46.400,153.932 46.400 C 153.750 46.400,153.600 46.164,153.600 45.875 C 153.600 45.587,153.240 44.964,152.800 44.492 C 152.360 44.020,152.000 43.486,152.000 43.305 C 152.000 43.124,151.640 42.717,151.200 42.400 C 150.760 42.083,150.400 41.620,150.400 41.371 C 150.400 41.122,149.860 40.354,149.200 39.663 C 148.540 38.972,148.000 38.175,148.000 37.892 C 148.000 37.609,147.640 37.117,147.200 36.800 C 146.760 36.483,146.400 35.943,146.400 35.600 C 146.400 35.257,146.040 34.717,145.600 34.400 C 145.160 34.083,144.800 33.569,144.800 33.259 C 144.800 32.948,144.484 32.403,144.097 32.047 C 143.711 31.691,143.140 30.905,142.830 30.300 C 142.519 29.695,142.115 29.200,141.932 29.200 C 141.750 29.200,141.600 28.992,141.600 28.738 C 141.600 28.484,141.150 27.686,140.600 26.964 C 140.050 26.243,139.600 25.501,139.600 25.315 C 139.600 25.129,139.240 24.717,138.800 24.400 C 138.360 24.083,138.000 23.543,138.000 23.200 C 138.000 22.857,137.640 22.317,137.200 22.000 C 136.760 21.683,136.400 21.169,136.400 20.859 C 136.400 20.548,136.084 20.003,135.697 19.647 C 135.311 19.291,134.740 18.505,134.430 17.900 C 134.119 17.295,133.715 16.800,133.532 16.800 C 133.350 16.800,133.200 16.530,133.200 16.200 C 133.200 15.870,133.020 15.600,132.800 15.600 C 132.580 15.600,132.400 15.330,132.400 15.000 C 132.400 14.670,132.250 14.400,132.068 14.400 C 131.885 14.400,131.481 13.905,131.170 13.300 C 130.860 12.695,130.333 11.930,130.000 11.600 C 129.667 11.270,129.140 10.505,128.830 9.900 C 128.519 9.295,128.115 8.800,127.932 8.800 C 127.750 8.800,127.600 8.570,127.600 8.288 C 127.600 8.007,127.240 7.517,126.800 7.200 C 126.360 6.883,126.000 6.303,126.000 5.912 C 126.000 5.520,125.841 5.200,125.646 5.200 C 125.451 5.200,125.013 4.615,124.672 3.900 C 124.331 3.185,123.681 2.203,123.226 1.717 C 122.772 1.231,122.400 0.646,122.400 0.417 C 122.400 0.130,103.923 0.000,63.000 0.000 C 10.467 0.000,3.600 0.069,3.600 0.600 M104.400 27.512 C 104.400 27.903,104.760 28.483,105.200 28.800 C 105.640 29.117,106.000 29.609,106.000 29.892 C 106.000 30.175,106.540 30.972,107.200 31.663 C 107.860 32.354,108.400 33.064,108.400 33.242 C 108.400 33.577,109.934 36.006,111.027 37.400 C 111.372 37.840,111.950 38.695,112.313 39.300 C 112.676 39.905,113.114 40.400,113.286 40.400 C 113.459 40.400,113.600 40.630,113.600 40.912 C 113.600 41.193,113.960 41.683,114.400 42.000 C 114.840 42.317,115.200 42.857,115.200 43.200 C 115.200 43.543,115.560 44.083,116.000 44.400 C 116.440 44.717,116.800 45.209,116.800 45.492 C 116.800 45.775,117.340 46.572,118.000 47.263 C 118.660 47.954,119.200 48.722,119.200 48.971 C 119.200 49.220,119.560 49.683,120.000 50.000 C 120.440 50.317,120.800 50.831,120.800 51.141 C 120.800 51.452,121.116 51.997,121.503 52.353 C 121.889 52.709,122.460 53.495,122.770 54.100 C 123.081 54.705,123.485 55.200,123.668 55.200 C 123.850 55.200,124.000 55.388,124.000 55.617 C 124.000 55.846,124.225 56.302,124.500 56.631 C 124.775 56.959,125.180 57.447,125.400 57.714 C 125.620 57.981,126.055 58.695,126.368 59.300 C 126.680 59.905,127.085 60.400,127.268 60.400 C 127.450 60.400,127.600 60.625,127.601 60.900 C 127.601 61.175,128.141 62.030,128.800 62.800 C 129.459 63.570,129.999 64.385,129.999 64.612 C 130.000 64.838,130.360 65.283,130.800 65.600 C 131.240 65.917,131.600 66.457,131.600 66.800 C 131.600 67.143,131.960 67.683,132.400 68.000 C 132.840 68.317,133.200 68.762,133.201 68.988 C 133.201 69.215,133.741 70.030,134.400 70.800 C 135.059 71.570,135.599 72.385,135.599 72.612 C 135.600 72.838,135.960 73.283,136.400 73.600 C 136.840 73.917,137.200 74.367,137.200 74.600 C 137.200 74.833,137.560 75.283,138.000 75.600 C 138.440 75.917,138.800 76.457,138.800 76.800 C 138.800 77.143,139.160 77.683,139.600 78.000 C 140.040 78.317,140.400 78.762,140.400 78.988 C 140.401 79.215,140.831 79.900,141.357 80.511 C 141.882 81.122,142.534 82.157,142.805 82.811 C 143.075 83.465,143.433 84.000,143.600 84.000 C 143.767 84.000,144.127 84.540,144.400 85.200 C 144.673 85.860,145.013 86.400,145.154 86.400 C 145.295 86.400,145.856 87.120,146.400 88.000 C 146.944 88.880,147.526 89.600,147.694 89.600 C 147.862 89.600,148.000 89.830,148.000 90.112 C 148.000 90.393,148.360 90.883,148.800 91.200 C 149.240 91.517,149.600 92.057,149.600 92.400 C 149.600 92.743,149.960 93.283,150.400 93.600 C 150.840 93.917,151.200 94.380,151.200 94.629 C 151.200 94.878,151.740 95.646,152.400 96.337 C 153.060 97.028,153.600 97.825,153.600 98.108 C 153.600 98.391,153.960 98.883,154.400 99.200 C 154.840 99.517,155.200 100.057,155.200 100.400 C 155.200 100.743,155.560 101.283,156.000 101.600 C 156.440 101.917,156.802 102.362,156.805 102.588 C 156.808 102.815,157.168 103.450,157.604 104.000 C 158.040 104.550,159.061 105.990,159.872 107.200 C 160.684 108.410,161.584 109.638,161.874 109.929 C 162.163 110.219,162.400 110.596,162.400 110.766 C 162.400 110.936,162.850 111.599,163.400 112.238 C 163.949 112.877,164.399 113.585,164.400 113.812 C 164.400 114.038,164.760 114.483,165.200 114.800 C 165.640 115.117,166.000 115.657,166.000 116.000 C 166.000 116.343,166.360 116.883,166.800 117.200 C 167.240 117.517,167.600 117.980,167.600 118.229 C 167.600 118.478,168.140 119.246,168.800 119.937 C 169.460 120.628,170.000 121.425,170.000 121.708 C 170.000 121.991,170.360 122.483,170.800 122.800 C 171.240 123.117,171.600 123.567,171.600 123.800 C 171.600 124.033,171.960 124.483,172.400 124.800 C 172.840 125.117,173.200 125.615,173.200 125.906 C 173.200 126.198,173.619 126.855,174.130 127.366 C 174.642 127.878,175.293 128.860,175.579 129.548 C 175.864 130.237,176.255 130.800,176.449 130.800 C 176.642 130.800,176.800 131.036,176.800 131.325 C 176.800 131.613,177.160 132.236,177.600 132.708 C 178.040 133.180,178.400 133.709,178.401 133.883 C 178.401 134.057,178.941 134.830,179.600 135.600 C 180.259 136.370,180.799 137.185,180.799 137.412 C 180.800 137.638,181.160 138.083,181.600 138.400 C 182.040 138.717,182.400 139.207,182.400 139.488 C 182.400 139.770,182.550 140.000,182.732 140.000 C 182.915 140.000,183.319 140.495,183.630 141.100 C 183.940 141.705,184.511 142.491,184.897 142.847 C 185.284 143.203,185.600 143.671,185.600 143.888 C 185.600 144.104,186.140 144.846,186.800 145.537 C 187.460 146.228,188.000 147.025,188.000 147.308 C 188.000 147.591,188.360 148.083,188.800 148.400 C 189.240 148.717,189.600 149.257,189.600 149.600 C 189.600 149.943,189.960 150.483,190.400 150.800 C 190.840 151.117,191.200 151.526,191.200 151.709 C 191.200 152.078,195.453 158.291,196.279 159.129 C 196.565 159.419,196.800 159.816,196.800 160.010 C 196.800 160.205,197.250 160.814,197.800 161.364 C 198.350 161.914,198.800 162.602,198.800 162.894 C 198.800 163.185,199.160 163.683,199.600 164.000 C 200.040 164.317,200.400 164.809,200.400 165.092 C 200.400 165.375,200.940 166.172,201.600 166.863 C 202.260 167.554,202.800 168.322,202.800 168.571 C 202.800 168.820,203.160 169.283,203.600 169.600 C 204.040 169.917,204.400 170.457,204.400 170.800 C 204.400 171.143,204.760 171.683,205.200 172.000 C 205.640 172.317,206.000 172.807,206.000 173.088 C 206.000 173.370,206.150 173.600,206.332 173.600 C 206.515 173.600,206.920 174.095,207.232 174.700 C 207.770 175.741,208.064 176.176,209.000 177.314 C 209.220 177.581,209.655 178.295,209.968 178.900 C 210.280 179.505,210.685 180.000,210.868 180.000 C 211.050 180.000,211.200 180.225,211.200 180.500 C 211.201 180.775,211.651 181.523,212.200 182.162 C 212.750 182.801,213.200 183.468,213.200 183.644 C 213.200 183.820,213.650 184.414,214.200 184.964 C 214.750 185.514,215.200 186.176,215.200 186.435 C 215.200 186.694,215.516 187.197,215.903 187.553 C 216.289 187.909,216.860 188.695,217.170 189.300 C 217.481 189.905,217.885 190.400,218.068 190.400 C 218.250 190.400,218.400 190.582,218.400 190.804 C 218.400 191.026,218.940 191.772,219.600 192.463 C 220.260 193.154,220.800 193.922,220.800 194.171 C 220.800 194.420,221.160 194.883,221.600 195.200 C 222.040 195.517,222.400 196.057,222.400 196.400 C 222.400 196.743,222.760 197.283,223.200 197.600 C 223.640 197.917,224.000 198.345,224.000 198.551 C 224.000 198.756,224.409 199.481,224.908 200.162 C 225.408 200.843,226.068 201.895,226.376 202.500 C 226.683 203.105,227.085 203.600,227.268 203.600 C 227.450 203.600,227.600 203.791,227.600 204.023 C 227.600 204.419,229.303 206.760,230.900 208.562 C 231.285 208.996,231.600 209.547,231.600 209.787 C 231.600 210.027,231.960 210.483,232.400 210.800 C 232.840 211.117,233.200 211.657,233.200 212.000 C 233.200 212.343,233.560 212.883,234.000 213.200 C 234.440 213.517,234.800 214.009,234.800 214.292 C 234.800 214.575,235.340 215.372,236.000 216.063 C 236.660 216.754,237.200 217.522,237.200 217.771 C 237.200 218.020,237.560 218.483,238.000 218.800 C 238.440 219.117,238.800 219.657,238.800 220.000 C 238.800 220.343,239.160 220.883,239.600 221.200 C 240.040 221.517,240.400 222.007,240.400 222.288 C 240.400 222.570,240.580 222.800,240.800 222.800 C 241.020 222.800,241.200 223.070,241.200 223.400 C 241.200 223.730,241.339 224.000,241.509 224.000 C 241.679 224.000,242.157 224.630,242.572 225.400 C 242.987 226.170,243.478 226.800,243.663 226.800 C 243.848 226.800,244.000 227.036,244.000 227.325 C 244.000 227.613,244.360 228.236,244.800 228.708 C 245.240 229.180,245.600 229.709,245.601 229.883 C 245.601 230.057,246.141 230.830,246.800 231.600 C 247.459 232.370,247.999 233.185,247.999 233.412 C 248.000 233.638,248.360 234.083,248.800 234.400 C 249.240 234.717,249.600 235.257,249.600 235.600 C 249.600 235.943,249.960 236.483,250.400 236.800 C 250.840 237.117,251.200 237.607,251.200 237.888 C 251.200 238.170,251.380 238.400,251.600 238.400 C 251.820 238.400,252.000 238.578,252.000 238.795 C 252.000 239.216,252.826 240.307,254.300 241.832 C 254.795 242.344,255.200 243.002,255.200 243.294 C 255.200 243.585,255.560 244.083,256.000 244.400 C 256.440 244.717,256.800 245.231,256.800 245.541 C 256.800 245.852,257.117 246.397,257.506 246.753 C 257.894 247.109,258.564 248.075,258.996 248.900 C 259.428 249.725,259.921 250.400,260.091 250.400 C 260.261 250.400,260.400 250.636,260.400 250.925 C 260.400 251.213,260.760 251.836,261.200 252.308 C 261.640 252.780,262.003 253.309,262.007 253.483 C 262.015 253.838,263.726 256.056,265.100 257.494 C 265.595 258.012,266.000 258.658,266.000 258.930 C 266.000 259.201,266.360 259.683,266.800 260.000 C 267.240 260.317,267.600 260.857,267.600 261.200 C 267.600 261.543,267.960 262.083,268.400 262.400 C 268.840 262.717,269.200 263.180,269.200 263.429 C 269.200 263.678,269.740 264.446,270.400 265.137 C 271.060 265.828,271.600 266.625,271.600 266.908 C 271.600 267.191,271.960 267.683,272.400 268.000 C 272.840 268.317,273.200 268.857,273.200 269.200 C 273.200 269.543,273.560 270.083,274.000 270.400 C 274.440 270.717,274.800 271.145,274.800 271.351 C 274.800 271.556,275.250 272.314,275.800 273.036 C 276.350 273.757,276.800 274.473,276.800 274.626 C 276.800 274.780,277.116 275.197,277.503 275.553 C 277.889 275.909,278.460 276.695,278.770 277.300 C 279.081 277.905,279.485 278.400,279.668 278.400 C 279.850 278.400,280.000 278.625,280.001 278.900 C 280.001 279.175,280.541 280.030,281.200 280.800 C 281.859 281.570,282.399 282.385,282.399 282.612 C 282.400 282.838,282.760 283.283,283.200 283.600 C 283.640 283.917,284.000 284.457,284.000 284.800 C 284.000 285.143,284.360 285.683,284.800 286.000 C 285.240 286.317,285.600 286.807,285.600 287.088 C 285.600 287.370,285.780 287.600,286.000 287.600 C 286.220 287.600,286.400 287.830,286.400 288.112 C 286.400 288.393,286.760 288.883,287.200 289.200 C 287.640 289.517,288.000 289.967,288.000 290.200 C 288.000 290.433,288.360 290.883,288.800 291.200 C 289.240 291.517,289.600 292.057,289.600 292.400 C 289.600 292.743,289.960 293.283,290.400 293.600 C 290.840 293.917,291.200 294.414,291.200 294.705 C 291.200 295.201,291.477 295.621,292.700 296.985 C 292.975 297.292,293.200 297.702,293.200 297.896 C 293.200 298.090,293.515 298.598,293.900 299.025 C 294.285 299.451,294.855 300.295,295.168 300.900 C 295.480 301.505,295.885 302.000,296.068 302.000 C 296.250 302.000,296.400 302.225,296.400 302.500 C 296.401 302.775,296.866 303.540,297.435 304.200 C 298.004 304.860,298.763 305.895,299.121 306.500 C 299.479 307.105,299.914 307.600,300.086 307.600 C 300.259 307.600,300.400 307.830,300.400 308.112 C 300.400 308.393,300.760 308.883,301.200 309.200 C 301.640 309.517,302.000 310.057,302.000 310.400 C 302.000 310.743,302.360 311.283,302.800 311.600 C 303.240 311.917,303.600 312.380,303.600 312.629 C 303.600 312.878,304.140 313.646,304.800 314.337 C 305.460 315.028,306.000 315.825,306.000 316.108 C 306.000 316.391,306.360 316.883,306.800 317.200 C 307.240 317.517,307.600 318.082,307.600 318.455 C 307.600 318.828,307.753 319.193,307.940 319.267 C 308.230 319.380,309.420 321.048,311.000 323.554 C 311.220 323.903,311.715 324.482,312.100 324.841 C 312.485 325.200,312.800 325.653,312.801 325.847 C 312.801 326.041,313.341 326.830,314.000 327.600 C 314.659 328.370,315.199 329.185,315.199 329.412 C 315.200 329.638,315.560 330.083,316.000 330.400 C 316.440 330.717,316.800 331.257,316.800 331.600 C 316.800 331.943,317.160 332.483,317.600 332.800 C 318.040 333.117,318.400 333.562,318.401 333.788 C 318.401 334.015,318.941 334.830,319.600 335.600 C 320.259 336.370,320.799 337.159,320.799 337.353 C 320.800 337.547,321.116 337.997,321.503 338.353 C 321.889 338.709,322.460 339.495,322.770 340.100 C 323.081 340.705,323.485 341.200,323.668 341.200 C 323.850 341.200,324.000 341.470,324.000 341.800 C 324.000 342.130,324.135 342.404,324.300 342.408 C 324.465 342.412,325.132 343.312,325.783 344.408 C 326.433 345.504,327.108 346.400,327.283 346.400 C 327.457 346.400,327.600 346.720,327.600 347.112 C 327.600 347.503,327.960 348.083,328.400 348.400 C 328.840 348.717,329.200 349.162,329.201 349.388 C 329.201 349.615,329.741 350.430,330.400 351.200 C 331.059 351.970,331.599 352.759,331.599 352.953 C 331.600 353.147,331.916 353.597,332.303 353.953 C 332.689 354.309,333.260 355.095,333.570 355.700 C 333.881 356.305,334.285 356.800,334.468 356.800 C 334.650 356.800,334.800 357.030,334.800 357.312 C 334.800 357.593,335.160 358.083,335.600 358.400 C 336.040 358.717,336.400 359.209,336.400 359.492 C 336.400 359.775,336.940 360.572,337.600 361.263 C 338.260 361.954,338.800 362.722,338.800 362.971 C 338.800 363.220,339.160 363.683,339.600 364.000 C 340.040 364.317,340.400 364.831,340.400 365.141 C 340.400 365.452,340.715 365.997,341.100 366.353 C 341.485 366.709,342.143 367.675,342.563 368.500 C 342.983 369.325,343.478 370.000,343.663 370.000 C 343.848 370.000,344.000 370.236,344.000 370.525 C 344.000 370.813,344.360 371.436,344.800 371.908 C 345.240 372.380,345.600 372.888,345.600 373.036 C 345.600 373.185,345.988 373.642,346.461 374.053 C 347.303 374.783,346.751 374.800,321.461 374.800 C 296.936 374.800,295.600 374.763,295.600 374.088 C 295.600 373.697,295.240 373.117,294.800 372.800 C 294.360 372.483,294.000 371.975,294.000 371.672 C 294.000 371.369,293.460 370.617,292.800 370.000 C 292.140 369.383,291.600 368.689,291.600 368.457 C 291.600 368.040,290.185 365.746,288.973 364.200 C 288.628 363.760,288.050 362.905,287.687 362.300 C 287.324 361.695,286.886 361.200,286.714 361.200 C 286.541 361.200,286.400 360.958,286.400 360.662 C 286.400 360.366,286.040 359.798,285.600 359.400 C 285.160 359.002,284.800 358.474,284.800 358.226 C 284.800 357.979,284.440 357.517,284.000 357.200 C 283.560 356.883,283.200 356.391,283.200 356.108 C 283.200 355.825,282.660 355.028,282.000 354.337 C 281.340 353.646,280.800 352.878,280.800 352.629 C 280.800 352.380,280.440 351.917,280.000 351.600 C 279.560 351.283,279.200 350.743,279.200 350.400 C 279.200 350.057,278.840 349.517,278.400 349.200 C 277.960 348.883,277.600 348.438,277.599 348.212 C 277.599 347.985,277.059 347.170,276.400 346.400 C 275.741 345.630,275.201 344.853,275.201 344.673 C 275.200 344.345,273.433 341.858,272.500 340.871 C 272.225 340.581,272.000 340.204,272.000 340.034 C 272.000 339.864,271.550 339.201,271.000 338.562 C 270.451 337.923,270.001 337.215,270.000 336.988 C 270.000 336.762,269.640 336.317,269.200 336.000 C 268.760 335.683,268.400 335.143,268.400 334.800 C 268.400 334.457,268.040 333.917,267.600 333.600 C 267.160 333.283,266.800 332.820,266.800 332.571 C 266.800 332.322,266.260 331.554,265.600 330.863 C 264.940 330.172,264.400 329.375,264.400 329.092 C 264.400 328.809,264.040 328.317,263.600 328.000 C 263.160 327.683,262.800 327.193,262.800 326.912 C 262.800 326.630,262.650 326.400,262.468 326.400 C 262.285 326.400,261.881 325.905,261.570 325.300 C 261.260 324.695,260.733 323.930,260.400 323.600 C 260.067 323.270,259.540 322.505,259.230 321.900 C 258.919 321.295,258.543 320.800,258.393 320.800 C 258.244 320.800,257.797 320.080,257.400 319.200 C 257.003 318.320,256.548 317.600,256.388 317.600 C 256.228 317.600,255.873 317.060,255.600 316.400 C 255.327 315.740,254.975 315.200,254.819 315.200 C 254.663 315.200,254.281 314.705,253.970 314.100 C 253.660 313.495,253.133 312.730,252.800 312.400 C 252.467 312.070,251.940 311.305,251.630 310.700 C 251.319 310.095,250.915 309.600,250.732 309.600 C 250.550 309.600,250.400 309.370,250.400 309.088 C 250.400 308.807,250.040 308.317,249.600 308.000 C 249.160 307.683,248.800 307.220,248.800 306.971 C 248.800 306.722,248.260 305.954,247.600 305.263 C 246.940 304.572,246.400 303.775,246.400 303.492 C 246.400 303.209,246.040 302.717,245.600 302.400 C 245.160 302.083,244.800 301.543,244.800 301.200 C 244.800 300.857,244.440 300.317,244.000 300.000 C 243.560 299.683,243.198 299.238,243.195 299.012 C 243.192 298.785,242.832 298.150,242.396 297.600 C 241.960 297.050,240.939 295.610,240.128 294.400 C 239.316 293.190,238.416 291.962,238.126 291.671 C 237.837 291.381,237.600 290.984,237.600 290.790 C 237.600 290.595,237.150 289.986,236.600 289.436 C 236.050 288.886,235.600 288.198,235.600 287.906 C 235.600 287.615,235.240 287.117,234.800 286.800 C 234.360 286.483,234.000 285.943,234.000 285.600 C 234.000 285.257,233.640 284.717,233.200 284.400 C 232.760 284.083,232.400 283.620,232.400 283.371 C 232.400 283.122,231.860 282.354,231.200 281.663 C 230.540 280.972,230.000 280.202,230.000 279.951 C 230.000 279.699,229.684 279.203,229.297 278.847 C 228.911 278.491,228.340 277.705,228.030 277.100 C 227.719 276.495,227.315 276.000,227.132 276.000 C 226.950 276.000,226.800 275.812,226.800 275.582 C 226.800 275.352,226.381 274.745,225.870 274.234 C 225.358 273.722,224.707 272.740,224.421 272.052 C 224.136 271.363,223.745 270.800,223.551 270.800 C 223.358 270.800,223.200 270.575,223.200 270.300 C 223.199 270.025,222.749 269.277,222.200 268.638 C 221.650 267.999,221.200 267.332,221.200 267.156 C 221.200 266.980,220.750 266.386,220.200 265.836 C 219.650 265.286,219.200 264.624,219.200 264.365 C 219.200 264.106,218.884 263.603,218.497 263.247 C 218.111 262.891,217.540 262.105,217.230 261.500 C 216.919 260.895,216.515 260.400,216.332 260.400 C 216.150 260.400,216.000 260.218,216.000 259.996 C 216.000 259.774,215.460 259.028,214.800 258.337 C 214.140 257.646,213.600 256.878,213.600 256.629 C 213.600 256.380,213.240 255.917,212.800 255.600 C 212.360 255.283,212.000 254.743,212.000 254.400 C 212.000 254.057,211.640 253.517,211.200 253.200 C 210.760 252.883,210.400 252.385,210.400 252.094 C 210.400 251.802,209.938 251.101,209.373 250.537 C 208.808 249.972,208.178 249.125,207.974 248.655 C 207.462 247.478,206.902 246.636,204.700 243.730 C 203.655 242.351,202.800 241.078,202.800 240.900 C 202.800 240.722,202.440 240.317,202.000 240.000 C 201.560 239.683,201.200 239.143,201.200 238.800 C 201.200 238.457,200.840 237.917,200.400 237.600 C 199.960 237.283,199.600 236.791,199.600 236.508 C 199.600 236.225,199.060 235.428,198.400 234.737 C 197.740 234.046,197.200 233.278,197.200 233.029 C 197.200 232.780,196.840 232.317,196.400 232.000 C 195.960 231.683,195.600 231.169,195.600 230.859 C 195.600 230.548,195.284 230.003,194.897 229.647 C 194.511 229.291,193.940 228.505,193.630 227.900 C 193.319 227.295,192.915 226.800,192.732 226.800 C 192.550 226.800,192.400 226.612,192.400 226.383 C 192.400 226.154,192.175 225.698,191.900 225.369 C 191.625 225.041,191.220 224.553,191.000 224.286 C 190.780 224.019,190.345 223.305,190.032 222.700 C 189.720 222.095,189.315 221.600,189.132 221.600 C 188.950 221.600,188.800 221.375,188.800 221.100 C 188.799 220.825,188.349 220.077,187.800 219.438 C 187.250 218.799,186.800 218.132,186.800 217.956 C 186.800 217.780,186.350 217.186,185.800 216.636 C 185.250 216.086,184.800 215.398,184.800 215.106 C 184.800 214.815,184.440 214.317,184.000 214.000 C 183.560 213.683,183.197 213.238,183.193 213.012 C 183.185 212.577,181.611 210.487,180.100 208.906 C 179.605 208.388,179.200 207.742,179.200 207.470 C 179.200 207.199,178.840 206.717,178.400 206.400 C 177.960 206.083,177.600 205.543,177.600 205.200 C 177.600 204.857,177.240 204.317,176.800 204.000 C 176.360 203.683,176.000 203.255,176.000 203.049 C 176.000 202.844,175.591 202.119,175.092 201.438 C 174.592 200.757,173.932 199.705,173.624 199.100 C 173.317 198.495,172.915 198.000,172.732 198.000 C 172.550 198.000,172.400 197.775,172.400 197.500 C 172.399 197.225,171.934 196.460,171.365 195.800 C 170.796 195.140,170.037 194.105,169.679 193.500 C 169.321 192.895,168.886 192.400,168.714 192.400 C 168.541 192.400,168.400 192.170,168.400 191.888 C 168.400 191.607,168.040 191.117,167.600 190.800 C 167.160 190.483,166.800 189.943,166.800 189.600 C 166.800 189.257,166.440 188.717,166.000 188.400 C 165.560 188.083,165.200 187.638,165.199 187.412 C 165.199 187.185,164.659 186.370,164.000 185.600 C 163.341 184.830,162.801 184.015,162.801 183.788 C 162.800 183.562,162.440 183.117,162.000 182.800 C 161.560 182.483,161.200 181.943,161.200 181.600 C 161.200 181.257,160.840 180.717,160.400 180.400 C 159.960 180.083,159.600 179.627,159.600 179.387 C 159.600 179.147,159.276 178.602,158.880 178.175 C 158.484 177.749,157.815 176.815,157.394 176.100 C 156.972 175.385,156.486 174.800,156.314 174.800 C 156.141 174.800,156.000 174.564,156.000 174.275 C 156.000 173.987,155.640 173.364,155.200 172.892 C 154.760 172.420,154.400 171.891,154.399 171.717 C 154.399 171.543,153.859 170.770,153.200 170.000 C 152.541 169.230,152.001 168.415,152.001 168.188 C 152.000 167.962,151.640 167.517,151.200 167.200 C 150.760 166.883,150.400 166.343,150.400 166.000 C 150.400 165.657,150.040 165.117,149.600 164.800 C 149.160 164.483,148.800 164.020,148.800 163.771 C 148.800 163.522,148.305 162.794,147.700 162.152 C 147.095 161.511,146.345 160.494,146.032 159.893 C 145.720 159.292,145.315 158.800,145.132 158.800 C 144.950 158.800,144.800 158.570,144.800 158.288 C 144.800 158.007,144.440 157.517,144.000 157.200 C 143.560 156.883,143.200 156.369,143.200 156.059 C 143.200 155.748,142.883 155.203,142.494 154.847 C 142.106 154.491,141.436 153.525,141.004 152.700 C 140.572 151.875,140.079 151.200,139.909 151.200 C 139.739 151.200,139.600 150.964,139.600 150.675 C 139.600 150.387,139.240 149.764,138.800 149.292 C 138.360 148.820,138.000 148.291,138.000 148.117 C 137.999 147.943,137.534 147.260,136.965 146.600 C 136.396 145.940,135.637 144.905,135.279 144.300 C 134.921 143.695,134.486 143.200,134.314 143.200 C 134.141 143.200,134.000 142.970,134.000 142.688 C 134.000 142.407,133.640 141.917,133.200 141.600 C 132.760 141.283,132.400 140.743,132.400 140.400 C 132.400 140.057,132.040 139.517,131.600 139.200 C 131.160 138.883,130.800 138.420,130.800 138.171 C 130.800 137.922,130.260 137.154,129.600 136.463 C 128.940 135.772,128.400 134.975,128.400 134.692 C 128.400 134.409,128.040 133.917,127.600 133.600 C 127.160 133.283,126.800 132.743,126.800 132.400 C 126.800 132.057,126.440 131.517,126.000 131.200 C 125.560 130.883,125.200 130.455,125.200 130.249 C 125.200 130.044,124.750 129.286,124.200 128.564 C 123.650 127.843,123.200 127.101,123.200 126.915 C 123.200 126.729,122.840 126.317,122.400 126.000 C 121.960 125.683,121.600 125.238,121.600 125.012 C 121.599 124.785,121.149 124.077,120.600 123.438 C 120.050 122.799,119.600 122.132,119.600 121.956 C 119.600 121.780,119.150 121.186,118.600 120.636 C 118.050 120.086,117.600 119.398,117.600 119.106 C 117.600 118.815,117.240 118.317,116.800 118.000 C 116.360 117.683,116.000 117.143,116.000 116.800 C 116.000 116.457,115.640 115.917,115.200 115.600 C 114.760 115.283,114.400 114.793,114.400 114.512 C 114.400 114.230,114.220 114.000,114.000 114.000 C 113.780 114.000,113.600 113.770,113.600 113.488 C 113.600 113.207,113.240 112.717,112.800 112.400 C 112.360 112.083,112.000 111.543,112.000 111.200 C 112.000 110.857,111.640 110.317,111.200 110.000 C 110.760 109.683,110.400 109.233,110.400 109.000 C 110.400 108.767,110.040 108.317,109.600 108.000 C 109.160 107.683,108.800 107.186,108.800 106.895 C 108.800 106.604,108.575 106.098,108.300 105.769 C 108.025 105.441,107.620 104.953,107.400 104.686 C 107.180 104.419,106.745 103.705,106.432 103.100 C 106.120 102.495,105.715 102.000,105.532 102.000 C 105.350 102.000,105.200 101.775,105.200 101.500 C 105.199 101.225,104.749 100.477,104.200 99.838 C 103.650 99.199,103.200 98.532,103.200 98.356 C 103.200 98.180,102.750 97.586,102.200 97.036 C 101.650 96.486,101.200 95.798,101.200 95.506 C 101.200 95.215,100.840 94.717,100.400 94.400 C 99.960 94.083,99.600 93.633,99.600 93.400 C 99.600 93.167,99.240 92.717,98.800 92.400 C 98.360 92.083,98.000 91.591,98.000 91.308 C 98.000 91.025,97.460 90.228,96.800 89.537 C 96.140 88.846,95.600 88.078,95.600 87.829 C 95.600 87.580,95.240 87.117,94.800 86.800 C 94.360 86.483,94.000 85.943,94.000 85.600 C 94.000 85.257,93.640 84.717,93.200 84.400 C 92.760 84.083,92.400 83.586,92.400 83.295 C 92.400 83.004,92.028 82.369,91.574 81.883 C 91.119 81.397,90.469 80.415,90.128 79.700 C 89.787 78.985,89.349 78.400,89.154 78.400 C 88.959 78.400,88.800 78.209,88.800 77.977 C 88.800 77.581,87.097 75.240,85.500 73.438 C 85.115 73.004,84.800 72.453,84.800 72.213 C 84.800 71.973,84.440 71.517,84.000 71.200 C 83.560 70.883,83.200 70.343,83.200 70.000 C 83.200 69.657,82.840 69.117,82.400 68.800 C 81.960 68.483,81.600 67.991,81.600 67.708 C 81.600 67.425,81.060 66.628,80.400 65.937 C 79.740 65.246,79.200 64.478,79.200 64.229 C 79.200 63.980,78.840 63.517,78.400 63.200 C 77.960 62.883,77.600 62.343,77.600 62.000 C 77.600 61.657,77.240 61.117,76.800 60.800 C 76.360 60.483,76.000 59.993,76.000 59.712 C 76.000 59.430,75.842 59.200,75.649 59.200 C 75.455 59.200,75.088 58.695,74.833 58.079 C 74.577 57.462,73.925 56.480,73.384 55.896 C 72.843 55.313,72.400 54.597,72.400 54.306 C 72.400 54.015,72.040 53.517,71.600 53.200 C 71.160 52.883,70.800 52.438,70.799 52.212 C 70.799 51.985,70.259 51.170,69.600 50.400 C 68.941 49.630,68.401 48.815,68.401 48.588 C 68.400 48.362,68.040 47.917,67.600 47.600 C 67.160 47.283,66.800 46.743,66.800 46.400 C 66.800 46.057,66.440 45.517,66.000 45.200 C 65.560 44.883,65.200 44.393,65.200 44.112 C 65.200 43.830,65.059 43.600,64.886 43.600 C 64.714 43.600,64.251 43.055,63.857 42.389 C 63.464 41.723,62.705 40.741,62.171 40.207 C 61.637 39.673,61.200 38.998,61.200 38.706 C 61.200 38.415,60.840 37.917,60.400 37.600 C 59.960 37.283,59.600 36.769,59.600 36.459 C 59.600 36.148,59.285 35.603,58.900 35.247 C 58.515 34.891,57.857 33.925,57.437 33.100 C 57.017 32.275,56.522 31.600,56.337 31.600 C 56.152 31.600,56.000 31.364,56.000 31.075 C 56.000 30.787,55.640 30.164,55.200 29.692 C 54.760 29.220,54.400 28.705,54.400 28.548 C 54.400 28.391,54.102 27.934,53.738 27.531 C 53.097 26.824,53.902 26.800,78.738 26.800 C 103.072 26.800,104.400 26.837,104.400 27.512 " stroke="none" fill="#040404" fill-rule="evenodd"></path><path id="path1" d="" stroke="none" fill="#080404" fill-rule="evenodd"></path><path id="path2" d="" stroke="none" fill="#080404" fill-rule="evenodd"></path><path id="path3" d="" stroke="none" fill="#080404" fill-rule="evenodd"></path><path id="path4" d="" stroke="none" fill="#080404" fill-rule="evenodd"></path></g></svg>